Hubli-Regular-exp.ufo
<glyph name="percent" format="1">
  <advance width="806"/>
  <unicode hex="0025"/>
  <outline>
    <contour>
      <point x="208" y="552" type="curve" smooth="yes"/>
      <point x="283" y="552"/>
      <point x="349" y="486"/>
      <point x="349" y="383" type="curve" smooth="yes"/>
      <point x="349" y="286"/>
      <point x="294" y="214"/>
      <point x="208" y="214" type="curve" smooth="yes"/>
      <point x="130" y="214"/>
      <point x="66" y="287"/>
      <point x="66" y="382" type="curve" smooth="yes"/>
      <point x="66" y="486"/>
      <point x="129" y="552"/>
    </contour>
    <contour>
      <point x="604" y="322" type="curve" smooth="yes"/>
      <point x="679" y="322"/>
      <point x="745" y="256"/>
      <point x="745" y="153" type="curve" smooth="yes"/>
      <point x="745" y="56"/>
      <point x="690" y="-16"/>
      <point x="604" y="-16" type="curve" smooth="yes"/>
      <point x="526" y="-16"/>
      <point x="462" y="57"/>
      <point x="462" y="152" type="curve" smooth="yes"/>
      <point x="462" y="256"/>
      <point x="525" y="322"/>
    </contour>
    <contour>
      <point x="584" y="495" type="curve" smooth="yes"/>
      <point x="301" y="10" type="line" smooth="yes"/>
      <point x="292" y="-5"/>
      <point x="271" y="-10"/>
      <point x="255" y="-2" type="curve" smooth="yes"/>
      <point x="240" y="7"/>
      <point x="235" y="28"/>
      <point x="243" y="44" type="curve" smooth="yes"/>
      <point x="526" y="529" type="line" smooth="yes"/>
      <point x="535" y="544"/>
      <point x="556" y="549"/>
      <point x="572" y="541" type="curve" smooth="yes"/>
      <point x="587" y="532"/>
      <point x="592" y="511"/>
    </contour>
    <contour>
      <point x="208" y="486" type="curve" smooth="yes"/>
      <point x="159" y="486"/>
      <point x="132" y="438"/>
      <point x="132" y="382" type="curve" smooth="yes"/>
      <point x="132" y="331"/>
      <point x="160" y="280"/>
      <point x="208" y="280" type="curve" smooth="yes"/>
      <point x="260" y="280"/>
      <point x="283" y="332"/>
      <point x="283" y="383" type="curve" smooth="yes"/>
      <point x="283" y="438"/>
      <point x="253" y="486"/>
    </contour>
    <contour>
      <point x="604" y="256" type="curve" smooth="yes"/>
      <point x="555" y="256"/>
      <point x="528" y="208"/>
      <point x="528" y="152" type="curve" smooth="yes"/>
      <point x="528" y="101"/>
      <point x="556" y="50"/>
      <point x="604" y="50" type="curve" smooth="yes"/>
      <point x="656" y="50"/>
      <point x="679" y="102"/>
      <point x="679" y="153" type="curve" smooth="yes"/>
      <point x="679" y="208"/>
      <point x="649" y="256"/>
    </contour>
  </outline>
</glyph>
<glyph name="ampersand" format="1">
  <advance width="644"/>
  <unicode hex="0026"/>
  <outline>
    <contour>
      <point x="552" y="262" type="curve" smooth="yes"/>
      <point x="466" y="140" type="line" smooth="yes"/>
      <point x="382" y="21"/>
      <point x="320" y="-14"/>
      <point x="238" y="-14" type="curve" smooth="yes"/>
      <point x="132" y="-14"/>
      <point x="64" y="54"/>
      <point x="64" y="137" type="curve" smooth="yes"/>
      <point x="64" y="211"/>
      <point x="93" y="273"/>
      <point x="264" y="344" type="curve" smooth="yes"/>
      <point x="310" y="362"/>
      <point x="336" y="387"/>
      <point x="336" y="423" type="curve" smooth="yes"/>
      <point x="336" y="460"/>
      <point x="302" y="486"/>
      <point x="263" y="486" type="curve" smooth="yes"/>
      <point x="223" y="486"/>
      <point x="193" y="460"/>
      <point x="193" y="419" type="curve" smooth="yes"/>
      <point x="193" y="373"/>
      <point x="232" y="340"/>
      <point x="281" y="297" type="curve" smooth="yes"/>
      <point x="562" y="52" type="line" smooth="yes"/>
      <point x="575" y="40"/>
      <point x="577" y="19"/>
      <point x="565" y="5" type="curve" smooth="yes"/>
      <point x="553" y="-8"/>
      <point x="532" y="-10"/>
      <point x="518" y="2" type="curve" smooth="yes"/>
      <point x="237" y="247" type="line" smooth="yes"/>
      <point x="168" y="308"/>
      <point x="127" y="357"/>
      <point x="127" y="419" type="curve" smooth="yes"/>
      <point x="127" y="498"/>
      <point x="185" y="552"/>
      <point x="263" y="552" type="curve" smooth="yes"/>
      <point x="344" y="552"/>
      <point x="402" y="494"/>
      <point x="402" y="423" type="curve" smooth="yes"/>
      <point x="402" y="365"/>
      <point x="370" y="316"/>
      <point x="290" y="282" type="curve" smooth="yes"/>
      <point x="169" y="233"/>
      <point x="130" y="193"/>
      <point x="130" y="137" type="curve" smooth="yes"/>
      <point x="130" y="86"/>
      <point x="178" y="52"/>
      <point x="238" y="52" type="curve" smooth="yes"/>
      <point x="302" y="52"/>
      <point x="348" y="87"/>
      <point x="412" y="178" type="curve" smooth="yes"/>
      <point x="498" y="300" type="line" smooth="yes"/>
      <point x="508" y="315"/>
      <point x="529" y="318"/>
      <point x="544" y="308" type="curve" smooth="yes"/>
      <point x="559" y="298"/>
      <point x="562" y="277"/>
    </contour>
  </outline>
</glyph>
<glyph name="asterisk" format="1">
  <advance width="369"/>
  <unicode hex="002A"/>
  <outline>
    <contour>
      <point x="218" y="511" type="curve" smooth="yes"/>
      <point x="218" y="321" type="line" smooth="yes"/>
      <point x="218" y="303"/>
      <point x="203" y="288"/>
      <point x="185" y="288" type="curve" smooth="yes"/>
      <point x="167" y="288"/>
      <point x="152" y="303"/>
      <point x="152" y="321" type="curve" smooth="yes"/>
      <point x="152" y="511" type="line" smooth="yes"/>
      <point x="152" y="529"/>
      <point x="167" y="544"/>
      <point x="185" y="544" type="curve" smooth="yes"/>
      <point x="203" y="544"/>
      <point x="218" y="529"/>
    </contour>
    <contour>
      <point x="122" y="494" type="curve" smooth="yes"/>
      <point x="284" y="390" type="line" smooth="yes"/>
      <point x="299" y="380"/>
      <point x="303" y="359"/>
      <point x="294" y="344" type="curve" smooth="yes"/>
      <point x="284" y="329"/>
      <point x="263" y="325"/>
      <point x="248" y="334" type="curve" smooth="yes"/>
      <point x="86" y="438" type="line" smooth="yes"/>
      <point x="71" y="448"/>
      <point x="67" y="469"/>
      <point x="76" y="484" type="curve" smooth="yes"/>
      <point x="86" y="499"/>
      <point x="107" y="503"/>
    </contour>
    <contour>
      <point x="86" y="390" type="curve" smooth="yes"/>
      <point x="248" y="494" type="line" smooth="yes"/>
      <point x="263" y="503"/>
      <point x="284" y="499"/>
      <point x="294" y="484" type="curve" smooth="yes"/>
      <point x="303" y="469"/>
      <point x="299" y="448"/>
      <point x="284" y="438" type="curve" smooth="yes"/>
      <point x="122" y="334" type="line" smooth="yes"/>
      <point x="107" y="325"/>
      <point x="86" y="329"/>
      <point x="76" y="344" type="curve" smooth="yes"/>
      <point x="67" y="359"/>
      <point x="71" y="380"/>
    </contour>
  </outline>
</glyph>
<glyph name="comma" format="1">
  <advance width="240"/>
  <unicode hex="002C"/>
  <outline>
    <contour>
      <point x="146" y="91" type="curve" smooth="yes"/>
      <point x="151" y="77"/>
      <point x="154" y="55"/>
      <point x="154" y="32" type="curve" smooth="yes"/>
      <point x="154" y="-21"/>
      <point x="136" y="-74"/>
      <point x="105" y="-115" type="curve" smooth="yes"/>
      <point x="95" y="-129"/>
      <point x="74" y="-132"/>
      <point x="59" y="-121" type="curve" smooth="yes"/>
      <point x="45" y="-111"/>
      <point x="42" y="-90"/>
      <point x="53" y="-75" type="curve" smooth="yes"/>
      <point x="74" y="-46"/>
      <point x="88" y="-7"/>
      <point x="88" y="32" type="curve" smooth="yes"/>
      <point x="88" y="47"/>
      <point x="87" y="61"/>
      <point x="84" y="71" type="curve" smooth="yes"/>
      <point x="78" y="87"/>
      <point x="88" y="107"/>
      <point x="105" y="112" type="curve" smooth="yes"/>
      <point x="121" y="118"/>
      <point x="141" y="108"/>
    </contour>
  </outline>
</glyph>
<glyph name="zero" format="1">
  <advance width="576"/>
  <unicode hex="0030"/>
  <outline>
    <contour>
      <point x="285" y="552" type="curve" smooth="yes"/>
      <point x="408" y="552"/>
      <point x="515" y="439"/>
      <point x="515" y="270" type="curve" smooth="yes"/>
      <point x="515" y="110"/>
      <point x="428" y="-13"/>
      <point x="285" y="-13" type="curve" smooth="yes"/>
      <point x="154" y="-13"/>
      <point x="52" y="111"/>
      <point x="52" y="268" type="curve"/>
      <point x="52" y="439"/>
      <point x="151" y="552"/>
    </contour>
    <contour>
      <point x="285" y="486" type="curve" smooth="yes"/>
      <point x="183" y="486"/>
      <point x="118" y="391"/>
      <point x="118" y="268" type="curve" smooth="yes"/>
      <point x="118" y="155"/>
      <point x="184" y="53"/>
      <point x="285" y="53" type="curve" smooth="yes"/>
      <point x="394" y="53"/>
      <point x="449" y="156"/>
      <point x="449" y="270" type="curve" smooth="yes"/>
      <point x="449" y="391"/>
      <point x="380" y="486"/>
    </contour>
  </outline>
</glyph>
<glyph name="one" format="1">
  <advance width="329"/>
  <unicode hex="0031"/>
  <outline>
    <contour>
      <point x="234" y="515" type="curve" smooth="yes"/>
      <point x="234" y="27" type="line" smooth="yes"/>
      <point x="234" y="9"/>
      <point x="219" y="-6"/>
      <point x="201" y="-6" type="curve" smooth="yes"/>
      <point x="183" y="-6"/>
      <point x="168" y="9"/>
      <point x="168" y="27" type="curve" smooth="yes"/>
      <point x="168" y="515" type="line" smooth="yes"/>
      <point x="168" y="533"/>
      <point x="183" y="548"/>
      <point x="201" y="548" type="curve" smooth="yes"/>
      <point x="219" y="548"/>
      <point x="234" y="533"/>
    </contour>
    <contour>
      <point x="218" y="494" type="curve" smooth="yes"/>
      <point x="79" y="409" type="line" smooth="yes"/>
      <point x="64" y="400"/>
      <point x="43" y="405"/>
      <point x="34" y="420" type="curve" smooth="yes"/>
      <point x="25" y="435"/>
      <point x="30" y="456"/>
      <point x="45" y="465" type="curve" smooth="yes"/>
      <point x="184" y="550" type="line" smooth="yes"/>
      <point x="199" y="559"/>
      <point x="220" y="554"/>
      <point x="229" y="539" type="curve" smooth="yes"/>
      <point x="238" y="524"/>
      <point x="233" y="503"/>
    </contour>
  </outline>
</glyph>
<glyph name="two" format="1">
  <advance width="531"/>
  <unicode hex="0032"/>
  <outline>
    <contour>
      <point x="78" y="59" type="curve" smooth="yes"/>
      <point x="238" y="218" type="line" smooth="yes"/>
      <point x="333" y="313"/>
      <point x="367" y="348"/>
      <point x="367" y="404" type="curve" smooth="yes"/>
      <point x="367" y="449"/>
      <point x="328" y="485"/>
      <point x="263" y="485" type="curve" smooth="yes"/>
      <point x="218" y="485"/>
      <point x="182" y="471"/>
      <point x="141" y="444" type="curve" smooth="yes"/>
      <point x="126" y="435"/>
      <point x="105" y="439"/>
      <point x="95" y="454" type="curve" smooth="yes"/>
      <point x="86" y="469"/>
      <point x="90" y="490"/>
      <point x="105" y="500" type="curve" smooth="yes"/>
      <point x="158" y="535"/>
      <point x="204" y="551"/>
      <point x="263" y="551" type="curve" smooth="yes"/>
      <point x="382" y="551"/>
      <point x="433" y="477"/>
      <point x="433" y="404" type="curve" smooth="yes"/>
      <point x="433" y="336"/>
      <point x="403" y="289"/>
      <point x="284" y="172" type="curve" smooth="yes"/>
      <point x="124" y="13" type="line" smooth="yes"/>
      <point x="112" y="0"/>
      <point x="90" y="0"/>
      <point x="78" y="13" type="curve" smooth="yes"/>
      <point x="65" y="25"/>
      <point x="65" y="47"/>
    </contour>
    <contour>
      <point x="435" y="-6" type="curve" smooth="yes"/>
      <point x="91" y="-6" type="line" smooth="yes"/>
      <point x="73" y="-6"/>
      <point x="58" y="9"/>
      <point x="58" y="27" type="curve" smooth="yes"/>
      <point x="58" y="45"/>
      <point x="73" y="60"/>
      <point x="91" y="60" type="curve" smooth="yes"/>
      <point x="435" y="60" type="line" smooth="yes"/>
      <point x="453" y="60"/>
      <point x="468" y="45"/>
      <point x="468" y="27" type="curve" smooth="yes"/>
      <point x="468" y="9"/>
      <point x="453" y="-6"/>
    </contour>
  </outline>
</glyph>
<glyph name="less" format="1">
  <advance width="491"/>
  <unicode hex="003C"/>
  <outline>
    <contour>
      <point x="142" y="284" type="curve" smooth="yes"/>
      <point x="327" y="374" type="line" smooth="yes"/>
      <point x="343" y="381"/>
      <point x="363" y="374"/>
      <point x="371" y="358" type="curve" smooth="yes"/>
      <point x="378" y="342"/>
      <point x="371" y="322"/>
      <point x="355" y="314" type="curve" smooth="yes"/>
      <point x="170" y="224" type="line" smooth="yes"/>
      <point x="154" y="217"/>
      <point x="134" y="224"/>
      <point x="126" y="240" type="curve" smooth="yes"/>
      <point x="119" y="256"/>
      <point x="126" y="276"/>
    </contour>
    <contour>
      <point x="329" y="128" type="curve" smooth="yes"/>
      <point x="138" y="222" type="line" smooth="yes"/>
      <point x="122" y="230"/>
      <point x="116" y="251"/>
      <point x="123" y="267" type="curve" smooth="yes"/>
      <point x="131" y="283"/>
      <point x="152" y="289"/>
      <point x="168" y="282" type="curve" smooth="yes"/>
      <point x="359" y="188" type="line" smooth="yes"/>
      <point x="375" y="180"/>
      <point x="381" y="159"/>
      <point x="374" y="143" type="curve" smooth="yes"/>
      <point x="366" y="127"/>
      <point x="345" y="121"/>
    </contour>
  </outline>
</glyph>
<glyph name="equal" format="1">
  <advance width="491"/>
  <unicode hex="003D"/>
  <outline>
    <contour>
      <point x="114" y="366" type="curve" smooth="yes"/>
      <point x="377" y="366" type="line" smooth="yes"/>
      <point x="395" y="366"/>
      <point x="410" y="351"/>
      <point x="410" y="333" type="curve" smooth="yes"/>
      <point x="410" y="315"/>
      <point x="395" y="300"/>
      <point x="377" y="300" type="curve" smooth="yes"/>
      <point x="114" y="300" type="line" smooth="yes"/>
      <point x="96" y="300"/>
      <point x="81" y="315"/>
      <point x="81" y="333" type="curve" smooth="yes"/>
      <point x="81" y="351"/>
      <point x="96" y="366"/>
    </contour>
    <contour>
      <point x="114" y="206" type="curve" smooth="yes"/>
      <point x="377" y="206" type="line" smooth="yes"/>
      <point x="395" y="206"/>
      <point x="410" y="191"/>
      <point x="410" y="173" type="curve" smooth="yes"/>
      <point x="410" y="155"/>
      <point x="395" y="140"/>
      <point x="377" y="140" type="curve" smooth="yes"/>
      <point x="114" y="140" type="line" smooth="yes"/>
      <point x="96" y="140"/>
      <point x="81" y="155"/>
      <point x="81" y="173" type="curve" smooth="yes"/>
      <point x="81" y="191"/>
      <point x="96" y="206"/>
    </contour>
  </outline>
</glyph>
<glyph name="at" format="1">
  <advance width="669"/>
  <unicode hex="0040"/>
  <outline>
    <contour>
      <point x="257" y="411" type="curve" smooth="yes"/>
      <point x="273" y="415"/>
      <point x="304" y="423"/>
      <point x="330" y="423" type="curve" smooth="yes"/>
      <point x="414" y="423"/>
      <point x="454" y="372"/>
      <point x="454" y="296" type="curve" smooth="yes"/>
      <point x="454" y="234" type="line" smooth="yes"/>
      <point x="454" y="205"/>
      <point x="475" y="190"/>
      <point x="498" y="190" type="curve" smooth="yes"/>
      <point x="538" y="190"/>
      <point x="557" y="230"/>
      <point x="557" y="279" type="curve" smooth="yes"/>
      <point x="557" y="389"/>
      <point x="474" y="489"/>
      <point x="335" y="489" type="curve" smooth="yes"/>
      <point x="204" y="489"/>
      <point x="108" y="387"/>
      <point x="108" y="265" type="curve" smooth="yes"/>
      <point x="108" y="143"/>
      <point x="203" y="50"/>
      <point x="338" y="50" type="curve" smooth="yes"/>
      <point x="395" y="50"/>
      <point x="442" y="63"/>
      <point x="478" y="78" type="curve" smooth="yes"/>
      <point x="494" y="85"/>
      <point x="514" y="78"/>
      <point x="521" y="61" type="curve" smooth="yes"/>
      <point x="528" y="45"/>
      <point x="521" y="25"/>
      <point x="504" y="18" type="curve" smooth="yes"/>
      <point x="462" y="-1"/>
      <point x="405" y="-16"/>
      <point x="338" y="-16" type="curve" smooth="yes"/>
      <point x="161" y="-16"/>
      <point x="42" y="107"/>
      <point x="42" y="265" type="curve"/>
      <point x="42" y="423"/>
      <point x="166" y="555"/>
      <point x="335" y="555" type="curve" smooth="yes"/>
      <point x="518" y="555"/>
      <point x="623" y="421"/>
      <point x="623" y="279" type="curve" smooth="yes"/>
      <point x="623" y="174"/>
      <point x="568" y="124"/>
      <point x="498" y="124" type="curve" smooth="yes"/>
      <point x="439" y="124"/>
      <point x="388" y="161"/>
      <point x="388" y="234" type="curve" smooth="yes"/>
      <point x="388" y="296" type="line" smooth="yes"/>
      <point x="388" y="332"/>
      <point x="370" y="357"/>
      <point x="330" y="357" type="curve" smooth="yes"/>
      <point x="310" y="357"/>
      <point x="287" y="351"/>
      <point x="275" y="347" type="curve" smooth="yes"/>
      <point x="258" y="342"/>
      <point x="239" y="353"/>
      <point x="234" y="370" type="curve" smooth="yes"/>
      <point x="229" y="387"/>
      <point x="240" y="406"/>
    </contour>
    <contour>
      <point x="419" y="256" type="curve" smooth="yes"/>
      <point x="396" y="257"/>
      <point x="377" y="258"/>
      <point x="357" y="258" type="curve" smooth="yes"/>
      <point x="319" y="258"/>
      <point x="292" y="251"/>
      <point x="276" y="236" type="curve" smooth="yes"/>
      <point x="269" y="228"/>
      <point x="267" y="221"/>
      <point x="267" y="212" type="curve" smooth="yes"/>
      <point x="267" y="200"/>
      <point x="281" y="190"/>
      <point x="300" y="190" type="curve" smooth="yes"/>
      <point x="339" y="190"/>
      <point x="369" y="206"/>
      <point x="394" y="242" type="curve" smooth="yes"/>
      <point x="405" y="256"/>
      <point x="426" y="259"/>
      <point x="441" y="249" type="curve" smooth="yes"/>
      <point x="455" y="238"/>
      <point x="458" y="217"/>
      <point x="448" y="202" type="curve" smooth="yes"/>
      <point x="407" y="148"/>
      <point x="361" y="124"/>
      <point x="300" y="124" type="curve" smooth="yes"/>
      <point x="223" y="124"/>
      <point x="201" y="175"/>
      <point x="201" y="212" type="curve" smooth="yes"/>
      <point x="201" y="238"/>
      <point x="207" y="260"/>
      <point x="230" y="282" type="curve" smooth="yes"/>
      <point x="254" y="307"/>
      <point x="295" y="324"/>
      <point x="357" y="324" type="curve" smooth="yes"/>
      <point x="377" y="324"/>
      <point x="398" y="323"/>
      <point x="421" y="322" type="curve" smooth="yes"/>
      <point x="439" y="321"/>
      <point x="454" y="305"/>
      <point x="453" y="288" type="curve" smooth="yes"/>
      <point x="452" y="270"/>
      <point x="436" y="255"/>
    </contour>
  </outline>
</glyph>
<glyph name="C" format="1">
  <advance width="563"/>
  <unicode hex="0043"/>
  <outline>
    <contour>
      <point x="454" y="463" type="curve" smooth="yes"/>
      <point x="425" y="479"/>
      <point x="381" y="488"/>
      <point x="334" y="488" type="curve" smooth="yes"/>
      <point x="218" y="488"/>
      <point x="119" y="399"/>
      <point x="119" y="266" type="curve" smooth="yes"/>
      <point x="119" y="144"/>
      <point x="200" y="51"/>
      <point x="340" y="51" type="curve" smooth="yes"/>
      <point x="386" y="51"/>
      <point x="427" y="60"/>
      <point x="460" y="77" type="curve" smooth="yes"/>
      <point x="476" y="85"/>
      <point x="496" y="79"/>
      <point x="504" y="63" type="curve" smooth="yes"/>
      <point x="512" y="47"/>
      <point x="506" y="27"/>
      <point x="490" y="19" type="curve" smooth="yes"/>
      <point x="449" y="-2"/>
      <point x="398" y="-15"/>
      <point x="340" y="-15" type="curve" smooth="yes"/>
      <point x="158" y="-15"/>
      <point x="53" y="108"/>
      <point x="53" y="266" type="curve"/>
      <point x="53" y="439"/>
      <point x="184" y="554"/>
      <point x="334" y="554" type="curve" smooth="yes"/>
      <point x="393" y="554"/>
      <point x="449" y="541"/>
      <point x="486" y="521" type="curve" smooth="yes"/>
      <point x="501" y="512"/>
      <point x="508" y="492"/>
      <point x="499" y="476" type="curve" smooth="yes"/>
      <point x="490" y="461"/>
      <point x="470" y="454"/>
    </contour>
  </outline>
</glyph>
<glyph name="P" format="1">
  <advance width="520"/>
  <unicode hex="0050"/>
  <outline>
    <contour>
      <point x="154" y="236" type="curve" smooth="yes"/>
      <point x="271" y="236" type="line" smooth="yes"/>
      <point x="360" y="236"/>
      <point x="409" y="289"/>
      <point x="409" y="358" type="curve" smooth="yes"/>
      <point x="409" y="431"/>
      <point x="350" y="479"/>
      <point x="271" y="479" type="curve" smooth="yes"/>
      <point x="128" y="479" type="line"/>
      <point x="161" y="512" type="line"/>
      <point x="161" y="27" type="line" smooth="yes"/>
      <point x="161" y="9"/>
      <point x="146" y="-6"/>
      <point x="128" y="-6" type="curve" smooth="yes"/>
      <point x="110" y="-6"/>
      <point x="95" y="9"/>
      <point x="95" y="27" type="curve" smooth="yes"/>
      <point x="95" y="512" type="line" smooth="yes"/>
      <point x="95" y="530"/>
      <point x="110" y="545"/>
      <point x="128" y="545" type="curve" smooth="yes"/>
      <point x="271" y="545" type="line" smooth="yes"/>
      <point x="394" y="545"/>
      <point x="475" y="465"/>
      <point x="475" y="358" type="curve" smooth="yes"/>
      <point x="475" y="257"/>
      <point x="408" y="170"/>
      <point x="271" y="170" type="curve" smooth="yes"/>
      <point x="154" y="170" type="line" smooth="yes"/>
      <point x="136" y="170"/>
      <point x="121" y="185"/>
      <point x="121" y="203" type="curve" smooth="yes"/>
      <point x="121" y="221"/>
      <point x="136" y="236"/>
    </contour>
  </outline>
</glyph>
<glyph name="T" format="1">
  <advance width="558"/>
  <unicode hex="0054"/>
  <outline>
    <contour>
      <point x="310" y="512" type="curve" smooth="yes"/>
      <point x="310" y="27" type="line" smooth="yes"/>
      <point x="310" y="9"/>
      <point x="295" y="-6"/>
      <point x="277" y="-6" type="curve" smooth="yes"/>
      <point x="259" y="-6"/>
      <point x="244" y="9"/>
      <point x="244" y="27" type="curve" smooth="yes"/>
      <point x="244" y="512" type="line" smooth="yes"/>
      <point x="244" y="530"/>
      <point x="259" y="545"/>
      <point x="277" y="545" type="curve" smooth="yes"/>
      <point x="295" y="545"/>
      <point x="310" y="530"/>
    </contour>
    <contour>
      <point x="65" y="545" type="curve" smooth="yes"/>
      <point x="493" y="545" type="line" smooth="yes"/>
      <point x="511" y="545"/>
      <point x="526" y="530"/>
      <point x="526" y="512" type="curve" smooth="yes"/>
      <point x="526" y="494"/>
      <point x="511" y="479"/>
      <point x="493" y="479" type="curve" smooth="yes"/>
      <point x="65" y="479" type="line" smooth="yes"/>
      <point x="47" y="479"/>
      <point x="32" y="494"/>
      <point x="32" y="512" type="curve" smooth="yes"/>
      <point x="32" y="530"/>
      <point x="47" y="545"/>
    </contour>
  </outline>
</glyph>
<glyph name="f" format="1">
  <advance width="339"/>
  <unicode hex="0066"/>
  <outline>
    <contour>
      <point x="279" y="531" type="curve" smooth="yes"/>
      <point x="203" y="527"/>
      <point x="174" y="496"/>
      <point x="174" y="442" type="curve" smooth="yes"/>
      <point x="174" y="27" type="line" smooth="yes"/>
      <point x="174" y="9"/>
      <point x="159" y="-6"/>
      <point x="141" y="-6" type="curve" smooth="yes"/>
      <point x="123" y="-6"/>
      <point x="108" y="9"/>
      <point x="108" y="27" type="curve" smooth="yes"/>
      <point x="108" y="442" type="line" smooth="yes"/>
      <point x="108" y="528"/>
      <point x="143" y="589"/>
      <point x="275" y="597" type="curve" smooth="yes"/>
      <point x="293" y="598"/>
      <point x="309" y="584"/>
      <point x="310" y="566" type="curve" smooth="yes"/>
      <point x="311" y="548"/>
      <point x="297" y="532"/>
    </contour>
    <contour>
      <point x="53" y="402" type="curve" smooth="yes"/>
      <point x="279" y="402" type="line" smooth="yes"/>
      <point x="297" y="402"/>
      <point x="312" y="387"/>
      <point x="312" y="369" type="curve" smooth="yes"/>
      <point x="312" y="351"/>
      <point x="297" y="336"/>
      <point x="279" y="336" type="curve" smooth="yes"/>
      <point x="53" y="336" type="line" smooth="yes"/>
      <point x="35" y="336"/>
      <point x="20" y="351"/>
      <point x="20" y="369" type="curve" smooth="yes"/>
      <point x="20" y="387"/>
      <point x="35" y="402"/>
    </contour>
  </outline>
</glyph>
<glyph name="n" format="1">
  <advance width="507"/>
  <unicode hex="006E"/>
  <outline>
    <contour>
      <point x="82" y="27" type="curve" smooth="yes"/>
      <point x="82" y="369" type="line" smooth="yes"/>
      <point x="82" y="387"/>
      <point x="97" y="402"/>
      <point x="115" y="402" type="curve" smooth="yes"/>
      <point x="133" y="402"/>
      <point x="148" y="387"/>
      <point x="148" y="369" type="curve" smooth="yes"/>
      <point x="148" y="27" type="line" smooth="yes"/>
      <point x="148" y="9"/>
      <point x="133" y="-6"/>
      <point x="115" y="-6" type="curve" smooth="yes"/>
      <point x="97" y="-6"/>
      <point x="82" y="9"/>
    </contour>
    <contour>
      <point x="369" y="27" type="curve" smooth="yes"/>
      <point x="369" y="227" type="line" smooth="yes"/>
      <point x="369" y="301"/>
      <point x="339" y="336"/>
      <point x="290" y="336" type="curve" smooth="yes"/>
      <point x="235" y="336"/>
      <point x="184" y="300"/>
      <point x="142" y="259" type="curve" smooth="yes"/>
      <point x="130" y="246"/>
      <point x="108" y="246"/>
      <point x="96" y="259" type="curve" smooth="yes"/>
      <point x="83" y="271"/>
      <point x="83" y="293"/>
      <point x="96" y="305" type="curve" smooth="yes"/>
      <point x="150" y="360"/>
      <point x="219" y="402"/>
      <point x="290" y="402" type="curve" smooth="yes"/>
      <point x="369" y="402"/>
      <point x="435" y="363"/>
      <point x="435" y="227" type="curve" smooth="yes"/>
      <point x="435" y="27" type="line" smooth="yes"/>
      <point x="435" y="9"/>
      <point x="420" y="-6"/>
      <point x="402" y="-6" type="curve" smooth="yes"/>
      <point x="384" y="-6"/>
      <point x="369" y="9"/>
    </contour>
  </outline>
</glyph>
<glyph name="braceleft" format="1">
  <advance width="325"/>
  <unicode hex="007B"/>
  <outline>
    <contour>
      <point x="278" y="574" type="curve" smooth="yes"/>
      <point x="258" y="574" type="line" smooth="yes"/>
      <point x="190" y="574"/>
      <point x="133" y="544"/>
      <point x="133" y="499" type="curve" smooth="yes"/>
      <point x="133" y="434"/>
      <point x="200" y="399"/>
      <point x="200" y="341" type="curve" smooth="yes"/>
      <point x="200" y="294"/>
      <point x="169" y="252"/>
      <point x="70" y="237" type="curve"/>
      <point x="98" y="270" type="line"/>
      <point x="98" y="264" type="line"/>
      <point x="70" y="297" type="line"/>
      <point x="169" y="282"/>
      <point x="200" y="240"/>
      <point x="200" y="193" type="curve" smooth="yes"/>
      <point x="200" y="135"/>
      <point x="133" y="100"/>
      <point x="133" y="35" type="curve" smooth="yes"/>
      <point x="133" y="-10"/>
      <point x="190" y="-40"/>
      <point x="258" y="-40" type="curve" smooth="yes"/>
      <point x="278" y="-40" type="line" smooth="yes"/>
      <point x="296" y="-40"/>
      <point x="311" y="-55"/>
      <point x="311" y="-73" type="curve" smooth="yes"/>
      <point x="311" y="-91"/>
      <point x="296" y="-106"/>
      <point x="278" y="-106" type="curve" smooth="yes"/>
      <point x="258" y="-106" type="line" smooth="yes"/>
      <point x="130" y="-106"/>
      <point x="67" y="-34"/>
      <point x="67" y="35" type="curve" smooth="yes"/>
      <point x="67" y="100"/>
      <point x="134" y="135"/>
      <point x="134" y="193" type="curve" smooth="yes"/>
      <point x="134" y="218"/>
      <point x="97" y="226"/>
      <point x="60" y="231" type="curve" smooth="yes"/>
      <point x="45" y="234"/>
      <point x="32" y="248"/>
      <point x="32" y="264" type="curve"/>
      <point x="32" y="270" type="line"/>
      <point x="32" y="286"/>
      <point x="45" y="300"/>
      <point x="60" y="303" type="curve" smooth="yes"/>
      <point x="97" y="308"/>
      <point x="134" y="316"/>
      <point x="134" y="341" type="curve" smooth="yes"/>
      <point x="134" y="399"/>
      <point x="67" y="434"/>
      <point x="67" y="499" type="curve" smooth="yes"/>
      <point x="67" y="568"/>
      <point x="130" y="640"/>
      <point x="258" y="640" type="curve" smooth="yes"/>
      <point x="278" y="640" type="line" smooth="yes"/>
      <point x="296" y="640"/>
      <point x="311" y="625"/>
      <point x="311" y="607" type="curve" smooth="yes"/>
      <point x="311" y="589"/>
      <point x="296" y="574"/>
    </contour>
  </outline>
</glyph>
<glyph name="asciitilde" format="1">
  <advance width="491"/>
  <unicode hex="007E"/>
  <outline>
    <contour>
      <point x="69" y="237" type="curve" smooth="yes"/>
      <point x="105" y="300"/>
      <point x="138" y="323"/>
      <point x="178" y="323" type="curve" smooth="yes"/>
      <point x="214" y="323"/>
      <point x="238" y="305"/>
      <point x="266" y="276" type="curve" smooth="yes"/>
      <point x="281" y="261"/>
      <point x="294" y="249"/>
      <point x="311" y="249" type="curve" smooth="yes"/>
      <point x="337" y="249"/>
      <point x="348" y="275"/>
      <point x="368" y="309" type="curve" smooth="yes"/>
      <point x="377" y="325"/>
      <point x="398" y="330"/>
      <point x="413" y="322" type="curve" smooth="yes"/>
      <point x="429" y="313"/>
      <point x="434" y="292"/>
      <point x="426" y="277" type="curve" smooth="yes"/>
      <point x="386" y="207"/>
      <point x="355" y="183"/>
      <point x="311" y="183" type="curve" smooth="yes"/>
      <point x="278" y="183"/>
      <point x="251" y="199"/>
      <point x="220" y="230" type="curve" smooth="yes"/>
      <point x="206" y="243"/>
      <point x="196" y="257"/>
      <point x="178" y="257" type="curve" smooth="yes"/>
      <point x="156" y="257"/>
      <point x="143" y="234"/>
      <point x="127" y="205" type="curve" smooth="yes"/>
      <point x="118" y="189"/>
      <point x="97" y="184"/>
      <point x="82" y="192" type="curve" smooth="yes"/>
      <point x="66" y="201"/>
      <point x="61" y="222"/>
    </contour>
    <component base="minus"/>
    <component base="minus"/>
  </outline>
</glyph>
<glyph name="sterling" format="1">
  <advance width="466"/>
  <unicode hex="00A3"/>
  <outline>
    <contour>
      <point x="49" y="60" type="curve" smooth="yes"/>
      <point x="126" y="130" type="line" smooth="yes"/>
      <point x="147" y="149"/>
      <point x="165" y="172"/>
      <point x="165" y="194" type="curve" smooth="yes"/>
      <point x="165" y="214"/>
      <point x="152" y="238"/>
      <point x="134" y="260" type="curve" smooth="yes"/>
      <point x="89" y="312"/>
      <point x="64" y="353"/>
      <point x="64" y="408" type="curve" smooth="yes"/>
      <point x="64" y="480"/>
      <point x="117" y="554"/>
      <point x="219" y="554" type="curve" smooth="yes"/>
      <point x="272" y="554"/>
      <point x="320" y="538"/>
      <point x="360" y="513" type="curve" smooth="yes"/>
      <point x="375" y="503"/>
      <point x="379" y="483"/>
      <point x="370" y="467" type="curve" smooth="yes"/>
      <point x="360" y="452"/>
      <point x="340" y="448"/>
      <point x="324" y="457" type="curve" smooth="yes"/>
      <point x="294" y="476"/>
      <point x="258" y="488"/>
      <point x="219" y="488" type="curve" smooth="yes"/>
      <point x="163" y="488"/>
      <point x="130" y="450"/>
      <point x="130" y="408" type="curve" smooth="yes"/>
      <point x="130" y="367"/>
      <point x="153" y="340"/>
      <point x="184" y="302" type="curve" smooth="yes"/>
      <point x="214" y="268"/>
      <point x="231" y="226"/>
      <point x="231" y="194" type="curve" smooth="yes"/>
      <point x="231" y="158"/>
      <point x="207" y="115"/>
      <point x="170" y="82" type="curve" smooth="yes"/>
      <point x="93" y="12" type="line" smooth="yes"/>
      <point x="80" y="0"/>
      <point x="59" y="1"/>
      <point x="47" y="14" type="curve" smooth="yes"/>
      <point x="35" y="27"/>
      <point x="36" y="48"/>
    </contour>
    <contour>
      <point x="375" y="-6" type="curve" smooth="yes"/>
      <point x="61" y="-6" type="line" smooth="yes"/>
      <point x="43" y="-6"/>
      <point x="28" y="9"/>
      <point x="28" y="27" type="curve" smooth="yes"/>
      <point x="28" y="45"/>
      <point x="43" y="60"/>
      <point x="61" y="60" type="curve" smooth="yes"/>
      <point x="375" y="60" type="line" smooth="yes"/>
      <point x="393" y="60"/>
      <point x="408" y="45"/>
      <point x="408" y="27" type="curve" smooth="yes"/>
      <point x="408" y="9"/>
      <point x="393" y="-6"/>
    </contour>
    <contour>
      <point x="67" y="285" type="curve" smooth="yes"/>
      <point x="366" y="285" type="line" smooth="yes"/>
      <point x="384" y="285"/>
      <point x="399" y="270"/>
      <point x="399" y="252" type="curve" smooth="yes"/>
      <point x="399" y="234"/>
      <point x="384" y="219"/>
      <point x="366" y="219" type="curve" smooth="yes"/>
      <point x="67" y="219" type="line" smooth="yes"/>
      <point x="49" y="219"/>
      <point x="34" y="234"/>
      <point x="34" y="252" type="curve" smooth="yes"/>
      <point x="34" y="270"/>
      <point x="49" y="285"/>
    </contour>
  </outline>
</glyph>
<glyph name="yen" format="1">
  <advance width="570"/>
  <unicode hex="00A5"/>
  <outline>
    <contour>
      <point x="326" y="233" type="curve" smooth="yes"/>
      <point x="326" y="27" type="line" smooth="yes"/>
      <point x="326" y="9"/>
      <point x="311" y="-6"/>
      <point x="293" y="-6" type="curve" smooth="yes"/>
      <point x="275" y="-6"/>
      <point x="260" y="9"/>
      <point x="260" y="27" type="curve" smooth="yes"/>
      <point x="260" y="233" type="line" smooth="yes"/>
      <point x="260" y="251"/>
      <point x="275" y="266"/>
      <point x="293" y="266" type="curve" smooth="yes"/>
      <point x="311" y="266"/>
      <point x="326" y="251"/>
    </contour>
    <contour>
      <point x="125" y="531" type="curve" smooth="yes"/>
      <point x="174" y="461"/>
      <point x="277" y="321"/>
      <point x="317" y="264" type="curve" smooth="yes"/>
      <point x="327" y="249"/>
      <point x="324" y="228"/>
      <point x="309" y="218" type="curve" smooth="yes"/>
      <point x="294" y="208"/>
      <point x="273" y="211"/>
      <point x="263" y="226" type="curve" smooth="yes"/>
      <point x="223" y="283"/>
      <point x="120" y="423"/>
      <point x="71" y="493" type="curve" smooth="yes"/>
      <point x="61" y="508"/>
      <point x="64" y="529"/>
      <point x="79" y="539" type="curve" smooth="yes"/>
      <point x="94" y="549"/>
      <point x="115" y="546"/>
    </contour>
    <contour>
      <point x="266" y="258" type="curve" smooth="yes"/>
      <point x="312" y="324"/>
      <point x="408" y="462"/>
      <point x="457" y="531" type="curve" smooth="yes"/>
      <point x="467" y="546"/>
      <point x="489" y="549"/>
      <point x="503" y="539" type="curve" smooth="yes"/>
      <point x="518" y="529"/>
      <point x="521" y="507"/>
      <point x="511" y="493" type="curve" smooth="yes"/>
      <point x="462" y="424"/>
      <point x="366" y="286"/>
      <point x="320" y="220" type="curve" smooth="yes"/>
      <point x="310" y="206"/>
      <point x="289" y="202"/>
      <point x="274" y="212" type="curve" smooth="yes"/>
      <point x="260" y="222"/>
      <point x="256" y="243"/>
    </contour>
    <contour>
      <point x="130" y="274" type="curve" smooth="yes"/>
      <point x="458" y="274" type="line" smooth="yes"/>
      <point x="476" y="274"/>
      <point x="491" y="259"/>
      <point x="491" y="241" type="curve" smooth="yes"/>
      <point x="491" y="223"/>
      <point x="476" y="208"/>
      <point x="458" y="208" type="curve" smooth="yes"/>
      <point x="130" y="208" type="line" smooth="yes"/>
      <point x="112" y="208"/>
      <point x="97" y="223"/>
      <point x="97" y="241" type="curve" smooth="yes"/>
      <point x="97" y="259"/>
      <point x="112" y="274"/>
    </contour>
    <contour>
      <point x="130" y="162" type="curve" smooth="yes"/>
      <point x="458" y="162" type="line" smooth="yes"/>
      <point x="476" y="162"/>
      <point x="491" y="147"/>
      <point x="491" y="129" type="curve" smooth="yes"/>
      <point x="491" y="111"/>
      <point x="476" y="96"/>
      <point x="458" y="96" type="curve" smooth="yes"/>
      <point x="130" y="96" type="line" smooth="yes"/>
      <point x="112" y="96"/>
      <point x="97" y="111"/>
      <point x="97" y="129" type="curve" smooth="yes"/>
      <point x="97" y="147"/>
      <point x="112" y="162"/>
    </contour>
  </outline>
</glyph>
<glyph name="ordfeminine" format="1">
  <advance width="379"/>
  <unicode hex="00AA"/>
  <outline>
    <contour>
      <point x="103" y="285" type="curve" smooth="yes"/>
      <point x="284" y="285" type="line" smooth="yes"/>
      <point x="302" y="285"/>
      <point x="317" y="270"/>
      <point x="317" y="252" type="curve" smooth="yes"/>
      <point x="317" y="234"/>
      <point x="302" y="219"/>
      <point x="284" y="219" type="curve" smooth="yes"/>
      <point x="103" y="219" type="line" smooth="yes"/>
      <point x="85" y="219"/>
      <point x="70" y="234"/>
      <point x="70" y="252" type="curve" smooth="yes"/>
      <point x="70" y="270"/>
      <point x="85" y="285"/>
    </contour>
    <contour>
      <point x="128" y="536" type="curve" smooth="yes"/>
      <point x="140" y="539"/>
      <point x="162" y="544"/>
      <point x="181" y="544" type="curve" smooth="yes"/>
      <point x="249" y="544"/>
      <point x="278" y="505"/>
      <point x="278" y="450" type="curve" smooth="yes"/>
      <point x="278" y="410" type="line" smooth="yes"/>
      <point x="278" y="397"/>
      <point x="280" y="389"/>
      <point x="286" y="382" type="curve" smooth="yes"/>
      <point x="298" y="369"/>
      <point x="297" y="348"/>
      <point x="284" y="336" type="curve" smooth="yes"/>
      <point x="271" y="324"/>
      <point x="250" y="325"/>
      <point x="238" y="338" type="curve" smooth="yes"/>
      <point x="222" y="355"/>
      <point x="212" y="375"/>
      <point x="212" y="410" type="curve" smooth="yes"/>
      <point x="212" y="450" type="line" smooth="yes"/>
      <point x="212" y="467"/>
      <point x="201" y="478"/>
      <point x="181" y="478" type="curve" smooth="yes"/>
      <point x="168" y="478"/>
      <point x="154" y="475"/>
      <point x="146" y="472" type="curve" smooth="yes"/>
      <point x="129" y="467"/>
      <point x="111" y="477"/>
      <point x="105" y="495" type="curve" smooth="yes"/>
      <point x="100" y="512"/>
      <point x="110" y="530"/>
    </contour>
    <contour>
      <point x="242" y="412" type="curve" smooth="yes"/>
      <point x="227" y="413"/>
      <point x="213" y="414"/>
      <point x="200" y="414" type="curve" smooth="yes"/>
      <point x="176" y="414"/>
      <point x="159" y="410"/>
      <point x="149" y="401" type="curve" smooth="yes"/>
      <point x="147" y="400"/>
      <point x="147" y="398"/>
      <point x="147" y="396" type="curve" smooth="yes"/>
      <point x="147" y="391"/>
      <point x="157" y="393"/>
      <point x="160" y="393" type="curve" smooth="yes"/>
      <point x="185" y="393"/>
      <point x="203" y="402"/>
      <point x="219" y="423" type="curve" smooth="yes"/>
      <point x="230" y="436"/>
      <point x="252" y="439"/>
      <point x="266" y="428" type="curve" smooth="yes"/>
      <point x="279" y="417"/>
      <point x="282" y="395"/>
      <point x="271" y="381" type="curve" smooth="yes"/>
      <point x="241" y="344"/>
      <point x="207" y="327"/>
      <point x="160" y="327" type="curve" smooth="yes"/>
      <point x="97" y="327"/>
      <point x="81" y="369"/>
      <point x="81" y="396" type="curve" smooth="yes"/>
      <point x="81" y="416"/>
      <point x="87" y="434"/>
      <point x="105" y="451" type="curve" smooth="yes"/>
      <point x="125" y="468"/>
      <point x="154" y="480"/>
      <point x="200" y="480" type="curve" smooth="yes"/>
      <point x="215" y="480"/>
      <point x="229" y="479"/>
      <point x="246" y="478" type="curve" smooth="yes"/>
      <point x="264" y="477"/>
      <point x="278" y="461"/>
      <point x="277" y="443" type="curve" smooth="yes"/>
      <point x="276" y="425"/>
      <point x="260" y="411"/>
    </contour>
  </outline>
</glyph>
<glyph name="registered" format="1">
  <advance width="511"/>
  <unicode hex="00AE"/>
  <outline>
    <contour>
      <point x="252" y="570" type="curve" smooth="yes"/>
      <point x="175" y="570"/>
      <point x="123" y="516"/>
      <point x="123" y="440" type="curve" smooth="yes"/>
      <point x="123" y="367"/>
      <point x="176" y="305"/>
      <point x="257" y="305" type="curve" smooth="yes"/>
      <point x="334" y="305"/>
      <point x="391" y="362"/>
      <point x="391" y="438" type="curve" smooth="yes"/>
      <point x="391" y="515"/>
      <point x="334" y="570"/>
    </contour>
    <contour>
      <point x="208" y="429" type="curve" smooth="yes"/>
      <point x="255" y="429" type="line" smooth="yes"/>
      <point x="274" y="429"/>
      <point x="286" y="441"/>
      <point x="286" y="456" type="curve" smooth="yes"/>
      <point x="286" y="473"/>
      <point x="271" y="479"/>
      <point x="255" y="479" type="curve" smooth="yes"/>
      <point x="198" y="479" type="line"/>
      <point x="231" y="512" type="line"/>
      <point x="231" y="335" type="line" smooth="yes"/>
      <point x="231" y="317"/>
      <point x="216" y="302"/>
      <point x="198" y="302" type="curve" smooth="yes"/>
      <point x="180" y="302"/>
      <point x="165" y="317"/>
      <point x="165" y="335" type="curve" smooth="yes"/>
      <point x="165" y="512" type="line" smooth="yes"/>
      <point x="165" y="530"/>
      <point x="180" y="545"/>
      <point x="198" y="545" type="curve" smooth="yes"/>
      <point x="255" y="545" type="line" smooth="yes"/>
      <point x="315" y="545"/>
      <point x="352" y="509"/>
      <point x="352" y="456" type="curve" smooth="yes"/>
      <point x="352" y="408"/>
      <point x="322" y="363"/>
      <point x="255" y="363" type="curve" smooth="yes"/>
      <point x="208" y="363" type="line" smooth="yes"/>
      <point x="190" y="363"/>
      <point x="175" y="378"/>
      <point x="175" y="396" type="curve" smooth="yes"/>
      <point x="175" y="414"/>
      <point x="190" y="429"/>
    </contour>
    <contour>
      <point x="307" y="412" type="curve" smooth="yes"/>
      <point x="355" y="357" type="line" smooth="yes"/>
      <point x="367" y="343"/>
      <point x="365" y="322"/>
      <point x="352" y="310" type="curve" smooth="yes"/>
      <point x="338" y="298"/>
      <point x="317" y="300"/>
      <point x="305" y="313" type="curve" smooth="yes"/>
      <point x="257" y="368" type="line" smooth="yes"/>
      <point x="245" y="382"/>
      <point x="247" y="403"/>
      <point x="260" y="415" type="curve" smooth="yes"/>
      <point x="274" y="427"/>
      <point x="295" y="425"/>
    </contour>
    <contour>
      <point x="252" y="636" type="curve" smooth="yes"/>
      <point x="374" y="636"/>
      <point x="457" y="551"/>
      <point x="457" y="438" type="curve" smooth="yes"/>
      <point x="457" y="324"/>
      <point x="372" y="239"/>
      <point x="257" y="239" type="curve" smooth="yes"/>
      <point x="136" y="239"/>
      <point x="57" y="331"/>
      <point x="57" y="440" type="curve" smooth="yes"/>
      <point x="57" y="556"/>
      <point x="137" y="636"/>
    </contour>
  </outline>
</glyph>
<glyph name="plusminus" format="1">
  <advance width="491"/>
  <unicode hex="00B1"/>
  <outline>
    <contour>
      <point x="114" y="328" type="curve" smooth="yes"/>
      <point x="377" y="328" type="line" smooth="yes"/>
      <point x="395" y="328"/>
      <point x="410" y="313"/>
      <point x="410" y="295" type="curve" smooth="yes"/>
      <point x="410" y="277"/>
      <point x="395" y="262"/>
      <point x="377" y="262" type="curve" smooth="yes"/>
      <point x="114" y="262" type="line" smooth="yes"/>
      <point x="96" y="262"/>
      <point x="81" y="277"/>
      <point x="81" y="295" type="curve" smooth="yes"/>
      <point x="81" y="313"/>
      <point x="96" y="328"/>
    </contour>
    <contour>
      <point x="212" y="209" type="curve" smooth="yes"/>
      <point x="212" y="380" type="line" smooth="yes"/>
      <point x="212" y="398"/>
      <point x="227" y="413"/>
      <point x="245" y="413" type="curve" smooth="yes"/>
      <point x="263" y="413"/>
      <point x="278" y="398"/>
      <point x="278" y="380" type="curve" smooth="yes"/>
      <point x="278" y="209" type="line" smooth="yes"/>
      <point x="278" y="191"/>
      <point x="263" y="176"/>
      <point x="245" y="176" type="curve" smooth="yes"/>
      <point x="227" y="176"/>
      <point x="212" y="191"/>
    </contour>
    <contour>
      <point x="114" y="139" type="curve" smooth="yes"/>
      <point x="377" y="139" type="line" smooth="yes"/>
      <point x="395" y="139"/>
      <point x="410" y="124"/>
      <point x="410" y="106" type="curve" smooth="yes"/>
      <point x="410" y="88"/>
      <point x="395" y="73"/>
      <point x="377" y="73" type="curve" smooth="yes"/>
      <point x="114" y="73" type="line" smooth="yes"/>
      <point x="96" y="73"/>
      <point x="81" y="88"/>
      <point x="81" y="106" type="curve" smooth="yes"/>
      <point x="81" y="124"/>
      <point x="96" y="139"/>
    </contour>
  </outline>
</glyph>
<glyph name="ordmasculine" format="1">
  <advance width="369"/>
  <unicode hex="00BA"/>
  <outline>
    <contour>
      <point x="185" y="544" type="curve" smooth="yes"/>
      <point x="252" y="544"/>
      <point x="295" y="493"/>
      <point x="295" y="432" type="curve" smooth="yes"/>
      <point x="295" y="371"/>
      <point x="252" y="323"/>
      <point x="185" y="323" type="curve" smooth="yes"/>
      <point x="118" y="323"/>
      <point x="75" y="371"/>
      <point x="75" y="432" type="curve" smooth="yes"/>
      <point x="75" y="493"/>
      <point x="117" y="544"/>
    </contour>
    <contour>
      <point x="185" y="478" type="curve" smooth="yes"/>
      <point x="157" y="478"/>
      <point x="141" y="457"/>
      <point x="141" y="432" type="curve" smooth="yes"/>
      <point x="141" y="407"/>
      <point x="158" y="389"/>
      <point x="185" y="389" type="curve" smooth="yes"/>
      <point x="212" y="389"/>
      <point x="229" y="407"/>
      <point x="229" y="432" type="curve" smooth="yes"/>
      <point x="229" y="457"/>
      <point x="212" y="478"/>
    </contour>
    <contour>
      <point x="103" y="285" type="curve" smooth="yes"/>
      <point x="272" y="285" type="line" smooth="yes"/>
      <point x="290" y="285"/>
      <point x="305" y="270"/>
      <point x="305" y="252" type="curve" smooth="yes"/>
      <point x="305" y="234"/>
      <point x="290" y="219"/>
      <point x="272" y="219" type="curve" smooth="yes"/>
      <point x="103" y="219" type="line" smooth="yes"/>
      <point x="85" y="219"/>
      <point x="70" y="234"/>
      <point x="70" y="252" type="curve" smooth="yes"/>
      <point x="70" y="270"/>
      <point x="85" y="285"/>
    </contour>
  </outline>
</glyph>
<glyph name="onequarter" format="1">
  <advance width="724"/>
  <unicode hex="00BC"/>
  <outline>
    <contour>
      <point x="526" y="495" type="curve" smooth="yes"/>
      <point x="243" y="10" type="line" smooth="yes"/>
      <point x="234" y="-5"/>
      <point x="213" y="-10"/>
      <point x="197" y="-2" type="curve" smooth="yes"/>
      <point x="182" y="7"/>
      <point x="177" y="28"/>
      <point x="185" y="44" type="curve" smooth="yes"/>
      <point x="468" y="529" type="line" smooth="yes"/>
      <point x="477" y="544"/>
      <point x="498" y="549"/>
      <point x="514" y="541" type="curve" smooth="yes"/>
      <point x="529" y="532"/>
      <point x="534" y="511"/>
    </contour>
    <contour>
      <point x="593" y="288" type="curve" smooth="yes"/>
      <point x="593" y="28" type="line" smooth="yes"/>
      <point x="593" y="10"/>
      <point x="578" y="-5"/>
      <point x="560" y="-5" type="curve" smooth="yes"/>
      <point x="542" y="-5"/>
      <point x="527" y="10"/>
      <point x="527" y="28" type="curve" smooth="yes"/>
      <point x="527" y="288" type="line" smooth="yes"/>
      <point x="527" y="306"/>
      <point x="542" y="321"/>
      <point x="560" y="321" type="curve" smooth="yes"/>
      <point x="578" y="321"/>
      <point x="593" y="306"/>
    </contour>
    <contour>
      <point x="581" y="262" type="curve" smooth="yes"/>
      <point x="427" y="82" type="line" smooth="yes"/>
      <point x="415" y="68"/>
      <point x="394" y="66"/>
      <point x="381" y="78" type="curve" smooth="yes"/>
      <point x="367" y="90"/>
      <point x="365" y="111"/>
      <point x="377" y="124" type="curve" smooth="yes"/>
      <point x="531" y="304" type="line" smooth="yes"/>
      <point x="543" y="318"/>
      <point x="564" y="320"/>
      <point x="577" y="308" type="curve" smooth="yes"/>
      <point x="591" y="296"/>
      <point x="593" y="275"/>
    </contour>
    <contour>
      <point x="407" y="136" type="curve" smooth="yes"/>
      <point x="622" y="136" type="line" smooth="yes"/>
      <point x="640" y="136"/>
      <point x="655" y="121"/>
      <point x="655" y="103" type="curve" smooth="yes"/>
      <point x="655" y="85"/>
      <point x="640" y="70"/>
      <point x="622" y="70" type="curve" smooth="yes"/>
      <point x="407" y="70" type="line" smooth="yes"/>
      <point x="389" y="70"/>
      <point x="374" y="85"/>
      <point x="374" y="103" type="curve" smooth="yes"/>
      <point x="374" y="121"/>
      <point x="389" y="136"/>
    </contour>
    <contour>
      <point x="240" y="519" type="curve" smooth="yes"/>
      <point x="240" y="261" type="line" smooth="yes"/>
      <point x="240" y="243"/>
      <point x="225" y="228"/>
      <point x="207" y="228" type="curve" smooth="yes"/>
      <point x="189" y="228"/>
      <point x="174" y="243"/>
      <point x="174" y="261" type="curve" smooth="yes"/>
      <point x="174" y="519" type="line" smooth="yes"/>
      <point x="174" y="537"/>
      <point x="189" y="552"/>
      <point x="207" y="552" type="curve" smooth="yes"/>
      <point x="225" y="552"/>
      <point x="240" y="537"/>
    </contour>
    <contour>
      <point x="223" y="493" type="curve" smooth="yes"/>
      <point x="141" y="449" type="line" smooth="yes"/>
      <point x="125" y="440"/>
      <point x="104" y="447"/>
      <point x="96" y="462" type="curve" smooth="yes"/>
      <point x="87" y="478"/>
      <point x="94" y="499"/>
      <point x="109" y="507" type="curve" smooth="yes"/>
      <point x="191" y="551" type="line" smooth="yes"/>
      <point x="207" y="560"/>
      <point x="228" y="553"/>
      <point x="236" y="538" type="curve" smooth="yes"/>
      <point x="245" y="522"/>
      <point x="238" y="501"/>
    </contour>
  </outline>
</glyph>
<glyph name="AE" format="1">
  <advance width="745"/>
  <unicode hex="00C6"/>
  <outline>
    <contour>
      <point x="406" y="493" type="curve" smooth="yes"/>
      <point x="303" y="344"/>
      <point x="158" y="135"/>
      <point x="76" y="9" type="curve" smooth="yes"/>
      <point x="66" y="-6"/>
      <point x="45" y="-10"/>
      <point x="30" y="-1" type="curve" smooth="yes"/>
      <point x="15" y="9"/>
      <point x="11" y="30"/>
      <point x="20" y="45" type="curve" smooth="yes"/>
      <point x="102" y="171"/>
      <point x="249" y="382"/>
      <point x="352" y="531" type="curve" smooth="yes"/>
      <point x="362" y="545"/>
      <point x="383" y="549"/>
      <point x="398" y="539" type="curve" smooth="yes"/>
      <point x="412" y="529"/>
      <point x="416" y="508"/>
    </contour>
    <contour>
      <point x="148" y="205" type="curve" smooth="yes"/>
      <point x="377" y="205" type="line" smooth="yes"/>
      <point x="395" y="205"/>
      <point x="410" y="190"/>
      <point x="410" y="172" type="curve" smooth="yes"/>
      <point x="410" y="154"/>
      <point x="395" y="139"/>
      <point x="377" y="139" type="curve" smooth="yes"/>
      <point x="148" y="139" type="line" smooth="yes"/>
      <point x="130" y="139"/>
      <point x="115" y="154"/>
      <point x="115" y="172" type="curve" smooth="yes"/>
      <point x="115" y="190"/>
      <point x="130" y="205"/>
    </contour>
    <component base="E" xOffset="250"/>
    <component base="E" xOffset="250"/>
  </outline>
</glyph>
<glyph name="multiply" format="1">
  <advance width="491"/>
  <unicode hex="00D7"/>
  <outline>
    <contour>
      <point x="124" y="182" type="curve" smooth="yes"/>
      <point x="318" y="368" type="line" smooth="yes"/>
      <point x="331" y="380"/>
      <point x="352" y="380"/>
      <point x="365" y="367" type="curve" smooth="yes"/>
      <point x="377" y="354"/>
      <point x="377" y="333"/>
      <point x="364" y="320" type="curve" smooth="yes"/>
      <point x="170" y="134" type="line" smooth="yes"/>
      <point x="157" y="122"/>
      <point x="136" y="122"/>
      <point x="123" y="135" type="curve" smooth="yes"/>
      <point x="111" y="148"/>
      <point x="111" y="169"/>
    </contour>
    <contour>
      <point x="321" y="134" type="curve" smooth="yes"/>
      <point x="127" y="319" type="line" smooth="yes"/>
      <point x="114" y="331"/>
      <point x="114" y="353"/>
      <point x="126" y="366" type="curve" smooth="yes"/>
      <point x="138" y="379"/>
      <point x="160" y="379"/>
      <point x="173" y="367" type="curve" smooth="yes"/>
      <point x="367" y="182" type="line" smooth="yes"/>
      <point x="380" y="170"/>
      <point x="380" y="148"/>
      <point x="368" y="135" type="curve" smooth="yes"/>
      <point x="356" y="122"/>
      <point x="334" y="122"/>
    </contour>
  </outline>
</glyph>
<glyph name="Oslash" format="1">
  <advance width="640"/>
  <unicode hex="00D8"/>
  <outline>
    <contour>
      <point x="552" y="491" type="curve" smooth="yes"/>
      <point x="142" y="-13" type="line" smooth="yes"/>
      <point x="130" y="-27"/>
      <point x="109" y="-29"/>
      <point x="95" y="-18" type="curve" smooth="yes"/>
      <point x="81" y="-6"/>
      <point x="79" y="15"/>
      <point x="90" y="29" type="curve" smooth="yes"/>
      <point x="500" y="533" type="line" smooth="yes"/>
      <point x="512" y="547"/>
      <point x="533" y="549"/>
      <point x="547" y="538" type="curve" smooth="yes"/>
      <point x="561" y="526"/>
      <point x="563" y="505"/>
    </contour>
    <component base="O"/>
    <component base="O"/>
  </outline>
</glyph>
<glyph name="germandbls" format="1">
  <advance width="539"/>
  <unicode hex="00DF"/>
  <outline>
    <contour>
      <point x="53" y="402" type="curve" smooth="yes"/>
      <point x="138" y="402" type="line" smooth="yes"/>
      <point x="156" y="402"/>
      <point x="171" y="387"/>
      <point x="171" y="369" type="curve" smooth="yes"/>
      <point x="171" y="351"/>
      <point x="156" y="336"/>
      <point x="138" y="336" type="curve" smooth="yes"/>
      <point x="53" y="336" type="line" smooth="yes"/>
      <point x="35" y="336"/>
      <point x="20" y="351"/>
      <point x="20" y="369" type="curve" smooth="yes"/>
      <point x="20" y="387"/>
      <point x="35" y="402"/>
    </contour>
    <contour>
      <point x="253" y="323" type="curve" smooth="yes"/>
      <point x="312" y="374"/>
      <point x="345" y="409"/>
      <point x="346" y="453" type="curve" smooth="yes"/>
      <point x="347" y="491"/>
      <point x="318" y="531"/>
      <point x="258" y="531" type="curve" smooth="yes"/>
      <point x="201" y="531"/>
      <point x="174" y="493"/>
      <point x="174" y="442" type="curve" smooth="yes"/>
      <point x="174" y="27" type="line" smooth="yes"/>
      <point x="174" y="9"/>
      <point x="159" y="-6"/>
      <point x="141" y="-6" type="curve" smooth="yes"/>
      <point x="123" y="-6"/>
      <point x="108" y="9"/>
      <point x="108" y="27" type="curve" smooth="yes"/>
      <point x="108" y="442" type="line" smooth="yes"/>
      <point x="108" y="533"/>
      <point x="159" y="597"/>
      <point x="258" y="597" type="curve" smooth="yes"/>
      <point x="370" y="597"/>
      <point x="415" y="517"/>
      <point x="412" y="451" type="curve" smooth="yes"/>
      <point x="411" y="393"/>
      <point x="378" y="344"/>
      <point x="297" y="273" type="curve" smooth="yes"/>
      <point x="283" y="261"/>
      <point x="262" y="263"/>
      <point x="250" y="276" type="curve" smooth="yes"/>
      <point x="238" y="290"/>
      <point x="240" y="311"/>
    </contour>
    <contour>
      <point x="266" y="70" type="curve" smooth="yes"/>
      <point x="288" y="61"/>
      <point x="314" y="56"/>
      <point x="337" y="56" type="curve" smooth="yes"/>
      <point x="388" y="56"/>
      <point x="420" y="83"/>
      <point x="420" y="127" type="curve" smooth="yes"/>
      <point x="420" y="166"/>
      <point x="394" y="200"/>
      <point x="344" y="224" type="curve" smooth="yes"/>
      <point x="261" y="264" type="line" smooth="yes"/>
      <point x="245" y="272"/>
      <point x="238" y="292"/>
      <point x="245" y="308" type="curve" smooth="yes"/>
      <point x="253" y="324"/>
      <point x="273" y="331"/>
      <point x="289" y="324" type="curve" smooth="yes"/>
      <point x="372" y="284" type="line" smooth="yes"/>
      <point x="454" y="244"/>
      <point x="486" y="188"/>
      <point x="486" y="127" type="curve" smooth="yes"/>
      <point x="486" y="49"/>
      <point x="436" y="-10"/>
      <point x="337" y="-10" type="curve" smooth="yes"/>
      <point x="306" y="-10"/>
      <point x="270" y="-3"/>
      <point x="242" y="8" type="curve" smooth="yes"/>
      <point x="225" y="15"/>
      <point x="217" y="35"/>
      <point x="223" y="51" type="curve" smooth="yes"/>
      <point x="230" y="68"/>
      <point x="250" y="76"/>
    </contour>
  </outline>
</glyph>
<glyph name="ae" format="1">
  <advance width="743"/>
  <unicode hex="00E6"/>
  <outline>
    <contour>
      <point x="117" y="384" type="curve" smooth="yes"/>
      <point x="140" y="392"/>
      <point x="183" y="402"/>
      <point x="220" y="402" type="curve" smooth="yes"/>
      <point x="334" y="402"/>
      <point x="387" y="333"/>
      <point x="387" y="232" type="curve" smooth="yes"/>
      <point x="387" y="206" type="line" smooth="yes"/>
      <point x="387" y="188"/>
      <point x="372" y="173"/>
      <point x="354" y="173" type="curve" smooth="yes"/>
      <point x="336" y="173"/>
      <point x="321" y="188"/>
      <point x="321" y="206" type="curve" smooth="yes"/>
      <point x="321" y="232" type="line" smooth="yes"/>
      <point x="321" y="293"/>
      <point x="290" y="336"/>
      <point x="220" y="336" type="curve" smooth="yes"/>
      <point x="191" y="336"/>
      <point x="156" y="328"/>
      <point x="137" y="322" type="curve" smooth="yes"/>
      <point x="121" y="316"/>
      <point x="101" y="326"/>
      <point x="96" y="343" type="curve" smooth="yes"/>
      <point x="90" y="359"/>
      <point x="100" y="379"/>
    </contour>
    <contour>
      <point x="352" y="188" type="curve" smooth="yes"/>
      <point x="318" y="189"/>
      <point x="289" y="191"/>
      <point x="260" y="191" type="curve" smooth="yes"/>
      <point x="199" y="191"/>
      <point x="157" y="178"/>
      <point x="131" y="153" type="curve" smooth="yes"/>
      <point x="117" y="139"/>
      <point x="113" y="124"/>
      <point x="113" y="108" type="curve" smooth="yes"/>
      <point x="113" y="84"/>
      <point x="135" y="60"/>
      <point x="177" y="60" type="curve" smooth="yes"/>
      <point x="241" y="60"/>
      <point x="295" y="92"/>
      <point x="335" y="149" type="curve" smooth="yes"/>
      <point x="345" y="164"/>
      <point x="366" y="167"/>
      <point x="381" y="157" type="curve" smooth="yes"/>
      <point x="396" y="147"/>
      <point x="399" y="126"/>
      <point x="389" y="111" type="curve" smooth="yes"/>
      <point x="335" y="34"/>
      <point x="261" y="-6"/>
      <point x="177" y="-6" type="curve" smooth="yes"/>
      <point x="77" y="-6"/>
      <point x="47" y="60"/>
      <point x="47" y="108" type="curve"/>
      <point x="47" y="142"/>
      <point x="57" y="173"/>
      <point x="85" y="199" type="curve" smooth="yes"/>
      <point x="119" y="234"/>
      <point x="175" y="257"/>
      <point x="260" y="257" type="curve" smooth="yes"/>
      <point x="289" y="257"/>
      <point x="320" y="255"/>
      <point x="354" y="254" type="curve" smooth="yes"/>
      <point x="372" y="253"/>
      <point x="387" y="238"/>
      <point x="386" y="220" type="curve" smooth="yes"/>
      <point x="385" y="202"/>
      <point x="370" y="187"/>
    </contour>
    <component base="e" xOffset="275"/>
    <component base="e" xOffset="275"/>
  </outline>
</glyph>
<glyph name="divide" format="1">
  <advance width="491"/>
  <unicode hex="00F7"/>
  <outline>
    <contour>
      <point x="212" y="390" type="curve" smooth="yes"/>
      <point x="212" y="424" type="line" smooth="yes"/>
      <point x="212" y="442"/>
      <point x="227" y="457"/>
      <point x="245" y="457" type="curve" smooth="yes"/>
      <point x="263" y="457"/>
      <point x="278" y="442"/>
      <point x="278" y="424" type="curve" smooth="yes"/>
      <point x="278" y="390" type="line" smooth="yes"/>
      <point x="278" y="372"/>
      <point x="263" y="357"/>
      <point x="245" y="357" type="curve" smooth="yes"/>
      <point x="227" y="357"/>
      <point x="212" y="372"/>
    </contour>
    <contour>
      <point x="212" y="81" type="curve" smooth="yes"/>
      <point x="212" y="115" type="line" smooth="yes"/>
      <point x="212" y="133"/>
      <point x="227" y="148"/>
      <point x="245" y="148" type="curve" smooth="yes"/>
      <point x="263" y="148"/>
      <point x="278" y="133"/>
      <point x="278" y="115" type="curve" smooth="yes"/>
      <point x="278" y="81" type="line" smooth="yes"/>
      <point x="278" y="63"/>
      <point x="263" y="48"/>
      <point x="245" y="48" type="curve" smooth="yes"/>
      <point x="227" y="48"/>
      <point x="212" y="63"/>
    </contour>
    <contour>
      <point x="92" y="286" type="curve" smooth="yes"/>
      <point x="398" y="286" type="line" smooth="yes"/>
      <point x="416" y="286"/>
      <point x="431" y="271"/>
      <point x="431" y="253" type="curve" smooth="yes"/>
      <point x="431" y="235"/>
      <point x="416" y="220"/>
      <point x="398" y="220" type="curve" smooth="yes"/>
      <point x="92" y="220" type="line" smooth="yes"/>
      <point x="74" y="220"/>
      <point x="59" y="235"/>
      <point x="59" y="253" type="curve" smooth="yes"/>
      <point x="59" y="271"/>
      <point x="74" y="286"/>
    </contour>
  </outline>
</glyph>
<glyph name="jcircumflex" format="1">
  <advance width="220"/>
  <unicode hex="0135"/>
  <outline>
    <contour>
      <point x="-11" y="-100" type="curve" smooth="yes"/>
      <point x="47" y="-78"/>
      <point x="78" y="-35"/>
      <point x="78" y="46" type="curve" smooth="yes"/>
      <point x="78" y="369" type="line" smooth="yes"/>
      <point x="78" y="387"/>
      <point x="93" y="402"/>
      <point x="111" y="402" type="curve" smooth="yes"/>
      <point x="129" y="402"/>
      <point x="144" y="387"/>
      <point x="144" y="369" type="curve" smooth="yes"/>
      <point x="144" y="46" type="line" smooth="yes"/>
      <point x="144" y="-71"/>
      <point x="95" y="-130"/>
      <point x="13" y="-162" type="curve" smooth="yes"/>
      <point x="-4" y="-168"/>
      <point x="-23" y="-160"/>
      <point x="-30" y="-143" type="curve" smooth="yes"/>
      <point x="-36" y="-126"/>
      <point x="-28" y="-107"/>
    </contour>
    <component base="circumflexcmb" xOffset="103"/>
    <component base="circumflexcmb" xOffset="103"/>
  </outline>
</glyph>
<glyph name="Lslash" format="1">
  <advance width="479"/>
  <unicode hex="0141"/>
  <outline>
    <contour>
      <point x="289" y="305" type="curve" smooth="yes"/>
      <point x="74" y="179" type="line" smooth="yes"/>
      <point x="58" y="170"/>
      <point x="38" y="175"/>
      <point x="29" y="190" type="curve" smooth="yes"/>
      <point x="20" y="206"/>
      <point x="25" y="226"/>
      <point x="40" y="235" type="curve" smooth="yes"/>
      <point x="255" y="361" type="line" smooth="yes"/>
      <point x="271" y="370"/>
      <point x="291" y="365"/>
      <point x="300" y="350" type="curve" smooth="yes"/>
      <point x="309" y="334"/>
      <point x="304" y="314"/>
    </contour>
    <component base="L"/>
    <component base="L"/>
  </outline>
</glyph>
<glyph name="OE" format="1">
  <advance width="755"/>
  <unicode hex="0152"/>
  <outline>
    <contour>
      <point x="405" y="479" type="curve" smooth="yes"/>
      <point x="382" y="479"/>
      <point x="346" y="479"/>
      <point x="322" y="479" type="curve" smooth="yes"/>
      <point x="200" y="479"/>
      <point x="119" y="392"/>
      <point x="119" y="267" type="curve" smooth="yes"/>
      <point x="119" y="152"/>
      <point x="202" y="60"/>
      <point x="322" y="60" type="curve" smooth="yes"/>
      <point x="365" y="60"/>
      <point x="402" y="60"/>
      <point x="434" y="60" type="curve" smooth="yes"/>
      <point x="452" y="60"/>
      <point x="467" y="45"/>
      <point x="467" y="27" type="curve" smooth="yes"/>
      <point x="467" y="9"/>
      <point x="452" y="-6"/>
      <point x="434" y="-6" type="curve" smooth="yes"/>
      <point x="402" y="-6"/>
      <point x="365" y="-6"/>
      <point x="322" y="-6" type="curve" smooth="yes"/>
      <point x="164" y="-6"/>
      <point x="53" y="114"/>
      <point x="53" y="267" type="curve"/>
      <point x="53" y="432"/>
      <point x="162" y="545"/>
      <point x="322" y="545" type="curve" smooth="yes"/>
      <point x="346" y="545"/>
      <point x="382" y="545"/>
      <point x="405" y="545" type="curve" smooth="yes"/>
      <point x="423" y="545"/>
      <point x="438" y="530"/>
      <point x="438" y="512" type="curve" smooth="yes"/>
      <point x="438" y="494"/>
      <point x="423" y="479"/>
    </contour>
    <component base="E" xOffset="260"/>
    <component base="E" xOffset="260"/>
  </outline>
</glyph>
<glyph name="ring" format="1">
  <advance width="500"/>
  <unicode hex="02DA"/>
  <outline>
    <contour>
      <point x="374" y="585" type="curve" smooth="yes"/>
      <point x="374" y="528"/>
      <point x="331" y="474"/>
      <point x="254" y="474" type="curve" smooth="yes"/>
      <point x="180" y="474"/>
      <point x="137" y="532"/>
      <point x="137" y="585" type="curve" smooth="yes"/>
      <point x="137" y="638"/>
      <point x="180" y="696"/>
      <point x="254" y="696" type="curve" smooth="yes"/>
      <point x="331" y="696"/>
      <point x="374" y="642"/>
    </contour>
    <contour>
      <point x="308" y="585" type="curve" smooth="yes"/>
      <point x="308" y="610"/>
      <point x="285" y="630"/>
      <point x="254" y="630" type="curve" smooth="yes"/>
      <point x="224" y="630"/>
      <point x="203" y="608"/>
      <point x="203" y="585" type="curve" smooth="yes"/>
      <point x="203" y="562"/>
      <point x="224" y="540"/>
      <point x="254" y="540" type="curve" smooth="yes"/>
      <point x="285" y="540"/>
      <point x="308" y="560"/>
    </contour>
  </outline>
</glyph>
<glyph name="mu" format="1">
  <advance width="507"/>
  <unicode hex="03BC"/>
  <outline>
    <contour>
      <point x="138" y="201" type="curve" smooth="yes"/>
      <point x="138" y="-123" type="line" smooth="yes"/>
      <point x="138" y="-141"/>
      <point x="123" y="-156"/>
      <point x="105" y="-156" type="curve" smooth="yes"/>
      <point x="87" y="-156"/>
      <point x="72" y="-141"/>
      <point x="72" y="-123" type="curve" smooth="yes"/>
      <point x="72" y="201" type="line" smooth="yes"/>
      <point x="72" y="219"/>
      <point x="87" y="234"/>
      <point x="105" y="234" type="curve" smooth="yes"/>
      <point x="123" y="234"/>
      <point x="138" y="219"/>
    </contour>
    <component base="u"/>
    <component base="u"/>
  </outline>
</glyph>
<glyph name="pi" format="1">
  <advance width="643"/>
  <unicode hex="03C0"/>
  <outline>
    <contour>
      <point x="476" y="402" type="curve" smooth="yes"/>
      <point x="476" y="27" type="line" smooth="yes"/>
      <point x="476" y="9"/>
      <point x="461" y="-6"/>
      <point x="443" y="-6" type="curve" smooth="yes"/>
      <point x="425" y="-6"/>
      <point x="410" y="9"/>
      <point x="410" y="27" type="curve" smooth="yes"/>
      <point x="410" y="402" type="line" smooth="yes"/>
      <point x="410" y="420"/>
      <point x="425" y="435"/>
      <point x="443" y="435" type="curve" smooth="yes"/>
      <point x="461" y="435"/>
      <point x="476" y="420"/>
    </contour>
    <contour>
      <point x="96" y="440" type="curve" smooth="yes"/>
      <point x="546" y="440" type="line" smooth="yes"/>
      <point x="564" y="440"/>
      <point x="579" y="425"/>
      <point x="579" y="407" type="curve" smooth="yes"/>
      <point x="579" y="389"/>
      <point x="564" y="374"/>
      <point x="546" y="374" type="curve" smooth="yes"/>
      <point x="96" y="374" type="line" smooth="yes"/>
      <point x="78" y="374"/>
      <point x="63" y="389"/>
      <point x="63" y="407" type="curve" smooth="yes"/>
      <point x="63" y="425"/>
      <point x="78" y="440"/>
    </contour>
    <contour>
      <point x="236" y="402" type="curve" smooth="yes"/>
      <point x="236" y="27" type="line" smooth="yes"/>
      <point x="236" y="9"/>
      <point x="221" y="-6"/>
      <point x="203" y="-6" type="curve" smooth="yes"/>
      <point x="185" y="-6"/>
      <point x="170" y="9"/>
      <point x="170" y="27" type="curve" smooth="yes"/>
      <point x="170" y="402" type="line" smooth="yes"/>
      <point x="170" y="420"/>
      <point x="185" y="435"/>
      <point x="203" y="435" type="curve" smooth="yes"/>
      <point x="221" y="435"/>
      <point x="236" y="420"/>
    </contour>
  </outline>
</glyph>
<glyph name="knI" format="1">
  <advance width="676"/>
  <unicode hex="0C87"/>
  <outline>
    <contour>
      <point x="520" y="-30" type="curve" smooth="yes"/>
      <point x="476" y="98"/>
      <point x="399" y="173"/>
      <point x="315" y="173" type="curve" smooth="yes"/>
      <point x="273" y="173"/>
      <point x="243" y="151"/>
      <point x="243" y="126" type="curve" smooth="yes"/>
      <point x="243" y="100"/>
      <point x="273" y="80"/>
      <point x="316" y="80" type="curve" smooth="yes"/>
      <point x="463" y="80"/>
      <point x="571" y="221"/>
      <point x="571" y="316" type="curve" smooth="yes"/>
      <point x="571" y="373"/>
      <point x="539" y="410"/>
      <point x="488" y="410" type="curve" smooth="yes"/>
      <point x="431" y="410"/>
      <point x="400" y="368"/>
      <point x="369" y="314" type="curve" smooth="yes"/>
      <point x="363" y="304"/>
      <point x="351" y="297"/>
      <point x="340" y="297" type="curve" smooth="yes"/>
      <point x="335" y="297" type="line" smooth="yes"/>
      <point x="324" y="297"/>
      <point x="311" y="305"/>
      <point x="306" y="314" type="curve" smooth="yes"/>
      <point x="276" y="369"/>
      <point x="239" y="411"/>
      <point x="179" y="411" type="curve" smooth="yes"/>
      <point x="130" y="411"/>
      <point x="101" y="375"/>
      <point x="101" y="332" type="curve" smooth="yes"/>
      <point x="101" y="314"/>
      <point x="107" y="295"/>
      <point x="119" y="275" type="curve" smooth="yes"/>
      <point x="128" y="260"/>
      <point x="123" y="239"/>
      <point x="108" y="230" type="curve" smooth="yes"/>
      <point x="93" y="221"/>
      <point x="72" y="226"/>
      <point x="63" y="241" type="curve" smooth="yes"/>
      <point x="43" y="273"/>
      <point x="35" y="302"/>
      <point x="35" y="332" type="curve"/>
      <point x="35" y="411"/>
      <point x="90" y="477"/>
      <point x="179" y="477" type="curve" smooth="yes"/>
      <point x="263" y="477"/>
      <point x="320" y="425"/>
      <point x="364" y="346" type="curve"/>
      <point x="335" y="363" type="line"/>
      <point x="340" y="363" type="line"/>
      <point x="311" y="346" type="line"/>
      <point x="358" y="428"/>
      <point x="409" y="476"/>
      <point x="488" y="476" type="curve" smooth="yes"/>
      <point x="575" y="476"/>
      <point x="637" y="417"/>
      <point x="637" y="316" type="curve" smooth="yes"/>
      <point x="637" y="197"/>
      <point x="503" y="14"/>
      <point x="316" y="14" type="curve" smooth="yes"/>
      <point x="213" y="14"/>
      <point x="177" y="76"/>
      <point x="177" y="126" type="curve" smooth="yes"/>
      <point x="177" y="175"/>
      <point x="213" y="239"/>
      <point x="315" y="239" type="curve" smooth="yes"/>
      <point x="419" y="239"/>
      <point x="526" y="158"/>
      <point x="582" y="-8" type="curve" smooth="yes"/>
      <point x="588" y="-25"/>
      <point x="578" y="-45"/>
      <point x="562" y="-50" type="curve" smooth="yes"/>
      <point x="545" y="-56"/>
      <point x="525" y="-46"/>
    </contour>
  </outline>
</glyph>
<glyph name="knII" format="1">
  <advance width="901"/>
  <unicode hex="0C88"/>
  <outline>
    <contour>
      <point x="125" y="222" type="curve" smooth="yes"/>
      <point x="125" y="347"/>
      <point x="232" y="470"/>
      <point x="367" y="470" type="curve" smooth="yes"/>
      <point x="503" y="470"/>
      <point x="608" y="345"/>
      <point x="608" y="222" type="curve" smooth="yes"/>
      <point x="608" y="86"/>
      <point x="512" y="-10"/>
      <point x="367" y="-10" type="curve" smooth="yes"/>
      <point x="222" y="-10"/>
      <point x="125" y="84"/>
    </contour>
    <contour>
      <point x="744" y="58" type="curve" smooth="yes"/>
      <point x="677" y="177"/>
      <point x="660" y="253"/>
      <point x="660" y="301" type="curve" smooth="yes"/>
      <point x="660" y="380"/>
      <point x="713" y="423"/>
      <point x="768" y="423" type="curve" smooth="yes"/>
      <point x="830" y="423"/>
      <point x="874" y="374"/>
      <point x="874" y="317" type="curve" smooth="yes"/>
      <point x="874" y="252"/>
      <point x="829" y="190"/>
      <point x="729" y="190" type="curve" smooth="yes"/>
      <point x="56" y="190" type="line" smooth="yes"/>
      <point x="38" y="190"/>
      <point x="23" y="205"/>
      <point x="23" y="223" type="curve" smooth="yes"/>
      <point x="23" y="241"/>
      <point x="38" y="256"/>
      <point x="56" y="256" type="curve" smooth="yes"/>
      <point x="729" y="256" type="line" smooth="yes"/>
      <point x="777" y="256"/>
      <point x="808" y="282"/>
      <point x="808" y="317" type="curve" smooth="yes"/>
      <point x="808" y="338"/>
      <point x="792" y="357"/>
      <point x="768" y="357" type="curve" smooth="yes"/>
      <point x="743" y="357"/>
      <point x="726" y="332"/>
      <point x="726" y="301" type="curve" smooth="yes"/>
      <point x="726" y="259"/>
      <point x="743" y="193"/>
      <point x="802" y="90" type="curve" smooth="yes"/>
      <point x="810" y="75"/>
      <point x="805" y="54"/>
      <point x="789" y="45" type="curve" smooth="yes"/>
      <point x="774" y="37"/>
      <point x="753" y="42"/>
    </contour>
    <contour>
      <point x="136" y="470" type="curve" smooth="yes"/>
      <point x="479" y="470" type="line" smooth="yes"/>
      <point x="538" y="470"/>
      <point x="573" y="490"/>
      <point x="599" y="532" type="curve" smooth="yes"/>
      <point x="608" y="547"/>
      <point x="629" y="552"/>
      <point x="644" y="543" type="curve" smooth="yes"/>
      <point x="659" y="534"/>
      <point x="664" y="513"/>
      <point x="655" y="498" type="curve" smooth="yes"/>
      <point x="617" y="436"/>
      <point x="566" y="404"/>
      <point x="479" y="404" type="curve" smooth="yes"/>
      <point x="136" y="404" type="line" smooth="yes"/>
      <point x="118" y="404"/>
      <point x="103" y="419"/>
      <point x="103" y="437" type="curve" smooth="yes"/>
      <point x="103" y="455"/>
      <point x="118" y="470"/>
    </contour>
    <contour>
      <point x="191" y="222" type="curve" smooth="yes"/>
      <point x="191" y="122"/>
      <point x="264" y="56"/>
      <point x="367" y="56" type="curve" smooth="yes"/>
      <point x="470" y="56"/>
      <point x="542" y="124"/>
      <point x="542" y="222" type="curve" smooth="yes"/>
      <point x="542" y="311"/>
      <point x="467" y="404"/>
      <point x="367" y="404" type="curve" smooth="yes"/>
      <point x="268" y="404"/>
      <point x="191" y="313"/>
    </contour>
  </outline>
</glyph>
<glyph name="knU" format="1">
  <advance width="953"/>
  <unicode hex="0C89"/>
  <outline>
    <contour>
      <point x="130" y="366" type="curve" smooth="yes"/>
      <point x="155" y="334"/>
      <point x="184" y="313"/>
      <point x="217" y="313" type="curve" smooth="yes"/>
      <point x="248" y="313"/>
      <point x="274" y="331"/>
      <point x="274" y="363" type="curve" smooth="yes"/>
      <point x="274" y="394"/>
      <point x="251" y="419"/>
      <point x="215" y="419" type="curve" smooth="yes"/>
      <point x="154" y="419"/>
      <point x="118" y="335"/>
      <point x="118" y="240" type="curve" smooth="yes"/>
      <point x="118" y="139"/>
      <point x="173" y="60"/>
      <point x="247" y="60" type="curve" smooth="yes"/>
      <point x="273" y="60"/>
      <point x="296" y="69"/>
      <point x="315" y="87" type="curve" smooth="yes"/>
      <point x="339" y="112"/>
      <point x="355" y="166"/>
      <point x="369" y="248" type="curve" smooth="yes"/>
      <point x="399" y="413"/>
      <point x="441" y="448"/>
      <point x="504" y="448" type="curve" smooth="yes"/>
      <point x="579" y="448"/>
      <point x="626" y="409"/>
      <point x="637" y="222" type="curve" smooth="yes"/>
      <point x="641" y="145"/>
      <point x="660" y="110"/>
      <point x="681" y="88" type="curve" smooth="yes"/>
      <point x="700" y="70"/>
      <point x="727" y="60"/>
      <point x="761" y="60" type="curve" smooth="yes"/>
      <point x="814" y="60"/>
      <point x="856" y="104"/>
      <point x="856" y="179" type="curve" smooth="yes"/>
      <point x="856" y="270"/>
      <point x="809" y="355"/>
      <point x="750" y="413" type="curve" smooth="yes"/>
      <point x="737" y="426"/>
      <point x="737" y="447"/>
      <point x="749" y="460" type="curve" smooth="yes"/>
      <point x="762" y="473"/>
      <point x="783" y="473"/>
      <point x="796" y="461" type="curve" smooth="yes"/>
      <point x="867" y="391"/>
      <point x="922" y="288"/>
      <point x="922" y="179" type="curve" smooth="yes"/>
      <point x="922" y="52"/>
      <point x="844" y="-6"/>
      <point x="761" y="-6" type="curve" smooth="yes"/>
      <point x="707" y="-6"/>
      <point x="664" y="12"/>
      <point x="635" y="42" type="curve" smooth="yes"/>
      <point x="606" y="70"/>
      <point x="577" y="115"/>
      <point x="571" y="218" type="curve" smooth="yes"/>
      <point x="566" y="313"/>
      <point x="557" y="382"/>
      <point x="504" y="382" type="curve" smooth="yes"/>
      <point x="459" y="382"/>
      <point x="449" y="321"/>
      <point x="435" y="236" type="curve" smooth="yes"/>
      <point x="417" y="134"/>
      <point x="391" y="70"/>
      <point x="361" y="41" type="curve" smooth="yes"/>
      <point x="330" y="9"/>
      <point x="291" y="-6"/>
      <point x="247" y="-6" type="curve" smooth="yes"/>
      <point x="147" y="-6"/>
      <point x="52" y="87"/>
      <point x="52" y="240" type="curve"/>
      <point x="52" y="399"/>
      <point x="132" y="485"/>
      <point x="215" y="485" type="curve" smooth="yes"/>
      <point x="295" y="485"/>
      <point x="340" y="430"/>
      <point x="340" y="363" type="curve" smooth="yes"/>
      <point x="340" y="295"/>
      <point x="288" y="247"/>
      <point x="217" y="247" type="curve" smooth="yes"/>
      <point x="166" y="247"/>
      <point x="117" y="274"/>
      <point x="78" y="326" type="curve" smooth="yes"/>
      <point x="67" y="340"/>
      <point x="70" y="361"/>
      <point x="84" y="372" type="curve" smooth="yes"/>
      <point x="98" y="383"/>
      <point x="119" y="380"/>
    </contour>
  </outline>
</glyph>
<glyph name="knUU" format="1">
  <advance width="1252"/>
  <unicode hex="0C8A"/>
  <outline>
    <contour>
      <point x="129" y="366" type="curve" smooth="yes"/>
      <point x="154" y="334"/>
      <point x="183" y="313"/>
      <point x="216" y="313" type="curve" smooth="yes"/>
      <point x="247" y="313"/>
      <point x="273" y="331"/>
      <point x="273" y="363" type="curve" smooth="yes"/>
      <point x="273" y="394"/>
      <point x="250" y="419"/>
      <point x="214" y="419" type="curve" smooth="yes"/>
      <point x="153" y="419"/>
      <point x="118" y="332"/>
      <point x="118" y="240" type="curve" smooth="yes"/>
      <point x="118" y="139"/>
      <point x="173" y="60"/>
      <point x="247" y="60" type="curve" smooth="yes"/>
      <point x="273" y="60"/>
      <point x="296" y="69"/>
      <point x="315" y="87" type="curve" smooth="yes"/>
      <point x="339" y="112"/>
      <point x="355" y="166"/>
      <point x="369" y="248" type="curve" smooth="yes"/>
      <point x="399" y="413"/>
      <point x="441" y="448"/>
      <point x="504" y="448" type="curve" smooth="yes"/>
      <point x="579" y="448"/>
      <point x="626" y="409"/>
      <point x="637" y="222" type="curve" smooth="yes"/>
      <point x="641" y="145"/>
      <point x="654" y="103"/>
      <point x="675" y="81" type="curve" smooth="yes"/>
      <point x="688" y="68"/>
      <point x="710" y="60"/>
      <point x="734" y="60" type="curve" smooth="yes"/>
      <point x="774" y="60"/>
      <point x="793" y="90"/>
      <point x="793" y="129" type="curve" smooth="yes"/>
      <point x="793" y="182"/>
      <point x="768" y="232"/>
      <point x="768" y="292" type="curve" smooth="yes"/>
      <point x="768" y="375"/>
      <point x="828" y="470"/>
      <point x="943" y="470" type="curve" smooth="yes"/>
      <point x="1057" y="470"/>
      <point x="1202" y="366"/>
      <point x="1202" y="171" type="curve" smooth="yes"/>
      <point x="1202" y="50"/>
      <point x="1136" y="-10"/>
      <point x="1059" y="-10" type="curve" smooth="yes"/>
      <point x="978" y="-10"/>
      <point x="934" y="48"/>
      <point x="933" y="110" type="curve" smooth="yes"/>
      <point x="932" y="180"/>
      <point x="982" y="250"/>
      <point x="1080" y="250" type="curve" smooth="yes"/>
      <point x="1112" y="250"/>
      <point x="1146" y="245"/>
      <point x="1174" y="236" type="curve" smooth="yes"/>
      <point x="1191" y="231"/>
      <point x="1201" y="212"/>
      <point x="1195" y="195" type="curve" smooth="yes"/>
      <point x="1190" y="178"/>
      <point x="1171" y="168"/>
      <point x="1154" y="174" type="curve" smooth="yes"/>
      <point x="1132" y="181"/>
      <point x="1106" y="184"/>
      <point x="1080" y="184" type="curve" smooth="yes"/>
      <point x="1030" y="184"/>
      <point x="998" y="150"/>
      <point x="999" y="112" type="curve" smooth="yes"/>
      <point x="1000" y="82"/>
      <point x="1022" y="56"/>
      <point x="1059" y="56" type="curve" smooth="yes"/>
      <point x="1108" y="56"/>
      <point x="1136" y="106"/>
      <point x="1136" y="171" type="curve" smooth="yes"/>
      <point x="1136" y="316"/>
      <point x="1031" y="404"/>
      <point x="943" y="404" type="curve" smooth="yes"/>
      <point x="870" y="404"/>
      <point x="834" y="343"/>
      <point x="834" y="292" type="curve" smooth="yes"/>
      <point x="834" y="232"/>
      <point x="859" y="182"/>
      <point x="859" y="129" type="curve" smooth="yes"/>
      <point x="859" y="46"/>
      <point x="812" y="-6"/>
      <point x="734" y="-6" type="curve" smooth="yes"/>
      <point x="690" y="-6"/>
      <point x="652" y="12"/>
      <point x="629" y="35" type="curve" smooth="yes"/>
      <point x="600" y="63"/>
      <point x="577" y="115"/>
      <point x="571" y="218" type="curve" smooth="yes"/>
      <point x="566" y="313"/>
      <point x="557" y="382"/>
      <point x="504" y="382" type="curve" smooth="yes"/>
      <point x="459" y="382"/>
      <point x="449" y="321"/>
      <point x="435" y="236" type="curve" smooth="yes"/>
      <point x="417" y="134"/>
      <point x="391" y="70"/>
      <point x="361" y="41" type="curve" smooth="yes"/>
      <point x="330" y="9"/>
      <point x="291" y="-6"/>
      <point x="247" y="-6" type="curve" smooth="yes"/>
      <point x="147" y="-6"/>
      <point x="52" y="87"/>
      <point x="52" y="240" type="curve"/>
      <point x="52" y="394"/>
      <point x="131" y="485"/>
      <point x="214" y="485" type="curve" smooth="yes"/>
      <point x="294" y="485"/>
      <point x="339" y="430"/>
      <point x="339" y="363" type="curve" smooth="yes"/>
      <point x="339" y="295"/>
      <point x="287" y="247"/>
      <point x="216" y="247" type="curve" smooth="yes"/>
      <point x="165" y="247"/>
      <point x="116" y="274"/>
      <point x="77" y="326" type="curve" smooth="yes"/>
      <point x="66" y="340"/>
      <point x="69" y="361"/>
      <point x="83" y="372" type="curve" smooth="yes"/>
      <point x="97" y="383"/>
      <point x="118" y="380"/>
    </contour>
  </outline>
</glyph>
<glyph name="knvR" format="1">
  <advance width="1032"/>
  <unicode hex="0C8B"/>
  <outline>
    <contour>
      <point x="524" y="470" type="curve" smooth="yes"/>
      <point x="636" y="470" type="line" smooth="yes"/>
      <point x="695" y="470"/>
      <point x="730" y="490"/>
      <point x="756" y="532" type="curve" smooth="yes"/>
      <point x="765" y="547"/>
      <point x="786" y="552"/>
      <point x="801" y="543" type="curve" smooth="yes"/>
      <point x="816" y="534"/>
      <point x="821" y="513"/>
      <point x="812" y="498" type="curve" smooth="yes"/>
      <point x="774" y="436"/>
      <point x="723" y="404"/>
      <point x="636" y="404" type="curve" smooth="yes"/>
      <point x="524" y="404" type="line" smooth="yes"/>
      <point x="506" y="404"/>
      <point x="491" y="419"/>
      <point x="491" y="437" type="curve" smooth="yes"/>
      <point x="491" y="455"/>
      <point x="506" y="470"/>
    </contour>
    <component base="knKha" xOffset="-59" yOffset="-142"/>
    <component base="knUsign" xOffset="986" yOffset="-356"/>
    <component base="knKHA"/>
    <component base="knmU" xOffset="799"/>
    <component base="knKha" xOffset="-59" yOffset="-142"/>
    <component base="knUsign" xOffset="986" yOffset="-356"/>
    <component base="knKHA"/>
    <component base="knmU" xOffset="799"/>
  </outline>
</glyph>
<glyph name="knvL" format="1">
  <advance width="676"/>
  <unicode hex="0C8C"/>
  <outline>
    <contour>
      <point x="620" y="37" type="curve" smooth="yes"/>
      <point x="577" y="-8"/>
      <point x="546" y="-34"/>
      <point x="491" y="-34" type="curve" smooth="yes"/>
      <point x="415" y="-34"/>
      <point x="372" y="23"/>
      <point x="372" y="76" type="curve" smooth="yes"/>
      <point x="372" y="123"/>
      <point x="397" y="170"/>
      <point x="482" y="222" type="curve" smooth="yes"/>
      <point x="534" y="255"/>
      <point x="566" y="284"/>
      <point x="566" y="334" type="curve" smooth="yes"/>
      <point x="566" y="376"/>
      <point x="534" y="410"/>
      <point x="487" y="410" type="curve" smooth="yes"/>
      <point x="430" y="410"/>
      <point x="399" y="368"/>
      <point x="368" y="314" type="curve" smooth="yes"/>
      <point x="362" y="304"/>
      <point x="350" y="297"/>
      <point x="339" y="297" type="curve" smooth="yes"/>
      <point x="334" y="297" type="line" smooth="yes"/>
      <point x="323" y="297"/>
      <point x="310" y="305"/>
      <point x="305" y="314" type="curve" smooth="yes"/>
      <point x="275" y="369"/>
      <point x="238" y="411"/>
      <point x="178" y="411" type="curve" smooth="yes"/>
      <point x="129" y="411"/>
      <point x="100" y="375"/>
      <point x="100" y="332" type="curve" smooth="yes"/>
      <point x="100" y="314"/>
      <point x="106" y="295"/>
      <point x="118" y="275" type="curve" smooth="yes"/>
      <point x="127" y="260"/>
      <point x="122" y="239"/>
      <point x="107" y="230" type="curve" smooth="yes"/>
      <point x="92" y="221"/>
      <point x="71" y="226"/>
      <point x="62" y="241" type="curve" smooth="yes"/>
      <point x="42" y="273"/>
      <point x="34" y="302"/>
      <point x="34" y="332" type="curve"/>
      <point x="34" y="411"/>
      <point x="89" y="477"/>
      <point x="178" y="477" type="curve" smooth="yes"/>
      <point x="262" y="477"/>
      <point x="319" y="425"/>
      <point x="363" y="346" type="curve"/>
      <point x="334" y="363" type="line"/>
      <point x="339" y="363" type="line"/>
      <point x="310" y="346" type="line"/>
      <point x="357" y="428"/>
      <point x="408" y="476"/>
      <point x="487" y="476" type="curve" smooth="yes"/>
      <point x="574" y="476"/>
      <point x="632" y="410"/>
      <point x="632" y="334" type="curve" smooth="yes"/>
      <point x="632" y="262"/>
      <point x="596" y="215"/>
      <point x="516" y="166" type="curve" smooth="yes"/>
      <point x="465" y="134"/>
      <point x="438" y="107"/>
      <point x="438" y="76" type="curve" smooth="yes"/>
      <point x="438" y="53"/>
      <point x="461" y="32"/>
      <point x="491" y="32" type="curve" smooth="yes"/>
      <point x="528" y="32"/>
      <point x="545" y="54"/>
      <point x="572" y="83" type="curve" smooth="yes"/>
      <point x="584" y="96"/>
      <point x="606" y="96"/>
      <point x="619" y="84" type="curve" smooth="yes"/>
      <point x="632" y="72"/>
      <point x="632" y="50"/>
    </contour>
  </outline>
</glyph>
<glyph name="knEE" format="1">
  <advance width="700"/>
  <unicode hex="0C8F"/>
  <outline>
    <contour>
      <point x="185" y="477" type="curve" smooth="yes"/>
      <point x="185" y="422"/>
      <point x="213" y="385"/>
      <point x="256" y="385" type="curve" smooth="yes"/>
      <point x="295" y="385"/>
      <point x="319" y="413"/>
      <point x="325" y="456" type="curve" smooth="yes"/>
      <point x="328" y="473"/>
      <point x="345" y="486"/>
      <point x="363" y="484" type="curve" smooth="yes"/>
      <point x="380" y="481"/>
      <point x="393" y="464"/>
      <point x="391" y="446" type="curve" smooth="yes"/>
      <point x="379" y="363"/>
      <point x="327" y="319"/>
      <point x="256" y="319" type="curve" smooth="yes"/>
      <point x="181" y="319"/>
      <point x="119" y="370"/>
      <point x="119" y="477" type="curve" smooth="yes"/>
      <point x="119" y="495"/>
      <point x="134" y="510"/>
      <point x="152" y="510" type="curve" smooth="yes"/>
      <point x="170" y="510"/>
      <point x="185" y="495"/>
    </contour>
    <contour>
      <point x="173" y="187" type="curve" smooth="yes"/>
      <point x="131" y="181"/>
      <point x="105" y="156"/>
      <point x="105" y="122" type="curve" smooth="yes"/>
      <point x="105" y="85"/>
      <point x="139" y="60"/>
      <point x="183" y="60" type="curve" smooth="yes"/>
      <point x="245" y="60"/>
      <point x="281" y="87"/>
      <point x="311" y="144" type="curve" smooth="yes"/>
      <point x="316" y="153"/>
      <point x="329" y="161"/>
      <point x="340" y="161" type="curve" smooth="yes"/>
      <point x="345" y="161" type="line" smooth="yes"/>
      <point x="356" y="161"/>
      <point x="368" y="154"/>
      <point x="374" y="145" type="curve" smooth="yes"/>
      <point x="406" y="87"/>
      <point x="438" y="60"/>
      <point x="490" y="60" type="curve" smooth="yes"/>
      <point x="545" y="60"/>
      <point x="589" y="101"/>
      <point x="588" y="172" type="curve" smooth="yes"/>
      <point x="587" y="280"/>
      <point x="514" y="386"/>
      <point x="353" y="423" type="curve" smooth="yes"/>
      <point x="335" y="427"/>
      <point x="324" y="445"/>
      <point x="328" y="462" type="curve" smooth="yes"/>
      <point x="332" y="480"/>
      <point x="350" y="491"/>
      <point x="367" y="487" type="curve" smooth="yes"/>
      <point x="570" y="442"/>
      <point x="653" y="304"/>
      <point x="654" y="172" type="curve" smooth="yes"/>
      <point x="655" y="55"/>
      <point x="577" y="-6"/>
      <point x="490" y="-6" type="curve" smooth="yes"/>
      <point x="416" y="-6"/>
      <point x="366" y="27"/>
      <point x="316" y="111" type="curve"/>
      <point x="345" y="95" type="line"/>
      <point x="340" y="95" type="line"/>
      <point x="369" y="112" type="line"/>
      <point x="325" y="31"/>
      <point x="273" y="-6"/>
      <point x="183" y="-6" type="curve" smooth="yes"/>
      <point x="91" y="-6"/>
      <point x="39" y="53"/>
      <point x="39" y="122" type="curve"/>
      <point x="39" y="184"/>
      <point x="81" y="241"/>
      <point x="163" y="253" type="curve" smooth="yes"/>
      <point x="181" y="255"/>
      <point x="198" y="242"/>
      <point x="201" y="225" type="curve" smooth="yes"/>
      <point x="203" y="207"/>
      <point x="190" y="190"/>
    </contour>
  </outline>
</glyph>
<glyph name="knAI" format="1">
  <advance width="716"/>
  <unicode hex="0C90"/>
  <outline>
    <contour>
      <point x="187" y="192" type="curve" smooth="yes"/>
      <point x="143" y="192"/>
      <point x="111" y="158"/>
      <point x="111" y="125" type="curve" smooth="yes"/>
      <point x="111" y="88"/>
      <point x="144" y="60"/>
      <point x="188" y="60" type="curve" smooth="yes"/>
      <point x="250" y="60"/>
      <point x="287" y="88"/>
      <point x="317" y="144" type="curve" smooth="yes"/>
      <point x="322" y="153"/>
      <point x="335" y="161"/>
      <point x="346" y="161" type="curve" smooth="yes"/>
      <point x="351" y="161" type="line" smooth="yes"/>
      <point x="362" y="161"/>
      <point x="374" y="154"/>
      <point x="380" y="145" type="curve" smooth="yes"/>
      <point x="413" y="87"/>
      <point x="449" y="60"/>
      <point x="497" y="60" type="curve" smooth="yes"/>
      <point x="557" y="60"/>
      <point x="599" y="114"/>
      <point x="599" y="226" type="curve" smooth="yes"/>
      <point x="599" y="346"/>
      <point x="545" y="404"/>
      <point x="489" y="404" type="curve" smooth="yes"/>
      <point x="448" y="404"/>
      <point x="418" y="375"/>
      <point x="382" y="317" type="curve" smooth="yes"/>
      <point x="377" y="308"/>
      <point x="364" y="301"/>
      <point x="354" y="301" type="curve" smooth="yes"/>
      <point x="349" y="301" type="line" smooth="yes"/>
      <point x="339" y="301"/>
      <point x="326" y="308"/>
      <point x="321" y="317" type="curve" smooth="yes"/>
      <point x="286" y="375"/>
      <point x="258" y="405"/>
      <point x="210" y="405" type="curve" smooth="yes"/>
      <point x="168" y="405"/>
      <point x="137" y="375"/>
      <point x="123" y="327" type="curve" smooth="yes"/>
      <point x="118" y="310"/>
      <point x="99" y="299"/>
      <point x="82" y="304" type="curve" smooth="yes"/>
      <point x="65" y="309"/>
      <point x="54" y="328"/>
      <point x="59" y="345" type="curve" smooth="yes"/>
      <point x="83" y="429"/>
      <point x="140" y="471"/>
      <point x="210" y="471" type="curve" smooth="yes"/>
      <point x="278" y="471"/>
      <point x="324" y="439"/>
      <point x="377" y="351" type="curve"/>
      <point x="349" y="367" type="line"/>
      <point x="354" y="367" type="line"/>
      <point x="326" y="351" type="line"/>
      <point x="382" y="441"/>
      <point x="430" y="470"/>
      <point x="489" y="470" type="curve" smooth="yes"/>
      <point x="565" y="470"/>
      <point x="665" y="418"/>
      <point x="665" y="226" type="curve" smooth="yes"/>
      <point x="665" y="42"/>
      <point x="581" y="-6"/>
      <point x="497" y="-6" type="curve" smooth="yes"/>
      <point x="427" y="-6"/>
      <point x="371" y="27"/>
      <point x="322" y="111" type="curve"/>
      <point x="351" y="95" type="line"/>
      <point x="346" y="95" type="line"/>
      <point x="375" y="112" type="line"/>
      <point x="331" y="32"/>
      <point x="276" y="-6"/>
      <point x="188" y="-6" type="curve" smooth="yes"/>
      <point x="100" y="-6"/>
      <point x="45" y="56"/>
      <point x="45" y="125" type="curve"/>
      <point x="45" y="188"/>
      <point x="101" y="258"/>
      <point x="187" y="258" type="curve" smooth="yes"/>
      <point x="205" y="258"/>
      <point x="220" y="243"/>
      <point x="220" y="225" type="curve" smooth="yes"/>
      <point x="220" y="207"/>
      <point x="205" y="192"/>
    </contour>
  </outline>
</glyph>
<glyph name="knO" format="1">
  <advance width="686"/>
  <unicode hex="0C92"/>
  <outline>
    <contour>
      <point x="46" y="428" type="curve" smooth="yes"/>
      <point x="80" y="463"/>
      <point x="121" y="485"/>
      <point x="169" y="485" type="curve" smooth="yes"/>
      <point x="243" y="485"/>
      <point x="287" y="435"/>
      <point x="287" y="375" type="curve" smooth="yes"/>
      <point x="287" y="329"/>
      <point x="265" y="287"/>
      <point x="196" y="231" type="curve" smooth="yes"/>
      <point x="157" y="200"/>
      <point x="129" y="168"/>
      <point x="129" y="129" type="curve" smooth="yes"/>
      <point x="129" y="90"/>
      <point x="159" y="60"/>
      <point x="208" y="60" type="curve" smooth="yes"/>
      <point x="264" y="60"/>
      <point x="300" y="86"/>
      <point x="337" y="145" type="curve" smooth="yes"/>
      <point x="342" y="154"/>
      <point x="355" y="161"/>
      <point x="365" y="161" type="curve" smooth="yes"/>
      <point x="370" y="161" type="line" smooth="yes"/>
      <point x="380" y="161"/>
      <point x="392" y="154"/>
      <point x="398" y="146" type="curve" smooth="yes"/>
      <point x="432" y="92"/>
      <point x="470" y="60"/>
      <point x="531" y="60" type="curve" smooth="yes"/>
      <point x="581" y="60"/>
      <point x="613" y="93"/>
      <point x="613" y="134" type="curve" smooth="yes"/>
      <point x="613" y="166"/>
      <point x="602" y="193"/>
      <point x="579" y="213" type="curve" smooth="yes"/>
      <point x="566" y="225"/>
      <point x="564" y="246"/>
      <point x="576" y="260" type="curve" smooth="yes"/>
      <point x="588" y="273"/>
      <point x="609" y="275"/>
      <point x="623" y="263" type="curve" smooth="yes"/>
      <point x="660" y="231"/>
      <point x="679" y="188"/>
      <point x="679" y="134" type="curve" smooth="yes"/>
      <point x="679" y="59"/>
      <point x="625" y="-6"/>
      <point x="531" y="-6" type="curve" smooth="yes"/>
      <point x="446" y="-6"/>
      <point x="392" y="34"/>
      <point x="342" y="110" type="curve"/>
      <point x="370" y="95" type="line"/>
      <point x="365" y="95" type="line"/>
      <point x="393" y="111" type="line"/>
      <point x="340" y="26"/>
      <point x="286" y="-6"/>
      <point x="208" y="-6" type="curve" smooth="yes"/>
      <point x="111" y="-6"/>
      <point x="63" y="58"/>
      <point x="63" y="129" type="curve"/>
      <point x="63" y="186"/>
      <point x="97" y="236"/>
      <point x="154" y="283" type="curve" smooth="yes"/>
      <point x="199" y="319"/>
      <point x="221" y="343"/>
      <point x="221" y="375" type="curve" smooth="yes"/>
      <point x="221" y="401"/>
      <point x="199" y="419"/>
      <point x="169" y="419" type="curve" smooth="yes"/>
      <point x="139" y="419"/>
      <point x="114" y="403"/>
      <point x="92" y="382" type="curve" smooth="yes"/>
      <point x="80" y="369"/>
      <point x="58" y="369"/>
      <point x="46" y="382" type="curve" smooth="yes"/>
      <point x="33" y="394"/>
      <point x="33" y="416"/>
    </contour>
  </outline>
</glyph>
<glyph name="knOO" format="1">
  <advance width="694"/>
  <unicode hex="0C93"/>
  <outline>
    <contour>
      <point x="283" y="567" type="curve" smooth="yes"/>
      <point x="270" y="572"/>
      <point x="258" y="578"/>
      <point x="239" y="578" type="curve" smooth="yes"/>
      <point x="210" y="578"/>
      <point x="191" y="556"/>
      <point x="191" y="529" type="curve" smooth="yes"/>
      <point x="191" y="506"/>
      <point x="196" y="485"/>
      <point x="200" y="471" type="curve" smooth="yes"/>
      <point x="204" y="454"/>
      <point x="193" y="435"/>
      <point x="176" y="431" type="curve" smooth="yes"/>
      <point x="159" y="427"/>
      <point x="140" y="438"/>
      <point x="136" y="455" type="curve" smooth="yes"/>
      <point x="132" y="473"/>
      <point x="125" y="500"/>
      <point x="125" y="529" type="curve" smooth="yes"/>
      <point x="125" y="592"/>
      <point x="172" y="644"/>
      <point x="239" y="644" type="curve" smooth="yes"/>
      <point x="270" y="644"/>
      <point x="290" y="636"/>
      <point x="309" y="627" type="curve" smooth="yes"/>
      <point x="326" y="620"/>
      <point x="333" y="600"/>
      <point x="326" y="584" type="curve" smooth="yes"/>
      <point x="319" y="567"/>
      <point x="299" y="560"/>
    </contour>
    <component base="knO"/>
    <component base="knO"/>
  </outline>
</glyph>
<glyph name="knAU" format="1">
  <advance width="694"/>
  <unicode hex="0C94"/>
  <outline>
    <contour>
      <point x="83" y="670" type="curve" smooth="yes"/>
      <point x="427" y="670" type="line" smooth="yes"/>
      <point x="604" y="670"/>
      <point x="671" y="584"/>
      <point x="671" y="480" type="curve" smooth="yes"/>
      <point x="671" y="370"/>
      <point x="609" y="315"/>
      <point x="536" y="315" type="curve" smooth="yes"/>
      <point x="458" y="315"/>
      <point x="417" y="369"/>
      <point x="416" y="425" type="curve" smooth="yes"/>
      <point x="415" y="490"/>
      <point x="461" y="554"/>
      <point x="555" y="554" type="curve" smooth="yes"/>
      <point x="586" y="554"/>
      <point x="618" y="550"/>
      <point x="644" y="541" type="curve" smooth="yes"/>
      <point x="661" y="535"/>
      <point x="670" y="516"/>
      <point x="664" y="499" type="curve" smooth="yes"/>
      <point x="658" y="482"/>
      <point x="639" y="473"/>
      <point x="622" y="479" type="curve" smooth="yes"/>
      <point x="602" y="486"/>
      <point x="578" y="488"/>
      <point x="555" y="488" type="curve" smooth="yes"/>
      <point x="511" y="488"/>
      <point x="481" y="460"/>
      <point x="482" y="427" type="curve" smooth="yes"/>
      <point x="483" y="401"/>
      <point x="504" y="381"/>
      <point x="536" y="381" type="curve" smooth="yes"/>
      <point x="580" y="381"/>
      <point x="605" y="424"/>
      <point x="605" y="480" type="curve" smooth="yes"/>
      <point x="605" y="556"/>
      <point x="542" y="604"/>
      <point x="427" y="604" type="curve" smooth="yes"/>
      <point x="83" y="604" type="line" smooth="yes"/>
      <point x="65" y="604"/>
      <point x="50" y="619"/>
      <point x="50" y="637" type="curve" smooth="yes"/>
      <point x="50" y="655"/>
      <point x="65" y="670"/>
    </contour>
    <contour>
      <point x="84" y="509" type="curve" smooth="yes"/>
      <point x="159" y="509" type="line" smooth="yes"/>
      <point x="236" y="509"/>
      <point x="284" y="551"/>
      <point x="283" y="629" type="curve" smooth="yes"/>
      <point x="283" y="646"/>
      <point x="298" y="662"/>
      <point x="316" y="662" type="curve" smooth="yes"/>
      <point x="333" y="662"/>
      <point x="349" y="647"/>
      <point x="349" y="629" type="curve" smooth="yes"/>
      <point x="350" y="511"/>
      <point x="280" y="443"/>
      <point x="159" y="443" type="curve" smooth="yes"/>
      <point x="84" y="443" type="line" smooth="yes"/>
      <point x="66" y="443"/>
      <point x="51" y="458"/>
      <point x="51" y="476" type="curve" smooth="yes"/>
      <point x="51" y="494"/>
      <point x="66" y="509"/>
    </contour>
    <component base="knO"/>
    <component base="knO"/>
  </outline>
</glyph>
<glyph name="knGA" format="1">
  <advance width="634"/>
  <unicode hex="0C97"/>
  <outline>
    <contour>
      <point x="77" y="470" type="curve" smooth="yes"/>
      <point x="438" y="470" type="line" smooth="yes"/>
      <point x="497" y="470"/>
      <point x="532" y="490"/>
      <point x="558" y="532" type="curve" smooth="yes"/>
      <point x="567" y="547"/>
      <point x="588" y="552"/>
      <point x="603" y="543" type="curve" smooth="yes"/>
      <point x="618" y="534"/>
      <point x="623" y="513"/>
      <point x="614" y="498" type="curve" smooth="yes"/>
      <point x="576" y="436"/>
      <point x="525" y="404"/>
      <point x="438" y="404" type="curve" smooth="yes"/>
      <point x="77" y="404" type="line" smooth="yes"/>
      <point x="59" y="404"/>
      <point x="44" y="419"/>
      <point x="44" y="437" type="curve" smooth="yes"/>
      <point x="44" y="455"/>
      <point x="59" y="470"/>
    </contour>
    <contour>
      <point x="458" y="41" type="curve" smooth="yes"/>
      <point x="478" y="83"/>
      <point x="490" y="124"/>
      <point x="490" y="180" type="curve" smooth="yes"/>
      <point x="490" y="263"/>
      <point x="443" y="356"/>
      <point x="332" y="407" type="curve" smooth="yes"/>
      <point x="316" y="415"/>
      <point x="309" y="435"/>
      <point x="316" y="451" type="curve" smooth="yes"/>
      <point x="324" y="467"/>
      <point x="344" y="474"/>
      <point x="360" y="467" type="curve" smooth="yes"/>
      <point x="499" y="402"/>
      <point x="556" y="283"/>
      <point x="556" y="180" type="curve" smooth="yes"/>
      <point x="556" y="112"/>
      <point x="542" y="63"/>
      <point x="518" y="13" type="curve" smooth="yes"/>
      <point x="510" y="-3"/>
      <point x="490" y="-10"/>
      <point x="474" y="-3" type="curve" smooth="yes"/>
      <point x="458" y="5"/>
      <point x="451" y="25"/>
    </contour>
    <contour>
      <point x="302" y="407" type="curve" smooth="yes"/>
      <point x="193" y="357"/>
      <point x="151" y="263"/>
      <point x="151" y="180" type="curve" smooth="yes"/>
      <point x="151" y="125"/>
      <point x="162" y="82"/>
      <point x="182" y="42" type="curve" smooth="yes"/>
      <point x="191" y="26"/>
      <point x="184" y="6"/>
      <point x="168" y="-2" type="curve" smooth="yes"/>
      <point x="152" y="-11"/>
      <point x="132" y="-4"/>
      <point x="124" y="12" type="curve" smooth="yes"/>
      <point x="98" y="60"/>
      <point x="85" y="113"/>
      <point x="85" y="180" type="curve" smooth="yes"/>
      <point x="85" y="285"/>
      <point x="137" y="403"/>
      <point x="274" y="467" type="curve" smooth="yes"/>
      <point x="290" y="474"/>
      <point x="310" y="467"/>
      <point x="318" y="451" type="curve" smooth="yes"/>
      <point x="325" y="435"/>
      <point x="318" y="415"/>
    </contour>
  </outline>
</glyph>
<glyph name="knGHA" format="1">
  <advance width="817"/>
  <unicode hex="0C98"/>
  <outline>
    <contour>
      <point x="368" y="448" type="curve" smooth="yes"/>
      <point x="441" y="448"/>
      <point x="486" y="396"/>
      <point x="486" y="334" type="curve" smooth="yes"/>
      <point x="486" y="270"/>
      <point x="441" y="220"/>
      <point x="369" y="220" type="curve" smooth="yes"/>
      <point x="298" y="220"/>
      <point x="252" y="272"/>
      <point x="252" y="333" type="curve" smooth="yes"/>
      <point x="252" y="397"/>
      <point x="301" y="448"/>
    </contour>
    <contour>
      <point x="747" y="356" type="curve" smooth="yes"/>
      <point x="760" y="334"/>
      <point x="767" y="317"/>
      <point x="767" y="282" type="curve" smooth="yes"/>
      <point x="767" y="230"/>
      <point x="721" y="177"/>
      <point x="660" y="177" type="curve" smooth="yes"/>
      <point x="628" y="177"/>
      <point x="599" y="189"/>
      <point x="573" y="209" type="curve" smooth="yes"/>
      <point x="559" y="219"/>
      <point x="556" y="241"/>
      <point x="567" y="255" type="curve" smooth="yes"/>
      <point x="577" y="269"/>
      <point x="599" y="272"/>
      <point x="613" y="261" type="curve" smooth="yes"/>
      <point x="627" y="251"/>
      <point x="642" y="243"/>
      <point x="660" y="243" type="curve" smooth="yes"/>
      <point x="683" y="243"/>
      <point x="701" y="262"/>
      <point x="701" y="282" type="curve" smooth="yes"/>
      <point x="701" y="301"/>
      <point x="698" y="310"/>
      <point x="691" y="322" type="curve" smooth="yes"/>
      <point x="682" y="338"/>
      <point x="687" y="358"/>
      <point x="702" y="367" type="curve" smooth="yes"/>
      <point x="718" y="376"/>
      <point x="738" y="371"/>
    </contour>
    <contour>
      <point x="402" y="-89" type="curve" smooth="yes"/>
      <point x="402" y="-192" type="line" smooth="yes"/>
      <point x="402" y="-210"/>
      <point x="387" y="-225"/>
      <point x="369" y="-225" type="curve" smooth="yes"/>
      <point x="351" y="-225"/>
      <point x="336" y="-210"/>
      <point x="336" y="-192" type="curve" smooth="yes"/>
      <point x="336" y="-89" type="line" smooth="yes"/>
      <point x="336" y="-71"/>
      <point x="351" y="-56"/>
      <point x="369" y="-56" type="curve" smooth="yes"/>
      <point x="387" y="-56"/>
      <point x="402" y="-71"/>
    </contour>
    <contour>
      <point x="91" y="470" type="curve" smooth="yes"/>
      <point x="526" y="470" type="line" smooth="yes"/>
      <point x="585" y="470"/>
      <point x="620" y="490"/>
      <point x="646" y="532" type="curve" smooth="yes"/>
      <point x="655" y="547"/>
      <point x="676" y="552"/>
      <point x="691" y="543" type="curve" smooth="yes"/>
      <point x="706" y="534"/>
      <point x="711" y="513"/>
      <point x="702" y="498" type="curve" smooth="yes"/>
      <point x="664" y="436"/>
      <point x="613" y="404"/>
      <point x="526" y="404" type="curve" smooth="yes"/>
      <point x="91" y="404" type="line" smooth="yes"/>
      <point x="73" y="404"/>
      <point x="58" y="419"/>
      <point x="58" y="437" type="curve" smooth="yes"/>
      <point x="58" y="455"/>
      <point x="73" y="470"/>
    </contour>
    <contour>
      <point x="368" y="382" type="curve" smooth="yes"/>
      <point x="339" y="382"/>
      <point x="318" y="361"/>
      <point x="318" y="333" type="curve" smooth="yes"/>
      <point x="318" y="306"/>
      <point x="340" y="286"/>
      <point x="369" y="286" type="curve" smooth="yes"/>
      <point x="399" y="286"/>
      <point x="420" y="306"/>
      <point x="420" y="334" type="curve" smooth="yes"/>
      <point x="420" y="362"/>
      <point x="399" y="382"/>
    </contour>
    <contour>
      <point x="189" y="187" type="curve" smooth="yes"/>
      <point x="147" y="181"/>
      <point x="121" y="156"/>
      <point x="121" y="122" type="curve" smooth="yes"/>
      <point x="121" y="84"/>
      <point x="157" y="58"/>
      <point x="207" y="58" type="curve" smooth="yes"/>
      <point x="264" y="58"/>
      <point x="300" y="89"/>
      <point x="339" y="147" type="curve" smooth="yes"/>
      <point x="344" y="155"/>
      <point x="356" y="161"/>
      <point x="366" y="161" type="curve" smooth="yes"/>
      <point x="371" y="161" type="line" smooth="yes"/>
      <point x="381" y="161"/>
      <point x="393" y="154"/>
      <point x="399" y="146" type="curve" smooth="yes"/>
      <point x="433" y="92"/>
      <point x="471" y="60"/>
      <point x="532" y="60" type="curve" smooth="yes"/>
      <point x="581" y="60"/>
      <point x="614" y="91"/>
      <point x="614" y="129" type="curve" smooth="yes"/>
      <point x="614" y="165"/>
      <point x="592" y="194"/>
      <point x="566" y="213" type="curve" smooth="yes"/>
      <point x="552" y="224"/>
      <point x="549" y="245"/>
      <point x="559" y="260" type="curve" smooth="yes"/>
      <point x="570" y="274"/>
      <point x="591" y="277"/>
      <point x="606" y="267" type="curve" smooth="yes"/>
      <point x="648" y="236"/>
      <point x="680" y="187"/>
      <point x="680" y="129" type="curve" smooth="yes"/>
      <point x="680" y="61"/>
      <point x="627" y="-6"/>
      <point x="532" y="-6" type="curve" smooth="yes"/>
      <point x="447" y="-6"/>
      <point x="393" y="34"/>
      <point x="343" y="110" type="curve"/>
      <point x="371" y="95" type="line"/>
      <point x="366" y="95" type="line"/>
      <point x="393" y="109" type="line"/>
      <point x="338" y="29"/>
      <point x="286" y="-8"/>
      <point x="207" y="-8" type="curve" smooth="yes"/>
      <point x="105" y="-8"/>
      <point x="55" y="54"/>
      <point x="55" y="122" type="curve"/>
      <point x="55" y="184"/>
      <point x="97" y="241"/>
      <point x="179" y="253" type="curve" smooth="yes"/>
      <point x="197" y="255"/>
      <point x="214" y="242"/>
      <point x="217" y="225" type="curve" smooth="yes"/>
      <point x="219" y="207"/>
      <point x="206" y="190"/>
    </contour>
    <component base="knPha" xOffset="10"/>
    <component base="knPha" xOffset="10"/>
  </outline>
</glyph>
<glyph name="knNGA" format="1">
  <advance width="716"/>
  <unicode hex="0C99"/>
  <outline>
    <contour>
      <point x="433" y="412" type="curve" smooth="yes"/>
      <point x="495" y="412"/>
      <point x="530" y="368"/>
      <point x="530" y="318" type="curve" smooth="yes"/>
      <point x="530" y="268"/>
      <point x="494" y="224"/>
      <point x="434" y="224" type="curve" smooth="yes"/>
      <point x="380" y="224"/>
      <point x="339" y="267"/>
      <point x="339" y="318" type="curve" smooth="yes"/>
      <point x="339" y="369"/>
      <point x="381" y="412"/>
    </contour>
    <contour>
      <point x="220" y="360" type="curve" smooth="yes"/>
      <point x="300" y="496"/>
      <point x="370" y="538"/>
      <point x="440" y="538" type="curve" smooth="yes"/>
      <point x="526" y="538"/>
      <point x="577" y="494"/>
      <point x="616" y="411" type="curve" smooth="yes"/>
      <point x="623" y="395"/>
      <point x="616" y="375"/>
      <point x="600" y="367" type="curve" smooth="yes"/>
      <point x="584" y="360"/>
      <point x="564" y="367"/>
      <point x="556" y="383" type="curve" smooth="yes"/>
      <point x="531" y="438"/>
      <point x="498" y="472"/>
      <point x="440" y="472" type="curve" smooth="yes"/>
      <point x="386" y="472"/>
      <point x="336" y="428"/>
      <point x="278" y="326" type="curve" smooth="yes"/>
      <point x="269" y="311"/>
      <point x="248" y="306"/>
      <point x="232" y="314" type="curve" smooth="yes"/>
      <point x="217" y="323"/>
      <point x="212" y="344"/>
    </contour>
    <contour>
      <point x="433" y="346" type="curve" smooth="yes"/>
      <point x="417" y="346"/>
      <point x="405" y="333"/>
      <point x="405" y="318" type="curve" smooth="yes"/>
      <point x="405" y="303"/>
      <point x="418" y="290"/>
      <point x="434" y="290" type="curve" smooth="yes"/>
      <point x="452" y="290"/>
      <point x="464" y="302"/>
      <point x="464" y="318" type="curve" smooth="yes"/>
      <point x="464" y="334"/>
      <point x="451" y="346"/>
    </contour>
    <component base="knO"/>
    <component base="knO"/>
  </outline>
</glyph>
<glyph name="knCA" format="1">
  <advance width="780"/>
  <unicode hex="0C9A"/>
  <outline>
    <contour>
      <point x="420" y="312" type="curve" smooth="yes"/>
      <point x="702" y="312" type="line" smooth="yes"/>
      <point x="720" y="312"/>
      <point x="735" y="297"/>
      <point x="735" y="279" type="curve" smooth="yes"/>
      <point x="735" y="261"/>
      <point x="720" y="246"/>
      <point x="702" y="246" type="curve" smooth="yes"/>
      <point x="420" y="246" type="line" smooth="yes"/>
      <point x="402" y="246"/>
      <point x="387" y="261"/>
      <point x="387" y="279" type="curve" smooth="yes"/>
      <point x="387" y="297"/>
      <point x="402" y="312"/>
    </contour>
    <contour>
      <point x="422" y="470" type="curve" smooth="yes"/>
      <point x="579" y="470" type="line" smooth="yes"/>
      <point x="638" y="470"/>
      <point x="673" y="490"/>
      <point x="699" y="532" type="curve" smooth="yes"/>
      <point x="708" y="547"/>
      <point x="729" y="552"/>
      <point x="744" y="543" type="curve" smooth="yes"/>
      <point x="759" y="534"/>
      <point x="764" y="513"/>
      <point x="755" y="498" type="curve" smooth="yes"/>
      <point x="717" y="436"/>
      <point x="666" y="404"/>
      <point x="579" y="404" type="curve" smooth="yes"/>
      <point x="422" y="404" type="line" smooth="yes"/>
      <point x="404" y="404"/>
      <point x="389" y="419"/>
      <point x="389" y="437" type="curve" smooth="yes"/>
      <point x="389" y="455"/>
      <point x="404" y="470"/>
    </contour>
    <contour>
      <point x="539" y="285" type="curve" smooth="yes"/>
      <point x="539" y="409" type="line" smooth="yes"/>
      <point x="539" y="427"/>
      <point x="554" y="442"/>
      <point x="572" y="442" type="curve" smooth="yes"/>
      <point x="590" y="442"/>
      <point x="605" y="427"/>
      <point x="605" y="409" type="curve" smooth="yes"/>
      <point x="605" y="285" type="line" smooth="yes"/>
      <point x="605" y="267"/>
      <point x="590" y="252"/>
      <point x="572" y="252" type="curve" smooth="yes"/>
      <point x="554" y="252"/>
      <point x="539" y="267"/>
    </contour>
    <component base="knO" yOffset="2"/>
    <component base="knO" yOffset="2"/>
  </outline>
</glyph>
<glyph name="knCHA" format="1">
  <advance width="754"/>
  <unicode hex="0C9B"/>
  <outline>
    <contour>
      <point x="455" y="470" type="curve" smooth="yes"/>
      <point x="559" y="470" type="line" smooth="yes"/>
      <point x="618" y="470"/>
      <point x="653" y="490"/>
      <point x="679" y="532" type="curve" smooth="yes"/>
      <point x="688" y="547"/>
      <point x="709" y="552"/>
      <point x="724" y="543" type="curve" smooth="yes"/>
      <point x="739" y="534"/>
      <point x="744" y="513"/>
      <point x="735" y="498" type="curve" smooth="yes"/>
      <point x="697" y="436"/>
      <point x="646" y="404"/>
      <point x="559" y="404" type="curve" smooth="yes"/>
      <point x="455" y="404" type="line" smooth="yes"/>
      <point x="437" y="404"/>
      <point x="422" y="419"/>
      <point x="422" y="437" type="curve" smooth="yes"/>
      <point x="422" y="455"/>
      <point x="437" y="470"/>
    </contour>
    <contour>
      <point x="424" y="-89" type="curve" smooth="yes"/>
      <point x="424" y="-192" type="line" smooth="yes"/>
      <point x="424" y="-210"/>
      <point x="409" y="-225"/>
      <point x="391" y="-225" type="curve" smooth="yes"/>
      <point x="373" y="-225"/>
      <point x="358" y="-210"/>
      <point x="358" y="-192" type="curve" smooth="yes"/>
      <point x="358" y="-89" type="line" smooth="yes"/>
      <point x="358" y="-71"/>
      <point x="373" y="-56"/>
      <point x="391" y="-56" type="curve" smooth="yes"/>
      <point x="409" y="-56"/>
      <point x="424" y="-71"/>
    </contour>
    <contour>
      <point x="142" y="372" type="curve" smooth="yes"/>
      <point x="163" y="341"/>
      <point x="187" y="319"/>
      <point x="219" y="319" type="curve" smooth="yes"/>
      <point x="248" y="319"/>
      <point x="274" y="337"/>
      <point x="274" y="368" type="curve" smooth="yes"/>
      <point x="274" y="399"/>
      <point x="252" y="419"/>
      <point x="219" y="419" type="curve" smooth="yes"/>
      <point x="160" y="419"/>
      <point x="122" y="321"/>
      <point x="122" y="229" type="curve" smooth="yes"/>
      <point x="122" y="137"/>
      <point x="167" y="61"/>
      <point x="246" y="60" type="curve" smooth="yes"/>
      <point x="299" y="59"/>
      <point x="330" y="89"/>
      <point x="359" y="144" type="curve" smooth="yes"/>
      <point x="364" y="153"/>
      <point x="377" y="161"/>
      <point x="388" y="161" type="curve" smooth="yes"/>
      <point x="393" y="161" type="line" smooth="yes"/>
      <point x="404" y="161"/>
      <point x="416" y="154"/>
      <point x="422" y="144" type="curve" smooth="yes"/>
      <point x="452" y="90"/>
      <point x="489" y="60"/>
      <point x="542" y="60" type="curve" smooth="yes"/>
      <point x="600" y="60"/>
      <point x="639" y="114"/>
      <point x="639" y="183" type="curve" smooth="yes"/>
      <point x="639" y="269"/>
      <point x="601" y="345"/>
      <point x="511" y="410" type="curve" smooth="yes"/>
      <point x="496" y="421"/>
      <point x="493" y="442"/>
      <point x="503" y="456" type="curve" smooth="yes"/>
      <point x="514" y="471"/>
      <point x="535" y="474"/>
      <point x="549" y="464" type="curve" smooth="yes"/>
      <point x="661" y="383"/>
      <point x="705" y="289"/>
      <point x="705" y="183" type="curve" smooth="yes"/>
      <point x="705" y="66"/>
      <point x="630" y="-6"/>
      <point x="542" y="-6" type="curve" smooth="yes"/>
      <point x="467" y="-6"/>
      <point x="410" y="32"/>
      <point x="364" y="112" type="curve"/>
      <point x="393" y="95" type="line"/>
      <point x="388" y="95" type="line"/>
      <point x="417" y="112" type="line"/>
      <point x="372" y="29"/>
      <point x="323" y="-7"/>
      <point x="246" y="-6" type="curve" smooth="yes"/>
      <point x="135" y="-5"/>
      <point x="56" y="89"/>
      <point x="56" y="229" type="curve"/>
      <point x="56" y="383"/>
      <point x="140" y="485"/>
      <point x="219" y="485" type="curve" smooth="yes"/>
      <point x="296" y="485"/>
      <point x="340" y="435"/>
      <point x="340" y="368" type="curve" smooth="yes"/>
      <point x="340" y="299"/>
      <point x="286" y="253"/>
      <point x="219" y="253" type="curve" smooth="yes"/>
      <point x="167" y="253"/>
      <point x="123" y="283"/>
      <point x="88" y="336" type="curve" smooth="yes"/>
      <point x="78" y="351"/>
      <point x="82" y="372"/>
      <point x="97" y="381" type="curve" smooth="yes"/>
      <point x="112" y="391"/>
      <point x="133" y="387"/>
    </contour>
  </outline>
</glyph>
<glyph name="knJA" format="1">
  <advance width="716"/>
  <unicode hex="0C9C"/>
  <outline>
    <contour>
      <point x="525" y="461" type="curve" smooth="yes"/>
      <point x="555" y="434"/>
      <point x="574" y="399"/>
      <point x="574" y="361" type="curve" smooth="yes"/>
      <point x="574" y="295"/>
      <point x="527" y="241"/>
      <point x="448" y="241" type="curve" smooth="yes"/>
      <point x="372" y="241"/>
      <point x="296" y="289"/>
      <point x="218" y="395" type="curve" smooth="yes"/>
      <point x="208" y="410"/>
      <point x="211" y="431"/>
      <point x="225" y="442" type="curve" smooth="yes"/>
      <point x="240" y="452"/>
      <point x="261" y="449"/>
      <point x="272" y="435" type="curve" smooth="yes"/>
      <point x="332" y="353"/>
      <point x="388" y="307"/>
      <point x="448" y="307" type="curve" smooth="yes"/>
      <point x="483" y="307"/>
      <point x="508" y="329"/>
      <point x="508" y="361" type="curve" smooth="yes"/>
      <point x="508" y="381"/>
      <point x="497" y="398"/>
      <point x="481" y="411" type="curve" smooth="yes"/>
      <point x="468" y="423"/>
      <point x="466" y="444"/>
      <point x="478" y="458" type="curve" smooth="yes"/>
      <point x="490" y="471"/>
      <point x="511" y="473"/>
    </contour>
    <component base="knO"/>
    <component base="knO"/>
  </outline>
</glyph>
<glyph name="knJHA" format="1">
  <advance width="1207"/>
  <unicode hex="0C9D"/>
  <outline>
    <contour>
      <point x="864" y="-89" type="curve" smooth="yes"/>
      <point x="864" y="-192" type="line" smooth="yes"/>
      <point x="864" y="-210"/>
      <point x="849" y="-225"/>
      <point x="831" y="-225" type="curve" smooth="yes"/>
      <point x="813" y="-225"/>
      <point x="798" y="-210"/>
      <point x="798" y="-192" type="curve" smooth="yes"/>
      <point x="798" y="-89" type="line" smooth="yes"/>
      <point x="798" y="-71"/>
      <point x="813" y="-56"/>
      <point x="831" y="-56" type="curve" smooth="yes"/>
      <point x="849" y="-56"/>
      <point x="864" y="-71"/>
    </contour>
    <component base="knRa" xOffset="62" yOffset="-132"/>
    <component base="knRA"/>
<<<<<<< HEAD
    <component base="knmU" xOffset="620"/>
    <component base="knmU" xOffset="910"/>
    <component base="knUsign" xOffset="911"/>
    <component base="knUsign" xOffset="632"/>
    <component base="knRa"/>
    <component base="knRA"/>
    <component base="knmU" xOffset="620"/>
    <component base="knmU" xOffset="910"/>
=======
    <component base="knmU" xOffset="616"/>
    <component base="knmU" xOffset="927"/>
    <component base="knRa" xOffset="62" yOffset="-132"/>
    <component base="knRA"/>
    <component base="knmU" xOffset="616"/>
    <component base="knmU" xOffset="927"/>
>>>>>>> reforming
  </outline>
</glyph>
<glyph name="knNYA" format="1">
  <advance width="897"/>
  <unicode hex="0C9E"/>
  <outline>
    <contour>
      <point x="572" y="368" type="curve" smooth="yes"/>
      <point x="593" y="419"/>
      <point x="646" y="477"/>
      <point x="712" y="477" type="curve" smooth="yes"/>
      <point x="805" y="477"/>
      <point x="843" y="403"/>
      <point x="843" y="350" type="curve" smooth="yes"/>
      <point x="843" y="313"/>
      <point x="836" y="286"/>
      <point x="824" y="252" type="curve" smooth="yes"/>
      <point x="819" y="235"/>
      <point x="800" y="225"/>
      <point x="783" y="231" type="curve" smooth="yes"/>
      <point x="766" y="236"/>
      <point x="756" y="255"/>
      <point x="762" y="272" type="curve" smooth="yes"/>
      <point x="770" y="300"/>
      <point x="777" y="321"/>
      <point x="777" y="350" type="curve" smooth="yes"/>
      <point x="777" y="377"/>
      <point x="757" y="411"/>
      <point x="712" y="411" type="curve" smooth="yes"/>
      <point x="672" y="411"/>
      <point x="645" y="373"/>
      <point x="634" y="344" type="curve" smooth="yes"/>
      <point x="627" y="327"/>
      <point x="607" y="319"/>
      <point x="591" y="325" type="curve" smooth="yes"/>
      <point x="574" y="332"/>
      <point x="566" y="352"/>
    </contour>
    <component base="knI"/>
    <component base="knI"/>
  </outline>
</glyph>
<glyph name="knTTA" format="1">
  <advance width="739"/>
  <unicode hex="0C9F"/>
  <outline>
    <contour>
      <point x="507" y="317" type="curve" smooth="yes"/>
      <point x="564" y="325"/>
      <point x="588" y="347"/>
      <point x="588" y="380" type="curve" smooth="yes"/>
      <point x="588" y="412"/>
      <point x="562" y="440"/>
      <point x="522" y="455" type="curve" smooth="yes"/>
      <point x="505" y="462"/>
      <point x="497" y="481"/>
      <point x="503" y="498" type="curve" smooth="yes"/>
      <point x="510" y="515"/>
      <point x="529" y="523"/>
      <point x="546" y="517" type="curve" smooth="yes"/>
      <point x="618" y="488"/>
      <point x="654" y="434"/>
      <point x="654" y="380" type="curve" smooth="yes"/>
      <point x="654" y="323"/>
      <point x="632" y="269"/>
      <point x="517" y="251" type="curve" smooth="yes"/>
      <point x="499" y="249"/>
      <point x="482" y="261"/>
      <point x="479" y="279" type="curve" smooth="yes"/>
      <point x="477" y="297"/>
      <point x="489" y="314"/>
    </contour>
    <contour>
      <point x="215" y="460" type="curve" smooth="yes"/>
      <point x="188" y="453"/>
      <point x="174" y="435"/>
      <point x="173" y="417" type="curve" smooth="yes"/>
      <point x="172" y="400"/>
      <point x="182" y="379"/>
      <point x="215" y="371" type="curve" smooth="yes"/>
      <point x="232" y="367"/>
      <point x="243" y="348"/>
      <point x="239" y="331" type="curve" smooth="yes"/>
      <point x="235" y="314"/>
      <point x="216" y="303"/>
      <point x="199" y="307" type="curve" smooth="yes"/>
      <point x="118" y="327"/>
      <point x="106" y="380"/>
      <point x="107" y="419" type="curve" smooth="yes"/>
      <point x="108" y="459"/>
      <point x="134" y="507"/>
      <point x="197" y="524" type="curve" smooth="yes"/>
      <point x="215" y="528"/>
      <point x="233" y="518"/>
      <point x="238" y="501" type="curve" smooth="yes"/>
      <point x="242" y="483"/>
      <point x="232" y="465"/>
    </contour>
    <contour>
      <point x="137" y="266" type="curve" smooth="yes"/>
      <point x="156" y="239"/>
      <point x="178" y="221"/>
      <point x="203" y="221" type="curve" smooth="yes"/>
      <point x="227" y="221"/>
      <point x="250" y="236"/>
      <point x="250" y="264" type="curve" smooth="yes"/>
      <point x="250" y="289"/>
      <point x="231" y="306"/>
      <point x="206" y="306" type="curve" smooth="yes"/>
      <point x="163" y="306"/>
      <point x="124" y="244"/>
      <point x="124" y="178" type="curve" smooth="yes"/>
      <point x="124" y="103"/>
      <point x="164" y="60"/>
      <point x="224" y="60" type="curve" smooth="yes"/>
      <point x="283" y="60"/>
      <point x="322" y="92"/>
      <point x="347" y="143" type="curve" smooth="yes"/>
      <point x="352" y="153"/>
      <point x="366" y="161"/>
      <point x="377" y="161" type="curve" smooth="yes"/>
      <point x="382" y="161" type="line" smooth="yes"/>
      <point x="392" y="161"/>
      <point x="405" y="154"/>
      <point x="410" y="145" type="curve" smooth="yes"/>
      <point x="441" y="94"/>
      <point x="477" y="60"/>
      <point x="530" y="60" type="curve" smooth="yes"/>
      <point x="588" y="60"/>
      <point x="621" y="90"/>
      <point x="621" y="141" type="curve" smooth="yes"/>
      <point x="621" y="193"/>
      <point x="579" y="236"/>
      <point x="505" y="251" type="curve"/>
      <point x="504" y="251"/>
      <point x="506" y="250"/>
      <point x="504" y="250" type="curve" smooth="yes"/>
      <point x="486" y="250"/>
      <point x="471" y="265"/>
      <point x="471" y="283" type="curve" smooth="yes"/>
      <point x="471" y="301"/>
      <point x="486" y="316"/>
      <point x="504" y="316" type="curve" smooth="yes"/>
      <point x="524" y="316"/>
      <point x="506" y="317"/>
      <point x="517" y="315" type="curve" smooth="yes"/>
      <point x="635" y="292"/>
      <point x="687" y="219"/>
      <point x="687" y="141" type="curve" smooth="yes"/>
      <point x="687" y="54"/>
      <point x="636" y="-6"/>
      <point x="530" y="-6" type="curve" smooth="yes"/>
      <point x="455" y="-6"/>
      <point x="399" y="36"/>
      <point x="354" y="111" type="curve"/>
      <point x="382" y="95" type="line"/>
      <point x="377" y="95" type="line"/>
      <point x="407" y="113" type="line"/>
      <point x="370" y="38"/>
      <point x="309" y="-6"/>
      <point x="224" y="-6" type="curve" smooth="yes"/>
      <point x="130" y="-6"/>
      <point x="58" y="53"/>
      <point x="58" y="178" type="curve"/>
      <point x="58" y="296"/>
      <point x="141" y="372"/>
      <point x="206" y="372" type="curve" smooth="yes"/>
      <point x="271" y="372"/>
      <point x="316" y="325"/>
      <point x="316" y="264" type="curve" smooth="yes"/>
      <point x="316" y="198"/>
      <point x="265" y="155"/>
      <point x="203" y="155" type="curve" smooth="yes"/>
      <point x="160" y="155"/>
      <point x="116" y="179"/>
      <point x="83" y="230" type="curve" smooth="yes"/>
      <point x="73" y="245"/>
      <point x="77" y="266"/>
      <point x="92" y="275" type="curve" smooth="yes"/>
      <point x="107" y="285"/>
      <point x="128" y="281"/>
    </contour>
  </outline>
</glyph>
<glyph name="knTTHA" format="1">
  <advance width="639"/>
  <unicode hex="0CA0"/>
  <outline>
    <contour>
      <point x="81" y="224" type="curve" smooth="yes"/>
      <point x="81" y="348"/>
      <point x="186" y="470"/>
      <point x="338" y="470" type="curve" smooth="yes"/>
      <point x="493" y="470"/>
      <point x="594" y="346"/>
      <point x="594" y="224" type="curve" smooth="yes"/>
      <point x="594" y="93"/>
      <point x="499" y="-16"/>
      <point x="338" y="-16" type="curve" smooth="yes"/>
      <point x="179" y="-16"/>
      <point x="81" y="91"/>
    </contour>
    <contour>
      <point x="336" y="330" type="curve" smooth="yes"/>
      <point x="395" y="330"/>
      <point x="435" y="280"/>
      <point x="435" y="232" type="curve" smooth="yes"/>
      <point x="435" y="177"/>
      <point x="395" y="134"/>
      <point x="336" y="134" type="curve" smooth="yes"/>
      <point x="279" y="134"/>
      <point x="237" y="178"/>
      <point x="237" y="233" type="curve" smooth="yes"/>
      <point x="237" y="280"/>
      <point x="278" y="330"/>
    </contour>
    <contour>
      <point x="98" y="470" type="curve" smooth="yes"/>
      <point x="463" y="470" type="line" smooth="yes"/>
      <point x="522" y="470"/>
      <point x="557" y="490"/>
      <point x="583" y="532" type="curve" smooth="yes"/>
      <point x="592" y="547"/>
      <point x="613" y="552"/>
      <point x="628" y="543" type="curve" smooth="yes"/>
      <point x="643" y="534"/>
      <point x="648" y="513"/>
      <point x="639" y="498" type="curve" smooth="yes"/>
      <point x="601" y="436"/>
      <point x="550" y="404"/>
      <point x="463" y="404" type="curve" smooth="yes"/>
      <point x="98" y="404" type="line" smooth="yes"/>
      <point x="80" y="404"/>
      <point x="65" y="419"/>
      <point x="65" y="437" type="curve" smooth="yes"/>
      <point x="65" y="455"/>
      <point x="80" y="470"/>
    </contour>
    <contour>
      <point x="147" y="224" type="curve" smooth="yes"/>
      <point x="147" y="125"/>
      <point x="223" y="50"/>
      <point x="338" y="50" type="curve" smooth="yes"/>
      <point x="455" y="50"/>
      <point x="528" y="127"/>
      <point x="528" y="224" type="curve" smooth="yes"/>
      <point x="528" y="314"/>
      <point x="451" y="404"/>
      <point x="338" y="404" type="curve" smooth="yes"/>
      <point x="227" y="404"/>
      <point x="147" y="316"/>
    </contour>
    <contour>
      <point x="336" y="264" type="curve" smooth="yes"/>
      <point x="318" y="264"/>
      <point x="303" y="249"/>
      <point x="303" y="233" type="curve" smooth="yes"/>
      <point x="303" y="215"/>
      <point x="317" y="200"/>
      <point x="336" y="200" type="curve" smooth="yes"/>
      <point x="355" y="200"/>
      <point x="369" y="214"/>
      <point x="369" y="232" type="curve" smooth="yes"/>
      <point x="369" y="248"/>
      <point x="355" y="264"/>
    </contour>
  </outline>
</glyph>
<glyph name="knDDA" format="1">
  <advance width="740"/>
  <unicode hex="0CA1"/>
  <outline>
    <contour>
      <point x="524" y="365" type="curve" smooth="yes"/>
      <point x="595" y="365"/>
      <point x="637" y="316"/>
      <point x="637" y="257" type="curve" smooth="yes"/>
      <point x="637" y="196"/>
      <point x="594" y="149"/>
      <point x="525" y="149" type="curve" smooth="yes"/>
      <point x="456" y="149"/>
      <point x="412" y="198"/>
      <point x="412" y="256" type="curve" smooth="yes"/>
      <point x="412" y="317"/>
      <point x="458" y="365"/>
    </contour>
    <contour>
      <point x="93" y="470" type="curve" smooth="yes"/>
      <point x="513" y="470" type="line" smooth="yes"/>
      <point x="572" y="470"/>
      <point x="607" y="490"/>
      <point x="633" y="532" type="curve" smooth="yes"/>
      <point x="642" y="547"/>
      <point x="663" y="552"/>
      <point x="678" y="543" type="curve" smooth="yes"/>
      <point x="693" y="534"/>
      <point x="698" y="513"/>
      <point x="689" y="498" type="curve" smooth="yes"/>
      <point x="651" y="436"/>
      <point x="600" y="404"/>
      <point x="513" y="404" type="curve" smooth="yes"/>
      <point x="93" y="404" type="line" smooth="yes"/>
      <point x="75" y="404"/>
      <point x="60" y="419"/>
      <point x="60" y="437" type="curve" smooth="yes"/>
      <point x="60" y="455"/>
      <point x="75" y="470"/>
    </contour>
    <contour>
      <point x="297" y="407" type="curve" smooth="yes"/>
      <point x="187" y="358"/>
      <point x="124" y="259"/>
      <point x="124" y="168" type="curve" smooth="yes"/>
      <point x="124" y="101"/>
      <point x="166" y="60"/>
      <point x="218" y="60" type="curve" smooth="yes"/>
      <point x="271" y="60"/>
      <point x="301" y="90"/>
      <point x="330" y="143" type="curve" smooth="yes"/>
      <point x="335" y="153"/>
      <point x="348" y="161"/>
      <point x="359" y="161" type="curve" smooth="yes"/>
      <point x="364" y="161" type="line" smooth="yes"/>
      <point x="375" y="161"/>
      <point x="388" y="153"/>
      <point x="393" y="144" type="curve" smooth="yes"/>
      <point x="424" y="87"/>
      <point x="472" y="60"/>
      <point x="518" y="60" type="curve" smooth="yes"/>
      <point x="586" y="60"/>
      <point x="620" y="103"/>
      <point x="620" y="157" type="curve" smooth="yes"/>
      <point x="620" y="234"/>
      <point x="560" y="329"/>
      <point x="426" y="409" type="curve" smooth="yes"/>
      <point x="411" y="418"/>
      <point x="406" y="439"/>
      <point x="415" y="454" type="curve" smooth="yes"/>
      <point x="424" y="469"/>
      <point x="445" y="474"/>
      <point x="460" y="465" type="curve" smooth="yes"/>
      <point x="624" y="367"/>
      <point x="686" y="248"/>
      <point x="686" y="157" type="curve" smooth="yes"/>
      <point x="686" y="67"/>
      <point x="632" y="-6"/>
      <point x="518" y="-6" type="curve" smooth="yes"/>
      <point x="452" y="-6"/>
      <point x="380" y="29"/>
      <point x="335" y="112" type="curve"/>
      <point x="364" y="95" type="line"/>
      <point x="359" y="95" type="line"/>
      <point x="388" y="113" type="line"/>
      <point x="345" y="30"/>
      <point x="295" y="-6"/>
      <point x="218" y="-6" type="curve" smooth="yes"/>
      <point x="134" y="-6"/>
      <point x="58" y="55"/>
      <point x="58" y="168" type="curve"/>
      <point x="58" y="281"/>
      <point x="133" y="406"/>
      <point x="271" y="467" type="curve" smooth="yes"/>
      <point x="287" y="474"/>
      <point x="307" y="467"/>
      <point x="314" y="450" type="curve" smooth="yes"/>
      <point x="321" y="434"/>
      <point x="314" y="414"/>
    </contour>
    <contour>
      <point x="524" y="299" type="curve" smooth="yes"/>
      <point x="498" y="299"/>
      <point x="478" y="281"/>
      <point x="478" y="256" type="curve" smooth="yes"/>
      <point x="478" y="232"/>
      <point x="498" y="215"/>
      <point x="525" y="215" type="curve" smooth="yes"/>
      <point x="552" y="215"/>
      <point x="571" y="232"/>
      <point x="571" y="257" type="curve" smooth="yes"/>
      <point x="571" y="282"/>
      <point x="551" y="299"/>
    </contour>
  </outline>
</glyph>
<glyph name="knDDHA" format="1">
  <advance width="740"/>
  <unicode hex="0CA2"/>
  <outline>
    <contour>
      <point x="394" y="-89" type="curve" smooth="yes"/>
      <point x="394" y="-192" type="line" smooth="yes"/>
      <point x="394" y="-210"/>
      <point x="379" y="-225"/>
      <point x="361" y="-225" type="curve" smooth="yes"/>
      <point x="343" y="-225"/>
      <point x="328" y="-210"/>
      <point x="328" y="-192" type="curve" smooth="yes"/>
      <point x="328" y="-89" type="line" smooth="yes"/>
      <point x="328" y="-71"/>
      <point x="343" y="-56"/>
      <point x="361" y="-56" type="curve" smooth="yes"/>
      <point x="379" y="-56"/>
      <point x="394" y="-71"/>
    </contour>
    <component base="knDda"/>
    <component base="knDda"/>
    <component base="knDDA"/>
    <component base="knDda"/>
    <component base="knDda"/>
    <component base="knDDA"/>
  </outline>
</glyph>
<glyph name="knNNA" format="1">
  <advance width="760"/>
  <unicode hex="0CA3"/>
  <outline>
    <contour>
      <point x="227" y="196" type="curve" smooth="yes"/>
      <point x="185" y="197"/>
      <point x="134" y="174"/>
      <point x="134" y="128" type="curve" smooth="yes"/>
      <point x="134" y="83"/>
      <point x="173" y="61"/>
      <point x="225" y="61" type="curve" smooth="yes"/>
      <point x="250" y="61"/>
      <point x="269" y="64"/>
      <point x="285" y="69" type="curve" smooth="yes"/>
      <point x="302" y="74"/>
      <point x="321" y="63"/>
      <point x="326" y="46" type="curve" smooth="yes"/>
      <point x="331" y="29"/>
      <point x="320" y="10"/>
      <point x="303" y="5" type="curve" smooth="yes"/>
      <point x="283" y="0"/>
      <point x="258" y="-5"/>
      <point x="225" y="-5" type="curve" smooth="yes"/>
      <point x="123" y="-5"/>
      <point x="68" y="50"/>
      <point x="68" y="128" type="curve" smooth="yes"/>
      <point x="68" y="208"/>
      <point x="145" y="265"/>
      <point x="229" y="262" type="curve" smooth="yes"/>
      <point x="247" y="261"/>
      <point x="262" y="246"/>
      <point x="261" y="228" type="curve" smooth="yes"/>
      <point x="260" y="210"/>
      <point x="245" y="195"/>
    </contour>
    <contour>
      <point x="626" y="126" type="curve" smooth="yes"/>
      <point x="604" y="150"/>
      <point x="578" y="171"/>
      <point x="539" y="171" type="curve" smooth="yes"/>
      <point x="499" y="171"/>
      <point x="475" y="143"/>
      <point x="475" y="112" type="curve" smooth="yes"/>
      <point x="475" y="79"/>
      <point x="502" y="56"/>
      <point x="534" y="56" type="curve" smooth="yes"/>
      <point x="599" y="56"/>
      <point x="629" y="124"/>
      <point x="628" y="230" type="curve" smooth="yes"/>
      <point x="627" y="343"/>
      <point x="588" y="414"/>
      <point x="522" y="414" type="curve" smooth="yes"/>
      <point x="471" y="414"/>
      <point x="435" y="373"/>
      <point x="407" y="319" type="curve" smooth="yes"/>
      <point x="402" y="309"/>
      <point x="389" y="301"/>
      <point x="378" y="301" type="curve" smooth="yes"/>
      <point x="374" y="301" type="line" smooth="yes"/>
      <point x="362" y="301"/>
      <point x="349" y="309"/>
      <point x="344" y="320" type="curve" smooth="yes"/>
      <point x="319" y="374"/>
      <point x="281" y="412"/>
      <point x="225" y="412" type="curve" smooth="yes"/>
      <point x="176" y="412"/>
      <point x="146" y="379"/>
      <point x="146" y="340" type="curve" smooth="yes"/>
      <point x="146" y="296"/>
      <point x="185" y="262"/>
      <point x="241" y="262" type="curve" smooth="yes"/>
      <point x="245" y="262"/>
      <point x="247" y="262"/>
      <point x="251" y="262" type="curve" smooth="yes"/>
      <point x="269" y="262"/>
      <point x="284" y="247"/>
      <point x="284" y="229" type="curve" smooth="yes"/>
      <point x="284" y="211"/>
      <point x="269" y="196"/>
      <point x="251" y="196" type="curve" smooth="yes"/>
      <point x="247" y="196"/>
      <point x="245" y="196"/>
      <point x="241" y="196" type="curve" smooth="yes"/>
      <point x="139" y="196"/>
      <point x="80" y="266"/>
      <point x="80" y="340" type="curve" smooth="yes"/>
      <point x="80" y="411"/>
      <point x="132" y="478"/>
      <point x="225" y="478" type="curve" smooth="yes"/>
      <point x="307" y="478"/>
      <point x="365" y="430"/>
      <point x="404" y="348" type="curve"/>
      <point x="374" y="367" type="line"/>
      <point x="378" y="367" type="line"/>
      <point x="349" y="349" type="line"/>
      <point x="391" y="431"/>
      <point x="449" y="480"/>
      <point x="522" y="480" type="curve" smooth="yes"/>
      <point x="612" y="480"/>
      <point x="693" y="415"/>
      <point x="694" y="230" type="curve" smooth="yes"/>
      <point x="695" y="50"/>
      <point x="623" y="-10"/>
      <point x="534" y="-10" type="curve" smooth="yes"/>
      <point x="464" y="-10"/>
      <point x="409" y="41"/>
      <point x="409" y="112" type="curve" smooth="yes"/>
      <point x="409" y="175"/>
      <point x="455" y="237"/>
      <point x="539" y="237" type="curve" smooth="yes"/>
      <point x="600" y="237"/>
      <point x="640" y="208"/>
      <point x="674" y="170" type="curve" smooth="yes"/>
      <point x="686" y="157"/>
      <point x="685" y="135"/>
      <point x="672" y="124" type="curve" smooth="yes"/>
      <point x="659" y="112"/>
      <point x="637" y="113"/>
    </contour>
  </outline>
</glyph>
<glyph name="knTA" format="1">
  <advance width="628"/>
  <unicode hex="0CA4"/>
  <outline>
    <contour>
      <point x="85" y="470" type="curve" smooth="yes"/>
      <point x="423" y="470" type="line" smooth="yes"/>
      <point x="482" y="470"/>
      <point x="517" y="490"/>
      <point x="543" y="532" type="curve" smooth="yes"/>
      <point x="552" y="547"/>
      <point x="573" y="552"/>
      <point x="588" y="543" type="curve" smooth="yes"/>
      <point x="603" y="534"/>
      <point x="608" y="513"/>
      <point x="599" y="498" type="curve" smooth="yes"/>
      <point x="561" y="436"/>
      <point x="510" y="404"/>
      <point x="423" y="404" type="curve" smooth="yes"/>
      <point x="85" y="404" type="line" smooth="yes"/>
      <point x="67" y="404"/>
      <point x="52" y="419"/>
      <point x="52" y="437" type="curve" smooth="yes"/>
      <point x="52" y="455"/>
      <point x="67" y="470"/>
    </contour>
    <contour>
      <point x="82" y="154" type="curve" smooth="yes"/>
      <point x="126" y="96"/>
      <point x="200" y="51"/>
      <point x="320" y="51" type="curve" smooth="yes"/>
      <point x="447" y="51"/>
      <point x="524" y="99"/>
      <point x="524" y="168" type="curve" smooth="yes"/>
      <point x="524" y="238"/>
      <point x="447" y="287"/>
      <point x="323" y="287" type="curve" smooth="yes"/>
      <point x="275" y="287"/>
      <point x="236" y="273"/>
      <point x="236" y="245" type="curve" smooth="yes"/>
      <point x="236" y="221"/>
      <point x="265" y="208"/>
      <point x="299" y="207" type="curve" smooth="yes"/>
      <point x="368" y="206"/>
      <point x="405" y="245"/>
      <point x="405" y="293" type="curve" smooth="yes"/>
      <point x="405" y="331"/>
      <point x="391" y="372"/>
      <point x="353" y="415" type="curve" smooth="yes"/>
      <point x="341" y="429"/>
      <point x="343" y="450"/>
      <point x="356" y="462" type="curve" smooth="yes"/>
      <point x="370" y="474"/>
      <point x="391" y="472"/>
      <point x="403" y="459" type="curve" smooth="yes"/>
      <point x="455" y="400"/>
      <point x="471" y="345"/>
      <point x="471" y="293" type="curve" smooth="yes"/>
      <point x="471" y="215"/>
      <point x="420" y="140"/>
      <point x="297" y="141" type="curve" smooth="yes"/>
      <point x="207" y="142"/>
      <point x="170" y="195"/>
      <point x="170" y="245" type="curve" smooth="yes"/>
      <point x="170" y="293"/>
      <point x="199" y="353"/>
      <point x="323" y="353" type="curve" smooth="yes"/>
      <point x="515" y="353"/>
      <point x="590" y="260"/>
      <point x="590" y="168" type="curve" smooth="yes"/>
      <point x="590" y="77"/>
      <point x="519" y="-15"/>
      <point x="320" y="-15" type="curve" smooth="yes"/>
      <point x="172" y="-15"/>
      <point x="82" y="44"/>
      <point x="30" y="114" type="curve" smooth="yes"/>
      <point x="19" y="128"/>
      <point x="22" y="150"/>
      <point x="36" y="160" type="curve" smooth="yes"/>
      <point x="50" y="171"/>
      <point x="72" y="168"/>
    </contour>
  </outline>
</glyph>
<glyph name="knTHA" format="1">
  <advance width="721"/>
  <unicode hex="0CA5"/>
  <outline>
    <contour>
      <point x="386" y="282" type="curve" smooth="yes"/>
      <point x="384" y="279"/>
      <point x="383" y="272"/>
      <point x="383" y="269" type="curve" smooth="yes"/>
      <point x="383" y="264"/>
      <point x="384" y="258"/>
      <point x="387" y="253" type="curve" smooth="yes"/>
      <point x="394" y="237"/>
      <point x="388" y="216"/>
      <point x="372" y="208" type="curve" smooth="yes"/>
      <point x="356" y="201"/>
      <point x="335" y="207"/>
      <point x="327" y="223" type="curve" smooth="yes"/>
      <point x="320" y="238"/>
      <point x="317" y="256"/>
      <point x="317" y="269" type="curve" smooth="yes"/>
      <point x="317" y="278"/>
      <point x="322" y="303"/>
      <point x="328" y="314" type="curve" smooth="yes"/>
      <point x="337" y="330"/>
      <point x="358" y="335"/>
      <point x="373" y="327" type="curve" smooth="yes"/>
      <point x="389" y="318"/>
      <point x="394" y="297"/>
    </contour>
    <component base="knDa"/>
    <component base="knDA"/>
    <component base="knDa"/>
    <component base="knDA"/>
  </outline>
</glyph>
<glyph name="knDA" format="1">
  <advance width="721"/>
  <unicode hex="0CA6"/>
  <outline>
    <contour>
      <point x="96" y="470" type="curve" smooth="yes"/>
      <point x="499" y="470" type="line" smooth="yes"/>
      <point x="558" y="470"/>
      <point x="593" y="490"/>
      <point x="619" y="532" type="curve" smooth="yes"/>
      <point x="628" y="547"/>
      <point x="649" y="552"/>
      <point x="664" y="543" type="curve" smooth="yes"/>
      <point x="679" y="534"/>
      <point x="684" y="513"/>
      <point x="675" y="498" type="curve" smooth="yes"/>
      <point x="637" y="436"/>
      <point x="586" y="404"/>
      <point x="499" y="404" type="curve" smooth="yes"/>
      <point x="96" y="404" type="line" smooth="yes"/>
      <point x="78" y="404"/>
      <point x="63" y="419"/>
      <point x="63" y="437" type="curve" smooth="yes"/>
      <point x="63" y="455"/>
      <point x="78" y="470"/>
    </contour>
    <contour>
      <point x="316" y="407" type="curve" smooth="yes"/>
      <point x="206" y="358"/>
      <point x="124" y="264"/>
      <point x="124" y="172" type="curve" smooth="yes"/>
      <point x="124" y="104"/>
      <point x="160" y="60"/>
      <point x="216" y="60" type="curve" smooth="yes"/>
      <point x="269" y="60"/>
      <point x="298" y="90"/>
      <point x="326" y="143" type="curve" smooth="yes"/>
      <point x="331" y="153"/>
      <point x="344" y="161"/>
      <point x="355" y="161" type="curve" smooth="yes"/>
      <point x="360" y="161" type="line" smooth="yes"/>
      <point x="371" y="161"/>
      <point x="384" y="153"/>
      <point x="389" y="144" type="curve" smooth="yes"/>
      <point x="419" y="88"/>
      <point x="448" y="60"/>
      <point x="504" y="60" type="curve" smooth="yes"/>
      <point x="560" y="60"/>
      <point x="597" y="104"/>
      <point x="597" y="172" type="curve" smooth="yes"/>
      <point x="597" y="263"/>
      <point x="510" y="357"/>
      <point x="398" y="407" type="curve" smooth="yes"/>
      <point x="381" y="414"/>
      <point x="374" y="434"/>
      <point x="381" y="450" type="curve" smooth="yes"/>
      <point x="388" y="467"/>
      <point x="408" y="474"/>
      <point x="424" y="467" type="curve" smooth="yes"/>
      <point x="566" y="405"/>
      <point x="663" y="283"/>
      <point x="663" y="172" type="curve" smooth="yes"/>
      <point x="663" y="56"/>
      <point x="592" y="-6"/>
      <point x="504" y="-6" type="curve" smooth="yes"/>
      <point x="422" y="-6"/>
      <point x="377" y="28"/>
      <point x="331" y="112" type="curve"/>
      <point x="360" y="95" type="line"/>
      <point x="355" y="95" type="line"/>
      <point x="384" y="113" type="line"/>
      <point x="342" y="32"/>
      <point x="293" y="-6"/>
      <point x="216" y="-6" type="curve" smooth="yes"/>
      <point x="126" y="-6"/>
      <point x="58" y="56"/>
      <point x="58" y="172" type="curve"/>
      <point x="58" y="284"/>
      <point x="152" y="406"/>
      <point x="290" y="467" type="curve" smooth="yes"/>
      <point x="306" y="474"/>
      <point x="326" y="467"/>
      <point x="333" y="450" type="curve" smooth="yes"/>
      <point x="340" y="434"/>
      <point x="333" y="414"/>
    </contour>
  </outline>
</glyph>
<glyph name="knNA" format="1">
  <advance width="625"/>
  <unicode hex="0CA8"/>
  <outline>
    <contour>
      <point x="91" y="470" type="curve" smooth="yes"/>
      <point x="415" y="470" type="line" smooth="yes"/>
      <point x="474" y="470"/>
      <point x="509" y="490"/>
      <point x="535" y="532" type="curve" smooth="yes"/>
      <point x="544" y="547"/>
      <point x="565" y="552"/>
      <point x="580" y="543" type="curve" smooth="yes"/>
      <point x="595" y="534"/>
      <point x="600" y="513"/>
      <point x="591" y="498" type="curve" smooth="yes"/>
      <point x="553" y="436"/>
      <point x="502" y="404"/>
      <point x="415" y="404" type="curve" smooth="yes"/>
      <point x="91" y="404" type="line" smooth="yes"/>
      <point x="73" y="404"/>
      <point x="58" y="419"/>
      <point x="58" y="437" type="curve" smooth="yes"/>
      <point x="58" y="455"/>
      <point x="73" y="470"/>
    </contour>
    <contour>
      <point x="70" y="17" type="curve" smooth="yes"/>
      <point x="70" y="106"/>
      <point x="89" y="173"/>
      <point x="121" y="205" type="curve" smooth="yes"/>
      <point x="141" y="226"/>
      <point x="170" y="242"/>
      <point x="208" y="242" type="curve" smooth="yes"/>
      <point x="255" y="242"/>
      <point x="308" y="219"/>
      <point x="354" y="143" type="curve" smooth="yes"/>
      <point x="383" y="96"/>
      <point x="403" y="60"/>
      <point x="451" y="60" type="curve" smooth="yes"/>
      <point x="491" y="60"/>
      <point x="529" y="100"/>
      <point x="529" y="172" type="curve" smooth="yes"/>
      <point x="529" y="262"/>
      <point x="452" y="350"/>
      <point x="357" y="409" type="curve" smooth="yes"/>
      <point x="342" y="418"/>
      <point x="337" y="439"/>
      <point x="346" y="454" type="curve" smooth="yes"/>
      <point x="355" y="469"/>
      <point x="376" y="474"/>
      <point x="391" y="465" type="curve" smooth="yes"/>
      <point x="510" y="392"/>
      <point x="595" y="280"/>
      <point x="595" y="172" type="curve" smooth="yes"/>
      <point x="595" y="40"/>
      <point x="515" y="-6"/>
      <point x="451" y="-6" type="curve" smooth="yes"/>
      <point x="381" y="-6"/>
      <point x="343" y="34"/>
      <point x="298" y="109" type="curve" smooth="yes"/>
      <point x="270" y="155"/>
      <point x="239" y="176"/>
      <point x="208" y="176" type="curve" smooth="yes"/>
      <point x="190" y="176"/>
      <point x="177" y="168"/>
      <point x="167" y="159" type="curve" smooth="yes"/>
      <point x="143" y="135"/>
      <point x="136" y="82"/>
      <point x="136" y="17" type="curve" smooth="yes"/>
      <point x="136" y="-1"/>
      <point x="121" y="-16"/>
      <point x="103" y="-16" type="curve" smooth="yes"/>
      <point x="85" y="-16"/>
      <point x="70" y="-1"/>
    </contour>
  </outline>
</glyph>
<glyph name="knPA" format="1">
  <advance width="700"/>
  <unicode hex="0CAA"/>
  <outline>
    <contour>
      <point x="358" y="448" type="curve" smooth="yes"/>
      <point x="431" y="448"/>
      <point x="476" y="396"/>
      <point x="476" y="334" type="curve" smooth="yes"/>
      <point x="476" y="270"/>
      <point x="431" y="220"/>
      <point x="359" y="220" type="curve" smooth="yes"/>
      <point x="288" y="220"/>
      <point x="242" y="272"/>
      <point x="242" y="333" type="curve" smooth="yes"/>
      <point x="242" y="397"/>
      <point x="291" y="448"/>
    </contour>
    <contour>
      <point x="91" y="470" type="curve" smooth="yes"/>
      <point x="496" y="470" type="line" smooth="yes"/>
      <point x="555" y="470"/>
      <point x="590" y="490"/>
      <point x="616" y="532" type="curve" smooth="yes"/>
      <point x="625" y="547"/>
      <point x="646" y="552"/>
      <point x="661" y="543" type="curve" smooth="yes"/>
      <point x="676" y="534"/>
      <point x="681" y="513"/>
      <point x="672" y="498" type="curve" smooth="yes"/>
      <point x="634" y="436"/>
      <point x="583" y="404"/>
      <point x="496" y="404" type="curve" smooth="yes"/>
      <point x="91" y="404" type="line" smooth="yes"/>
      <point x="73" y="404"/>
      <point x="58" y="419"/>
      <point x="58" y="437" type="curve" smooth="yes"/>
      <point x="58" y="455"/>
      <point x="73" y="470"/>
    </contour>
    <contour>
      <point x="358" y="382" type="curve" smooth="yes"/>
      <point x="329" y="382"/>
      <point x="308" y="361"/>
      <point x="308" y="333" type="curve" smooth="yes"/>
      <point x="308" y="306"/>
      <point x="330" y="286"/>
      <point x="359" y="286" type="curve" smooth="yes"/>
      <point x="389" y="286"/>
      <point x="410" y="306"/>
      <point x="410" y="334" type="curve" smooth="yes"/>
      <point x="410" y="362"/>
      <point x="389" y="382"/>
    </contour>
    <contour>
      <point x="197" y="192" type="curve" smooth="yes"/>
      <point x="153" y="192"/>
      <point x="121" y="158"/>
      <point x="121" y="125" type="curve" smooth="yes"/>
      <point x="121" y="88"/>
      <point x="154" y="60"/>
      <point x="199" y="60" type="curve" smooth="yes"/>
      <point x="261" y="60"/>
      <point x="297" y="87"/>
      <point x="327" y="144" type="curve" smooth="yes"/>
      <point x="332" y="153"/>
      <point x="345" y="161"/>
      <point x="356" y="161" type="curve" smooth="yes"/>
      <point x="361" y="161" type="line" smooth="yes"/>
      <point x="371" y="161"/>
      <point x="383" y="154"/>
      <point x="389" y="146" type="curve" smooth="yes"/>
      <point x="423" y="92"/>
      <point x="461" y="60"/>
      <point x="522" y="60" type="curve" smooth="yes"/>
      <point x="572" y="60"/>
      <point x="604" y="93"/>
      <point x="604" y="134" type="curve" smooth="yes"/>
      <point x="604" y="168"/>
      <point x="586" y="193"/>
      <point x="556" y="209" type="curve" smooth="yes"/>
      <point x="540" y="218"/>
      <point x="535" y="239"/>
      <point x="543" y="254" type="curve" smooth="yes"/>
      <point x="552" y="270"/>
      <point x="573" y="275"/>
      <point x="588" y="267" type="curve" smooth="yes"/>
      <point x="640" y="237"/>
      <point x="670" y="194"/>
      <point x="670" y="134" type="curve" smooth="yes"/>
      <point x="670" y="59"/>
      <point x="616" y="-6"/>
      <point x="522" y="-6" type="curve" smooth="yes"/>
      <point x="437" y="-6"/>
      <point x="383" y="34"/>
      <point x="333" y="110" type="curve"/>
      <point x="361" y="95" type="line"/>
      <point x="356" y="95" type="line"/>
      <point x="385" y="112" type="line"/>
      <point x="341" y="31"/>
      <point x="289" y="-6"/>
      <point x="199" y="-6" type="curve" smooth="yes"/>
      <point x="108" y="-6"/>
      <point x="55" y="56"/>
      <point x="55" y="125" type="curve"/>
      <point x="55" y="188"/>
      <point x="111" y="258"/>
      <point x="197" y="258" type="curve" smooth="yes"/>
      <point x="215" y="258"/>
      <point x="230" y="243"/>
      <point x="230" y="225" type="curve" smooth="yes"/>
      <point x="230" y="207"/>
      <point x="215" y="192"/>
    </contour>
  </outline>
</glyph>
<glyph name="knBA" format="1">
  <advance width="711"/>
  <unicode hex="0CAC"/>
  <outline>
    <contour>
      <point x="54" y="428" type="curve" smooth="yes"/>
      <point x="86" y="464"/>
      <point x="125" y="485"/>
      <point x="170" y="485" type="curve" smooth="yes"/>
      <point x="244" y="485"/>
      <point x="288" y="435"/>
      <point x="288" y="375" type="curve" smooth="yes"/>
      <point x="288" y="329"/>
      <point x="266" y="287"/>
      <point x="197" y="231" type="curve" smooth="yes"/>
      <point x="158" y="200"/>
      <point x="130" y="168"/>
      <point x="130" y="129" type="curve" smooth="yes"/>
      <point x="130" y="90"/>
      <point x="160" y="60"/>
      <point x="209" y="60" type="curve" smooth="yes"/>
      <point x="265" y="60"/>
      <point x="303" y="90"/>
      <point x="338" y="145" type="curve" smooth="yes"/>
      <point x="343" y="154"/>
      <point x="356" y="161"/>
      <point x="366" y="161" type="curve" smooth="yes"/>
      <point x="371" y="161" type="line" smooth="yes"/>
      <point x="382" y="161"/>
      <point x="394" y="154"/>
      <point x="400" y="144" type="curve" smooth="yes"/>
      <point x="431" y="89"/>
      <point x="469" y="60"/>
      <point x="523" y="60" type="curve" smooth="yes"/>
      <point x="576" y="60"/>
      <point x="614" y="106"/>
      <point x="614" y="179" type="curve" smooth="yes"/>
      <point x="614" y="269"/>
      <point x="567" y="353"/>
      <point x="491" y="411" type="curve" smooth="yes"/>
      <point x="477" y="421"/>
      <point x="474" y="443"/>
      <point x="485" y="457" type="curve" smooth="yes"/>
      <point x="495" y="471"/>
      <point x="517" y="474"/>
      <point x="531" y="463" type="curve" smooth="yes"/>
      <point x="625" y="393"/>
      <point x="680" y="289"/>
      <point x="680" y="179" type="curve" smooth="yes"/>
      <point x="680" y="54"/>
      <point x="606" y="-6"/>
      <point x="523" y="-6" type="curve" smooth="yes"/>
      <point x="445" y="-6"/>
      <point x="389" y="31"/>
      <point x="342" y="112" type="curve"/>
      <point x="371" y="95" type="line"/>
      <point x="366" y="95" type="line"/>
      <point x="394" y="111" type="line"/>
      <point x="345" y="30"/>
      <point x="287" y="-6"/>
      <point x="209" y="-6" type="curve" smooth="yes"/>
      <point x="112" y="-6"/>
      <point x="64" y="58"/>
      <point x="64" y="129" type="curve"/>
      <point x="64" y="186"/>
      <point x="98" y="236"/>
      <point x="155" y="283" type="curve" smooth="yes"/>
      <point x="200" y="319"/>
      <point x="222" y="343"/>
      <point x="222" y="375" type="curve" smooth="yes"/>
      <point x="222" y="401"/>
      <point x="200" y="419"/>
      <point x="170" y="419" type="curve" smooth="yes"/>
      <point x="143" y="419"/>
      <point x="122" y="404"/>
      <point x="104" y="384" type="curve" smooth="yes"/>
      <point x="92" y="371"/>
      <point x="70" y="370"/>
      <point x="57" y="381" type="curve" smooth="yes"/>
      <point x="44" y="393"/>
      <point x="43" y="415"/>
    </contour>
  </outline>
</glyph>
<glyph name="knBHA" format="1">
  <advance width="701"/>
  <unicode hex="0CAD"/>
  <outline>
    <contour>
      <point x="396" y="-89" type="curve" smooth="yes"/>
      <point x="396" y="-192" type="line" smooth="yes"/>
      <point x="396" y="-210"/>
      <point x="381" y="-225"/>
      <point x="363" y="-225" type="curve" smooth="yes"/>
      <point x="345" y="-225"/>
      <point x="330" y="-210"/>
      <point x="330" y="-192" type="curve" smooth="yes"/>
      <point x="330" y="-89" type="line" smooth="yes"/>
      <point x="330" y="-71"/>
      <point x="345" y="-56"/>
      <point x="363" y="-56" type="curve" smooth="yes"/>
      <point x="381" y="-56"/>
      <point x="396" y="-71"/>
    </contour>
    <contour>
      <point x="419" y="470" type="curve" smooth="yes"/>
      <point x="511" y="470" type="line" smooth="yes"/>
      <point x="570" y="470"/>
      <point x="605" y="490"/>
      <point x="631" y="532" type="curve" smooth="yes"/>
      <point x="640" y="547"/>
      <point x="661" y="552"/>
      <point x="676" y="543" type="curve" smooth="yes"/>
      <point x="691" y="534"/>
      <point x="696" y="513"/>
      <point x="687" y="498" type="curve" smooth="yes"/>
      <point x="649" y="436"/>
      <point x="598" y="404"/>
      <point x="511" y="404" type="curve" smooth="yes"/>
      <point x="419" y="404" type="line" smooth="yes"/>
      <point x="401" y="404"/>
      <point x="386" y="419"/>
      <point x="386" y="437" type="curve" smooth="yes"/>
      <point x="386" y="455"/>
      <point x="401" y="470"/>
    </contour>
    <contour>
      <point x="47" y="428" type="curve" smooth="yes"/>
      <point x="79" y="464"/>
      <point x="118" y="485"/>
      <point x="163" y="485" type="curve" smooth="yes"/>
      <point x="237" y="485"/>
      <point x="281" y="435"/>
      <point x="281" y="375" type="curve" smooth="yes"/>
      <point x="281" y="329"/>
      <point x="259" y="287"/>
      <point x="190" y="231" type="curve" smooth="yes"/>
      <point x="151" y="200"/>
      <point x="123" y="168"/>
      <point x="123" y="129" type="curve" smooth="yes"/>
      <point x="123" y="90"/>
      <point x="153" y="60"/>
      <point x="202" y="60" type="curve" smooth="yes"/>
      <point x="258" y="60"/>
      <point x="296" y="90"/>
      <point x="331" y="145" type="curve" smooth="yes"/>
      <point x="336" y="154"/>
      <point x="349" y="161"/>
      <point x="359" y="161" type="curve" smooth="yes"/>
      <point x="364" y="161" type="line" smooth="yes"/>
      <point x="375" y="161"/>
      <point x="387" y="154"/>
      <point x="393" y="144" type="curve" smooth="yes"/>
      <point x="424" y="89"/>
      <point x="462" y="60"/>
      <point x="516" y="60" type="curve" smooth="yes"/>
      <point x="569" y="60"/>
      <point x="604" y="105"/>
      <point x="604" y="172" type="curve" smooth="yes"/>
      <point x="604" y="260"/>
      <point x="545" y="352"/>
      <point x="460" y="410" type="curve" smooth="yes"/>
      <point x="445" y="420"/>
      <point x="441" y="441"/>
      <point x="451" y="455" type="curve" smooth="yes"/>
      <point x="461" y="470"/>
      <point x="482" y="474"/>
      <point x="496" y="464" type="curve" smooth="yes"/>
      <point x="601" y="394"/>
      <point x="670" y="278"/>
      <point x="670" y="172" type="curve" smooth="yes"/>
      <point x="670" y="55"/>
      <point x="599" y="-6"/>
      <point x="516" y="-6" type="curve" smooth="yes"/>
      <point x="438" y="-6"/>
      <point x="382" y="31"/>
      <point x="335" y="112" type="curve"/>
      <point x="364" y="95" type="line"/>
      <point x="359" y="95" type="line"/>
      <point x="387" y="111" type="line"/>
      <point x="338" y="30"/>
      <point x="280" y="-6"/>
      <point x="202" y="-6" type="curve" smooth="yes"/>
      <point x="105" y="-6"/>
      <point x="57" y="58"/>
      <point x="57" y="129" type="curve"/>
      <point x="57" y="186"/>
      <point x="91" y="236"/>
      <point x="148" y="283" type="curve" smooth="yes"/>
      <point x="193" y="319"/>
      <point x="215" y="343"/>
      <point x="215" y="375" type="curve" smooth="yes"/>
      <point x="215" y="401"/>
      <point x="193" y="419"/>
      <point x="163" y="419" type="curve" smooth="yes"/>
      <point x="136" y="419"/>
      <point x="115" y="404"/>
      <point x="97" y="384" type="curve" smooth="yes"/>
      <point x="85" y="371"/>
      <point x="63" y="370"/>
      <point x="50" y="381" type="curve" smooth="yes"/>
      <point x="37" y="393"/>
      <point x="36" y="415"/>
    </contour>
  </outline>
</glyph>
<glyph name="knYA" format="1">
<<<<<<< HEAD
  <advance width="1171"/>
=======
  <advance width="1184"/>
>>>>>>> reforming
  <unicode hex="0CAF"/>
  <outline>
    <contour>
      <point x="47" y="227" type="curve"/>
      <point x="47" y="348"/>
      <point x="154" y="470"/>
      <point x="291" y="470" type="curve" smooth="yes"/>
      <point x="430" y="470"/>
      <point x="535" y="346"/>
      <point x="535" y="227" type="curve" smooth="yes"/>
      <point x="535" y="94"/>
      <point x="441" y="-10"/>
      <point x="291" y="-10" type="curve" smooth="yes"/>
      <point x="139" y="-10"/>
      <point x="47" y="92"/>
    </contour>
    <contour>
      <point x="113" y="227" type="curve" smooth="yes"/>
      <point x="113" y="128"/>
      <point x="181" y="56"/>
      <point x="291" y="56" type="curve" smooth="yes"/>
      <point x="399" y="56"/>
      <point x="469" y="130"/>
      <point x="469" y="227" type="curve" smooth="yes"/>
      <point x="469" y="314"/>
      <point x="392" y="404"/>
      <point x="291" y="404" type="curve" smooth="yes"/>
      <point x="192" y="404"/>
      <point x="113" y="316"/>
    </contour>
    <contour>
      <point x="579" y="470" type="curve" smooth="yes"/>
      <point x="691" y="470" type="line" smooth="yes"/>
      <point x="750" y="470"/>
      <point x="785" y="490"/>
      <point x="811" y="532" type="curve" smooth="yes"/>
      <point x="820" y="547"/>
      <point x="841" y="552"/>
      <point x="856" y="543" type="curve" smooth="yes"/>
      <point x="871" y="534"/>
      <point x="876" y="513"/>
      <point x="867" y="498" type="curve" smooth="yes"/>
      <point x="829" y="436"/>
      <point x="778" y="404"/>
      <point x="691" y="404" type="curve" smooth="yes"/>
      <point x="579" y="404" type="line" smooth="yes"/>
      <point x="561" y="404"/>
      <point x="546" y="419"/>
      <point x="546" y="437" type="curve" smooth="yes"/>
      <point x="546" y="455"/>
      <point x="561" y="470"/>
    </contour>
<<<<<<< HEAD
    <component base="knUsign" xOffset="646" yOffset="-158"/>
    <component base="knUsign" xOffset="917" yOffset="-2"/>
    <component base="knmU" xOffset="600"/>
    <component base="knmU" xOffset="890"/>
    <component base="knUsign" xOffset="646" yOffset="-158"/>
    <component base="knUsign" xOffset="917" yOffset="-2"/>
    <component base="knmU" xOffset="600"/>
    <component base="knmU" xOffset="890"/>
=======
    <component base="knmU" xOffset="593"/>
    <component base="knmU" xOffset="904"/>
    <component base="knmU" xOffset="593"/>
    <component base="knmU" xOffset="904"/>
>>>>>>> reforming
  </outline>
</glyph>
<glyph name="knRA" format="1">
  <advance width="637"/>
  <unicode hex="0CB0"/>
  <outline>
    <contour>
      <point x="79" y="227" type="curve" smooth="yes"/>
      <point x="79" y="355"/>
      <point x="187" y="470"/>
      <point x="328" y="470" type="curve" smooth="yes"/>
      <point x="473" y="470"/>
      <point x="571" y="353"/>
      <point x="571" y="227" type="curve" smooth="yes"/>
      <point x="571" y="94"/>
      <point x="478" y="-10"/>
      <point x="326" y="-10" type="curve" smooth="yes"/>
      <point x="176" y="-10"/>
      <point x="79" y="92"/>
    </contour>
    <contour>
      <point x="83" y="470" type="curve" smooth="yes"/>
      <point x="451" y="470" type="line" smooth="yes"/>
      <point x="510" y="470"/>
      <point x="545" y="490"/>
      <point x="571" y="532" type="curve" smooth="yes"/>
      <point x="580" y="547"/>
      <point x="601" y="552"/>
      <point x="616" y="543" type="curve" smooth="yes"/>
      <point x="631" y="534"/>
      <point x="636" y="513"/>
      <point x="627" y="498" type="curve" smooth="yes"/>
      <point x="589" y="436"/>
      <point x="538" y="404"/>
      <point x="451" y="404" type="curve" smooth="yes"/>
      <point x="83" y="404" type="line" smooth="yes"/>
      <point x="65" y="404"/>
      <point x="50" y="419"/>
      <point x="50" y="437" type="curve" smooth="yes"/>
      <point x="50" y="455"/>
      <point x="65" y="470"/>
    </contour>
    <contour>
      <point x="145" y="227" type="curve" smooth="yes"/>
      <point x="145" y="128"/>
      <point x="218" y="56"/>
      <point x="326" y="56" type="curve" smooth="yes"/>
      <point x="436" y="56"/>
      <point x="505" y="130"/>
      <point x="505" y="227" type="curve" smooth="yes"/>
      <point x="505" y="319"/>
      <point x="433" y="404"/>
      <point x="328" y="404" type="curve" smooth="yes"/>
      <point x="225" y="404"/>
      <point x="145" y="321"/>
    </contour>
  </outline>
</glyph>
<glyph name="knRRA" format="1">
  <advance width="753"/>
  <unicode hex="0CB1"/>
  <outline>
    <contour>
      <point x="138" y="359" type="curve" smooth="yes"/>
      <point x="159" y="328"/>
      <point x="183" y="306"/>
      <point x="215" y="306" type="curve" smooth="yes"/>
      <point x="244" y="306"/>
      <point x="270" y="324"/>
      <point x="270" y="355" type="curve" smooth="yes"/>
      <point x="270" y="386"/>
      <point x="248" y="406"/>
      <point x="215" y="406" type="curve" smooth="yes"/>
      <point x="157" y="406"/>
      <point x="118" y="321"/>
      <point x="118" y="229" type="curve" smooth="yes"/>
      <point x="118" y="139"/>
      <point x="161" y="60"/>
      <point x="232" y="60" type="curve" smooth="yes"/>
      <point x="285" y="60"/>
      <point x="315" y="89"/>
      <point x="345" y="144" type="curve" smooth="yes"/>
      <point x="350" y="153"/>
      <point x="363" y="161"/>
      <point x="374" y="161" type="curve" smooth="yes"/>
      <point x="379" y="161" type="line" smooth="yes"/>
      <point x="390" y="161"/>
      <point x="403" y="153"/>
      <point x="408" y="144" type="curve" smooth="yes"/>
      <point x="438" y="89"/>
      <point x="468" y="60"/>
      <point x="521" y="60" type="curve" smooth="yes"/>
      <point x="592" y="60"/>
      <point x="635" y="139"/>
      <point x="635" y="229" type="curve" smooth="yes"/>
      <point x="635" y="321"/>
      <point x="596" y="406"/>
      <point x="538" y="406" type="curve" smooth="yes"/>
      <point x="505" y="406"/>
      <point x="483" y="386"/>
      <point x="483" y="355" type="curve" smooth="yes"/>
      <point x="483" y="324"/>
      <point x="509" y="306"/>
      <point x="538" y="306" type="curve" smooth="yes"/>
      <point x="570" y="306"/>
      <point x="594" y="328"/>
      <point x="615" y="359" type="curve" smooth="yes"/>
      <point x="624" y="374"/>
      <point x="645" y="378"/>
      <point x="660" y="368" type="curve" smooth="yes"/>
      <point x="675" y="359"/>
      <point x="679" y="338"/>
      <point x="669" y="323" type="curve" smooth="yes"/>
      <point x="634" y="270"/>
      <point x="590" y="240"/>
      <point x="538" y="240" type="curve" smooth="yes"/>
      <point x="471" y="240"/>
      <point x="417" y="286"/>
      <point x="417" y="355" type="curve" smooth="yes"/>
      <point x="417" y="422"/>
      <point x="461" y="472"/>
      <point x="538" y="472" type="curve" smooth="yes"/>
      <point x="618" y="472"/>
      <point x="701" y="383"/>
      <point x="701" y="229" type="curve" smooth="yes"/>
      <point x="701" y="87"/>
      <point x="620" y="-6"/>
      <point x="521" y="-6" type="curve" smooth="yes"/>
      <point x="444" y="-6"/>
      <point x="394" y="29"/>
      <point x="350" y="112" type="curve"/>
      <point x="379" y="95" type="line"/>
      <point x="374" y="95" type="line"/>
      <point x="403" y="112" type="line"/>
      <point x="359" y="29"/>
      <point x="309" y="-6"/>
      <point x="232" y="-6" type="curve" smooth="yes"/>
      <point x="133" y="-6"/>
      <point x="52" y="87"/>
      <point x="52" y="229" type="curve"/>
      <point x="52" y="383"/>
      <point x="135" y="472"/>
      <point x="215" y="472" type="curve" smooth="yes"/>
      <point x="292" y="472"/>
      <point x="336" y="422"/>
      <point x="336" y="355" type="curve" smooth="yes"/>
      <point x="336" y="286"/>
      <point x="282" y="240"/>
      <point x="215" y="240" type="curve" smooth="yes"/>
      <point x="163" y="240"/>
      <point x="119" y="270"/>
      <point x="84" y="323" type="curve" smooth="yes"/>
      <point x="74" y="338"/>
      <point x="78" y="359"/>
      <point x="93" y="368" type="curve" smooth="yes"/>
      <point x="108" y="378"/>
      <point x="129" y="374"/>
    </contour>
    <contour>
      <point x="217" y="306" type="curve" smooth="yes"/>
      <point x="537" y="306" type="line" smooth="yes"/>
      <point x="555" y="306"/>
      <point x="570" y="291"/>
      <point x="570" y="273" type="curve" smooth="yes"/>
      <point x="570" y="255"/>
      <point x="555" y="240"/>
      <point x="537" y="240" type="curve" smooth="yes"/>
      <point x="217" y="240" type="line" smooth="yes"/>
      <point x="199" y="240"/>
      <point x="184" y="255"/>
      <point x="184" y="273" type="curve" smooth="yes"/>
      <point x="184" y="291"/>
      <point x="199" y="306"/>
    </contour>
  </outline>
</glyph>
<glyph name="knLA" format="1">
  <advance width="690"/>
  <unicode hex="0CB2"/>
  <outline>
    <contour>
      <point x="124" y="366" type="curve" smooth="yes"/>
      <point x="149" y="334"/>
      <point x="178" y="313"/>
      <point x="211" y="313" type="curve" smooth="yes"/>
      <point x="242" y="313"/>
      <point x="268" y="331"/>
      <point x="268" y="363" type="curve" smooth="yes"/>
      <point x="268" y="394"/>
      <point x="245" y="419"/>
      <point x="209" y="419" type="curve" smooth="yes"/>
      <point x="149" y="419"/>
      <point x="113" y="330"/>
      <point x="113" y="253" type="curve" smooth="yes"/>
      <point x="113" y="145"/>
      <point x="202" y="60"/>
      <point x="356" y="60" type="curve" smooth="yes"/>
      <point x="516" y="60"/>
      <point x="581" y="155"/>
      <point x="581" y="249" type="curve" smooth="yes"/>
      <point x="581" y="318"/>
      <point x="545" y="374"/>
      <point x="496" y="410" type="curve" smooth="yes"/>
      <point x="481" y="421"/>
      <point x="478" y="442"/>
      <point x="488" y="456" type="curve" smooth="yes"/>
      <point x="499" y="471"/>
      <point x="520" y="474"/>
      <point x="534" y="464" type="curve" smooth="yes"/>
      <point x="601" y="416"/>
      <point x="647" y="340"/>
      <point x="647" y="249" type="curve" smooth="yes"/>
      <point x="647" y="127"/>
      <point x="572" y="-6"/>
      <point x="356" y="-6" type="curve" smooth="yes"/>
      <point x="150" y="-6"/>
      <point x="47" y="115"/>
      <point x="47" y="253" type="curve"/>
      <point x="47" y="382"/>
      <point x="125" y="485"/>
      <point x="209" y="485" type="curve" smooth="yes"/>
      <point x="289" y="485"/>
      <point x="334" y="430"/>
      <point x="334" y="363" type="curve" smooth="yes"/>
      <point x="334" y="295"/>
      <point x="282" y="247"/>
      <point x="211" y="247" type="curve" smooth="yes"/>
      <point x="160" y="247"/>
      <point x="111" y="274"/>
      <point x="72" y="326" type="curve" smooth="yes"/>
      <point x="61" y="340"/>
      <point x="64" y="361"/>
      <point x="78" y="372" type="curve" smooth="yes"/>
      <point x="92" y="383"/>
      <point x="113" y="380"/>
    </contour>
  </outline>
</glyph>
<glyph name="knLLA" format="1">
  <advance width="700"/>
  <unicode hex="0CB3"/>
  <outline>
    <contour>
      <point x="337" y="199" type="curve" smooth="yes"/>
      <point x="337" y="199" type="line" smooth="yes"/>
      <point x="455" y="200"/>
      <point x="480" y="140"/>
      <point x="480" y="88" type="curve" smooth="yes"/>
      <point x="480" y="39"/>
      <point x="446" y="-22"/>
      <point x="337" y="-22" type="curve" smooth="yes"/>
      <point x="233" y="-22"/>
      <point x="195" y="38"/>
      <point x="195" y="89" type="curve" smooth="yes"/>
      <point x="195" y="140"/>
      <point x="225" y="198"/>
    </contour>
    <contour>
      <point x="124" y="393" type="curve" smooth="yes"/>
      <point x="124" y="378"/>
      <point x="133" y="361"/>
      <point x="142" y="352" type="curve" smooth="yes"/>
      <point x="153" y="342"/>
      <point x="167" y="336"/>
      <point x="185" y="336" type="curve" smooth="yes"/>
      <point x="211" y="336"/>
      <point x="234" y="354"/>
      <point x="234" y="378" type="curve" smooth="yes"/>
      <point x="234" y="402"/>
      <point x="209" y="419"/>
      <point x="181" y="419" type="curve" smooth="yes"/>
      <point x="140" y="419"/>
      <point x="108" y="381"/>
      <point x="108" y="338" type="curve" smooth="yes"/>
      <point x="108" y="308"/>
      <point x="121" y="279"/>
      <point x="145" y="256" type="curve" smooth="yes"/>
      <point x="176" y="225"/>
      <point x="238" y="201"/>
      <point x="345" y="201" type="curve" smooth="yes"/>
      <point x="443" y="201"/>
      <point x="508" y="219"/>
      <point x="539" y="250" type="curve" smooth="yes"/>
      <point x="556" y="265"/>
      <point x="565" y="287"/>
      <point x="565" y="308" type="curve" smooth="yes"/>
      <point x="565" y="341"/>
      <point x="541" y="387"/>
      <point x="493" y="407" type="curve" smooth="yes"/>
      <point x="477" y="413"/>
      <point x="469" y="433"/>
      <point x="476" y="450" type="curve" smooth="yes"/>
      <point x="482" y="466"/>
      <point x="502" y="474"/>
      <point x="519" y="467" type="curve" smooth="yes"/>
      <point x="595" y="435"/>
      <point x="631" y="361"/>
      <point x="631" y="308" type="curve" smooth="yes"/>
      <point x="631" y="269"/>
      <point x="614" y="231"/>
      <point x="585" y="202" type="curve" smooth="yes"/>
      <point x="546" y="165"/>
      <point x="469" y="135"/>
      <point x="345" y="135" type="curve" smooth="yes"/>
      <point x="212" y="135"/>
      <point x="138" y="171"/>
      <point x="99" y="208" type="curve" smooth="yes"/>
      <point x="61" y="245"/>
      <point x="42" y="290"/>
      <point x="42" y="338" type="curve"/>
      <point x="42" y="419"/>
      <point x="106" y="485"/>
      <point x="181" y="485" type="curve" smooth="yes"/>
      <point x="255" y="485"/>
      <point x="300" y="432"/>
      <point x="300" y="378" type="curve" smooth="yes"/>
      <point x="300" y="322"/>
      <point x="251" y="270"/>
      <point x="185" y="270" type="curve" smooth="yes"/>
      <point x="147" y="270"/>
      <point x="117" y="284"/>
      <point x="96" y="306" type="curve" smooth="yes"/>
      <point x="77" y="325"/>
      <point x="58" y="360"/>
      <point x="58" y="393" type="curve" smooth="yes"/>
      <point x="58" y="411"/>
      <point x="73" y="426"/>
      <point x="91" y="426" type="curve" smooth="yes"/>
      <point x="109" y="426"/>
      <point x="124" y="411"/>
    </contour>
    <contour>
      <point x="423" y="470" type="curve" smooth="yes"/>
      <point x="515" y="470" type="line" smooth="yes"/>
      <point x="574" y="470"/>
      <point x="609" y="490"/>
      <point x="635" y="532" type="curve" smooth="yes"/>
      <point x="644" y="547"/>
      <point x="665" y="552"/>
      <point x="680" y="543" type="curve" smooth="yes"/>
      <point x="695" y="534"/>
      <point x="700" y="513"/>
      <point x="691" y="498" type="curve" smooth="yes"/>
      <point x="653" y="436"/>
      <point x="602" y="404"/>
      <point x="515" y="404" type="curve" smooth="yes"/>
      <point x="423" y="404" type="line" smooth="yes"/>
      <point x="405" y="404"/>
      <point x="390" y="419"/>
      <point x="390" y="437" type="curve" smooth="yes"/>
      <point x="390" y="455"/>
      <point x="405" y="470"/>
    </contour>
    <contour>
      <point x="337" y="133" type="line"/>
      <point x="293" y="132"/>
      <point x="261" y="116"/>
      <point x="261" y="89" type="curve" smooth="yes"/>
      <point x="261" y="62"/>
      <point x="295" y="44"/>
      <point x="337" y="44" type="curve" smooth="yes"/>
      <point x="380" y="44"/>
      <point x="414" y="61"/>
      <point x="414" y="88" type="curve" smooth="yes"/>
      <point x="414" y="116"/>
      <point x="385" y="134"/>
      <point x="337" y="133" type="curve"/>
    </contour>
  </outline>
</glyph>
<glyph name="knVA" format="1">
  <advance width="692"/>
  <unicode hex="0CB5"/>
  <outline>
    <contour>
      <point x="107" y="470" type="curve" smooth="yes"/>
      <point x="472" y="470" type="line" smooth="yes"/>
      <point x="531" y="470"/>
      <point x="566" y="490"/>
      <point x="592" y="532" type="curve" smooth="yes"/>
      <point x="601" y="547"/>
      <point x="622" y="552"/>
      <point x="637" y="543" type="curve" smooth="yes"/>
      <point x="652" y="534"/>
      <point x="657" y="513"/>
      <point x="648" y="498" type="curve" smooth="yes"/>
      <point x="610" y="436"/>
      <point x="559" y="404"/>
      <point x="472" y="404" type="curve" smooth="yes"/>
      <point x="107" y="404" type="line" smooth="yes"/>
      <point x="89" y="404"/>
      <point x="74" y="419"/>
      <point x="74" y="437" type="curve" smooth="yes"/>
      <point x="74" y="455"/>
      <point x="89" y="470"/>
    </contour>
    <contour>
      <point x="175" y="187" type="curve" smooth="yes"/>
      <point x="133" y="181"/>
      <point x="107" y="156"/>
      <point x="107" y="122" type="curve" smooth="yes"/>
      <point x="107" y="85"/>
      <point x="141" y="60"/>
      <point x="185" y="60" type="curve" smooth="yes"/>
      <point x="247" y="60"/>
      <point x="283" y="87"/>
      <point x="313" y="144" type="curve" smooth="yes"/>
      <point x="318" y="153"/>
      <point x="331" y="161"/>
      <point x="342" y="161" type="curve" smooth="yes"/>
      <point x="347" y="161" type="line" smooth="yes"/>
      <point x="357" y="161"/>
      <point x="369" y="154"/>
      <point x="375" y="146" type="curve" smooth="yes"/>
      <point x="409" y="93"/>
      <point x="440" y="60"/>
      <point x="497" y="60" type="curve" smooth="yes"/>
      <point x="546" y="60"/>
      <point x="590" y="99"/>
      <point x="590" y="158" type="curve" smooth="yes"/>
      <point x="590" y="247"/>
      <point x="523" y="340"/>
      <point x="375" y="404" type="curve" smooth="yes"/>
      <point x="359" y="411"/>
      <point x="351" y="431"/>
      <point x="358" y="447" type="curve" smooth="yes"/>
      <point x="365" y="463"/>
      <point x="385" y="471"/>
      <point x="401" y="464" type="curve" smooth="yes"/>
      <point x="585" y="384"/>
      <point x="656" y="265"/>
      <point x="656" y="158" type="curve" smooth="yes"/>
      <point x="656" y="57"/>
      <point x="580" y="-6"/>
      <point x="497" y="-6" type="curve" smooth="yes"/>
      <point x="418" y="-6"/>
      <point x="369" y="33"/>
      <point x="319" y="110" type="curve"/>
      <point x="347" y="95" type="line"/>
      <point x="342" y="95" type="line"/>
      <point x="371" y="112" type="line"/>
      <point x="327" y="31"/>
      <point x="275" y="-6"/>
      <point x="185" y="-6" type="curve" smooth="yes"/>
      <point x="93" y="-6"/>
      <point x="41" y="53"/>
      <point x="41" y="122" type="curve"/>
      <point x="41" y="184"/>
      <point x="83" y="241"/>
      <point x="165" y="253" type="curve" smooth="yes"/>
      <point x="183" y="255"/>
      <point x="200" y="242"/>
      <point x="203" y="225" type="curve" smooth="yes"/>
      <point x="205" y="207"/>
      <point x="192" y="190"/>
    </contour>
  </outline>
</glyph>
<glyph name="knSHA" format="1">
  <advance width="619"/>
  <unicode hex="0CB6"/>
  <outline>
    <contour>
      <point x="74" y="470" type="curve" smooth="yes"/>
      <point x="423" y="470" type="line" smooth="yes"/>
      <point x="482" y="470"/>
      <point x="517" y="490"/>
      <point x="543" y="532" type="curve" smooth="yes"/>
      <point x="552" y="547"/>
      <point x="573" y="552"/>
      <point x="588" y="543" type="curve" smooth="yes"/>
      <point x="603" y="534"/>
      <point x="608" y="513"/>
      <point x="599" y="498" type="curve" smooth="yes"/>
      <point x="561" y="436"/>
      <point x="510" y="404"/>
      <point x="423" y="404" type="curve" smooth="yes"/>
      <point x="74" y="404" type="line" smooth="yes"/>
      <point x="56" y="404"/>
      <point x="41" y="419"/>
      <point x="41" y="437" type="curve" smooth="yes"/>
      <point x="41" y="455"/>
      <point x="56" y="470"/>
    </contour>
    <contour>
      <point x="134" y="362" type="curve" smooth="yes"/>
      <point x="160" y="422"/>
      <point x="208" y="456"/>
      <point x="259" y="456" type="curve" smooth="yes"/>
      <point x="322" y="456"/>
      <point x="380" y="408"/>
      <point x="380" y="335" type="curve" smooth="yes"/>
      <point x="380" y="265"/>
      <point x="340" y="208"/>
      <point x="245" y="197" type="curve" smooth="yes"/>
      <point x="173" y="190"/>
      <point x="148" y="181"/>
      <point x="133" y="167" type="curve" smooth="yes"/>
      <point x="124" y="157"/>
      <point x="120" y="145"/>
      <point x="120" y="130" type="curve" smooth="yes"/>
      <point x="120" y="91"/>
      <point x="178" y="60"/>
      <point x="279" y="60" type="curve" smooth="yes"/>
      <point x="368" y="60"/>
      <point x="429" y="90"/>
      <point x="452" y="113" type="curve" smooth="yes"/>
      <point x="474" y="135"/>
      <point x="490" y="165"/>
      <point x="490" y="201" type="curve" smooth="yes"/>
      <point x="490" y="273"/>
      <point x="437" y="358"/>
      <point x="327" y="407" type="curve" smooth="yes"/>
      <point x="310" y="414"/>
      <point x="303" y="434"/>
      <point x="310" y="450" type="curve" smooth="yes"/>
      <point x="317" y="467"/>
      <point x="337" y="474"/>
      <point x="353" y="467" type="curve" smooth="yes"/>
      <point x="497" y="404"/>
      <point x="556" y="291"/>
      <point x="556" y="201" type="curve" smooth="yes"/>
      <point x="556" y="145"/>
      <point x="532" y="101"/>
      <point x="498" y="67" type="curve" smooth="yes"/>
      <point x="469" y="38"/>
      <point x="394" y="-6"/>
      <point x="279" y="-6" type="curve" smooth="yes"/>
      <point x="82" y="-6"/>
      <point x="54" y="75"/>
      <point x="54" y="130" type="curve"/>
      <point x="54" y="165"/>
      <point x="66" y="193"/>
      <point x="87" y="213" type="curve" smooth="yes"/>
      <point x="106" y="233"/>
      <point x="137" y="252"/>
      <point x="237" y="263" type="curve" smooth="yes"/>
      <point x="288" y="268"/>
      <point x="314" y="295"/>
      <point x="314" y="335" type="curve" smooth="yes"/>
      <point x="314" y="368"/>
      <point x="288" y="390"/>
      <point x="259" y="390" type="curve" smooth="yes"/>
      <point x="230" y="390"/>
      <point x="208" y="366"/>
      <point x="194" y="336" type="curve" smooth="yes"/>
      <point x="187" y="319"/>
      <point x="167" y="312"/>
      <point x="151" y="319" type="curve" smooth="yes"/>
      <point x="134" y="326"/>
      <point x="127" y="346"/>
    </contour>
  </outline>
</glyph>
<glyph name="knSSA" format="1">
  <advance width="700"/>
  <unicode hex="0CB7"/>
  <outline>
    <contour>
      <point x="505" y="217" type="curve" smooth="yes"/>
      <point x="666" y="-28" type="line" smooth="yes"/>
      <point x="675" y="-43"/>
      <point x="671" y="-64"/>
      <point x="656" y="-74" type="curve" smooth="yes"/>
      <point x="641" y="-83"/>
      <point x="620" y="-79"/>
      <point x="610" y="-64" type="curve" smooth="yes"/>
      <point x="449" y="181" type="line" smooth="yes"/>
      <point x="440" y="196"/>
      <point x="444" y="217"/>
      <point x="459" y="227" type="curve" smooth="yes"/>
      <point x="474" y="236"/>
      <point x="495" y="232"/>
    </contour>
    <component base="knPa"/>
    <component base="knPa"/>
  </outline>
</glyph>
<glyph name="knSA" format="1">
  <advance width="655"/>
  <unicode hex="0CB8"/>
  <outline>
    <contour>
      <point x="333" y="448" type="curve" smooth="yes"/>
      <point x="406" y="448"/>
      <point x="451" y="396"/>
      <point x="451" y="334" type="curve" smooth="yes"/>
      <point x="451" y="270"/>
      <point x="406" y="220"/>
      <point x="334" y="220" type="curve" smooth="yes"/>
      <point x="263" y="220"/>
      <point x="217" y="272"/>
      <point x="217" y="333" type="curve" smooth="yes"/>
      <point x="217" y="397"/>
      <point x="266" y="448"/>
    </contour>
    <contour>
      <point x="78" y="470" type="curve" smooth="yes"/>
      <point x="459" y="470" type="line" smooth="yes"/>
      <point x="518" y="470"/>
      <point x="553" y="490"/>
      <point x="579" y="532" type="curve" smooth="yes"/>
      <point x="588" y="547"/>
      <point x="609" y="552"/>
      <point x="624" y="543" type="curve" smooth="yes"/>
      <point x="639" y="534"/>
      <point x="644" y="513"/>
      <point x="635" y="498" type="curve" smooth="yes"/>
      <point x="597" y="436"/>
      <point x="546" y="404"/>
      <point x="459" y="404" type="curve" smooth="yes"/>
      <point x="78" y="404" type="line" smooth="yes"/>
      <point x="60" y="404"/>
      <point x="45" y="419"/>
      <point x="45" y="437" type="curve" smooth="yes"/>
      <point x="45" y="455"/>
      <point x="60" y="470"/>
    </contour>
    <contour>
      <point x="70" y="17" type="curve" smooth="yes"/>
      <point x="70" y="99"/>
      <point x="91" y="154"/>
      <point x="122" y="184" type="curve" smooth="yes"/>
      <point x="143" y="206"/>
      <point x="175" y="222"/>
      <point x="214" y="222" type="curve" smooth="yes"/>
      <point x="259" y="222"/>
      <point x="312" y="201"/>
      <point x="359" y="137" type="curve" smooth="yes"/>
      <point x="390" y="95"/>
      <point x="412" y="60"/>
      <point x="461" y="60" type="curve" smooth="yes"/>
      <point x="510" y="60"/>
      <point x="543" y="100"/>
      <point x="543" y="172" type="curve" smooth="yes"/>
      <point x="543" y="197"/>
      <point x="538" y="231"/>
      <point x="529" y="257" type="curve" smooth="yes"/>
      <point x="524" y="274"/>
      <point x="534" y="293"/>
      <point x="551" y="299" type="curve" smooth="yes"/>
      <point x="568" y="304"/>
      <point x="587" y="294"/>
      <point x="593" y="277" type="curve" smooth="yes"/>
      <point x="602" y="245"/>
      <point x="609" y="203"/>
      <point x="609" y="172" type="curve" smooth="yes"/>
      <point x="609" y="42"/>
      <point x="540" y="-6"/>
      <point x="461" y="-6" type="curve" smooth="yes"/>
      <point x="390" y="-6"/>
      <point x="352" y="35"/>
      <point x="305" y="99" type="curve" smooth="yes"/>
      <point x="276" y="139"/>
      <point x="243" y="156"/>
      <point x="214" y="156" type="curve" smooth="yes"/>
      <point x="195" y="156"/>
      <point x="179" y="148"/>
      <point x="168" y="138" type="curve" smooth="yes"/>
      <point x="147" y="116"/>
      <point x="136" y="75"/>
      <point x="136" y="17" type="curve" smooth="yes"/>
      <point x="136" y="-1"/>
      <point x="121" y="-16"/>
      <point x="103" y="-16" type="curve" smooth="yes"/>
      <point x="85" y="-16"/>
      <point x="70" y="-1"/>
    </contour>
    <contour>
      <point x="333" y="382" type="curve" smooth="yes"/>
      <point x="304" y="382"/>
      <point x="283" y="361"/>
      <point x="283" y="333" type="curve" smooth="yes"/>
      <point x="283" y="306"/>
      <point x="305" y="286"/>
      <point x="334" y="286" type="curve" smooth="yes"/>
      <point x="364" y="286"/>
      <point x="385" y="306"/>
      <point x="385" y="334" type="curve" smooth="yes"/>
      <point x="385" y="362"/>
      <point x="364" y="382"/>
    </contour>
  </outline>
</glyph>
<glyph name="knNukta" format="1">
  <advance width="481"/>
  <unicode hex="0CBC"/>
  <outline>
    <contour>
      <point x="467" y="-126" type="curve" smooth="yes"/>
      <point x="467" y="-189"/>
      <point x="420" y="-236"/>
      <point x="357" y="-236" type="curve" smooth="yes"/>
      <point x="294" y="-236"/>
      <point x="247" y="-189"/>
      <point x="247" y="-126" type="curve" smooth="yes"/>
      <point x="247" y="-63"/>
      <point x="294" y="-16"/>
      <point x="357" y="-16" type="curve" smooth="yes"/>
      <point x="420" y="-16"/>
      <point x="467" y="-63"/>
    </contour>
    <contour>
      <point x="236" y="-126" type="curve" smooth="yes"/>
      <point x="236" y="-189"/>
      <point x="189" y="-236"/>
      <point x="126" y="-236" type="curve" smooth="yes"/>
      <point x="63" y="-236"/>
      <point x="16" y="-189"/>
      <point x="16" y="-126" type="curve" smooth="yes"/>
      <point x="16" y="-63"/>
      <point x="63" y="-16"/>
      <point x="126" y="-16" type="curve" smooth="yes"/>
      <point x="189" y="-16"/>
      <point x="236" y="-63"/>
    </contour>
    <contour>
      <point x="401" y="-126" type="curve" smooth="yes"/>
      <point x="401" y="-101"/>
      <point x="382" y="-82"/>
      <point x="357" y="-82" type="curve" smooth="yes"/>
      <point x="332" y="-82"/>
      <point x="313" y="-101"/>
      <point x="313" y="-126" type="curve" smooth="yes"/>
      <point x="313" y="-151"/>
      <point x="332" y="-170"/>
      <point x="357" y="-170" type="curve" smooth="yes"/>
      <point x="382" y="-170"/>
      <point x="401" y="-151"/>
    </contour>
    <contour>
      <point x="170" y="-126" type="curve" smooth="yes"/>
      <point x="170" y="-101"/>
      <point x="151" y="-82"/>
      <point x="126" y="-82" type="curve" smooth="yes"/>
      <point x="101" y="-82"/>
      <point x="82" y="-101"/>
      <point x="82" y="-126" type="curve" smooth="yes"/>
      <point x="82" y="-151"/>
      <point x="101" y="-170"/>
      <point x="126" y="-170" type="curve" smooth="yes"/>
      <point x="151" y="-170"/>
      <point x="170" y="-151"/>
    </contour>
  </outline>
</glyph>
